<mxfile modified="2019-10-25T17:08:39.235Z" host="www.draw.io" agent="Mozilla/5.0 (Windows NT 10.0; Win64; x64) AppleWebKit/537.36 (KHTML, like Gecko) Chrome/77.0.3865.120 Safari/537.36" etag="HXJdv-9gi6xPrbnrwb-F" version="12.1.7" type="github" pages="5">
  <diagram id="QQxczYE-u52YfQ4HOSI9" name="Page-1">
    <mxGraphModel dx="868" dy="450" grid="1" gridSize="10" guides="1" tooltips="1" connect="1" arrows="1" fold="1" page="1" pageScale="1" pageWidth="850" pageHeight="1100" math="0" shadow="0">
      <root>
        <mxCell id="0"/>
        <mxCell id="1" parent="0"/>
        <mxCell id="QhatgiAYlian6YnHIfiv-73" value="" style="rounded=0;whiteSpace=wrap;html=1;align=center;" parent="1" vertex="1">
          <mxGeometry x="88" y="198" width="650" height="482" as="geometry"/>
        </mxCell>
        <mxCell id="QhatgiAYlian6YnHIfiv-53" style="edgeStyle=orthogonalEdgeStyle;rounded=0;orthogonalLoop=1;jettySize=auto;html=1;exitX=0.5;exitY=0;exitDx=0;exitDy=0;entryX=1;entryY=0.5;entryDx=0;entryDy=0;startSize=30;endArrow=none;endFill=0;endSize=30;" parent="1" source="QhatgiAYlian6YnHIfiv-1" target="QhatgiAYlian6YnHIfiv-6" edge="1">
          <mxGeometry relative="1" as="geometry">
            <Array as="points">
              <mxPoint x="648" y="269"/>
            </Array>
          </mxGeometry>
        </mxCell>
        <mxCell id="QhatgiAYlian6YnHIfiv-55" style="edgeStyle=orthogonalEdgeStyle;rounded=0;orthogonalLoop=1;jettySize=auto;html=1;exitX=0.5;exitY=1;exitDx=0;exitDy=0;entryX=0.5;entryY=0;entryDx=0;entryDy=0;startSize=30;endArrow=none;endFill=0;endSize=30;startArrow=diamondThin;startFill=1;" parent="1" source="QhatgiAYlian6YnHIfiv-1" target="QhatgiAYlian6YnHIfiv-9" edge="1">
          <mxGeometry relative="1" as="geometry"/>
        </mxCell>
        <mxCell id="QhatgiAYlian6YnHIfiv-1" value="Lyrics" style="swimlane;fontStyle=0;childLayout=stackLayout;horizontal=1;startSize=26;fillColor=#fff2cc;horizontalStack=0;resizeParent=1;resizeParentMax=0;resizeLast=0;collapsible=1;marginBottom=0;strokeColor=#d6b656;" parent="1" vertex="1">
          <mxGeometry x="578" y="282" width="140" height="104" as="geometry">
            <mxRectangle x="578" y="282" width="60" height="26" as="alternateBounds"/>
          </mxGeometry>
        </mxCell>
        <mxCell id="QhatgiAYlian6YnHIfiv-2" value="id" style="text;strokeColor=none;fillColor=none;align=left;verticalAlign=top;spacingLeft=4;spacingRight=4;overflow=hidden;rotatable=0;points=[[0,0.5],[1,0.5]];portConstraint=eastwest;" parent="QhatgiAYlian6YnHIfiv-1" vertex="1">
          <mxGeometry y="26" width="140" height="26" as="geometry"/>
        </mxCell>
        <mxCell id="YL6Rsbth2aPjBf3X3LDW-1" value="content" style="text;strokeColor=none;fillColor=none;align=left;verticalAlign=top;spacingLeft=4;spacingRight=4;overflow=hidden;rotatable=0;points=[[0,0.5],[1,0.5]];portConstraint=eastwest;" parent="QhatgiAYlian6YnHIfiv-1" vertex="1">
          <mxGeometry y="52" width="140" height="26" as="geometry"/>
        </mxCell>
        <mxCell id="QhatgiAYlian6YnHIfiv-3" value="language" style="text;strokeColor=none;fillColor=none;align=left;verticalAlign=top;spacingLeft=4;spacingRight=4;overflow=hidden;rotatable=0;points=[[0,0.5],[1,0.5]];portConstraint=eastwest;" parent="QhatgiAYlian6YnHIfiv-1" vertex="1">
          <mxGeometry y="78" width="140" height="26" as="geometry"/>
        </mxCell>
        <mxCell id="QhatgiAYlian6YnHIfiv-5" value="Song" style="swimlane;fontStyle=0;childLayout=stackLayout;horizontal=1;startSize=26;fillColor=#f5f5f5;horizontalStack=0;resizeParent=1;resizeParentMax=0;resizeLast=0;collapsible=1;marginBottom=0;strokeColor=#666666;fontColor=#333333;" parent="1" vertex="1">
          <mxGeometry x="331" y="230" width="140" height="416" as="geometry"/>
        </mxCell>
        <mxCell id="QhatgiAYlian6YnHIfiv-6" value="id" style="text;strokeColor=none;fillColor=none;align=left;verticalAlign=top;spacingLeft=4;spacingRight=4;overflow=hidden;rotatable=0;points=[[0,0.5],[1,0.5]];portConstraint=eastwest;" parent="QhatgiAYlian6YnHIfiv-5" vertex="1">
          <mxGeometry y="26" width="140" height="26" as="geometry"/>
        </mxCell>
        <mxCell id="QhatgiAYlian6YnHIfiv-7" value="name" style="text;strokeColor=none;fillColor=none;align=left;verticalAlign=top;spacingLeft=4;spacingRight=4;overflow=hidden;rotatable=0;points=[[0,0.5],[1,0.5]];portConstraint=eastwest;" parent="QhatgiAYlian6YnHIfiv-5" vertex="1">
          <mxGeometry y="52" width="140" height="26" as="geometry"/>
        </mxCell>
        <mxCell id="QhatgiAYlian6YnHIfiv-75" value="artist" style="text;strokeColor=none;fillColor=none;align=left;verticalAlign=top;spacingLeft=4;spacingRight=4;overflow=hidden;rotatable=0;points=[[0,0.5],[1,0.5]];portConstraint=eastwest;" parent="QhatgiAYlian6YnHIfiv-5" vertex="1">
          <mxGeometry y="78" width="140" height="26" as="geometry"/>
        </mxCell>
        <mxCell id="QhatgiAYlian6YnHIfiv-74" value="danceability" style="text;strokeColor=none;fillColor=none;align=left;verticalAlign=top;spacingLeft=4;spacingRight=4;overflow=hidden;rotatable=0;points=[[0,0.5],[1,0.5]];portConstraint=eastwest;" parent="QhatgiAYlian6YnHIfiv-5" vertex="1">
          <mxGeometry y="104" width="140" height="26" as="geometry"/>
        </mxCell>
        <mxCell id="QhatgiAYlian6YnHIfiv-8" value="energy" style="text;strokeColor=none;fillColor=none;align=left;verticalAlign=top;spacingLeft=4;spacingRight=4;overflow=hidden;rotatable=0;points=[[0,0.5],[1,0.5]];portConstraint=eastwest;" parent="QhatgiAYlian6YnHIfiv-5" vertex="1">
          <mxGeometry y="130" width="140" height="26" as="geometry"/>
        </mxCell>
        <mxCell id="QhatgiAYlian6YnHIfiv-15" value="key" style="text;strokeColor=none;fillColor=none;align=left;verticalAlign=top;spacingLeft=4;spacingRight=4;overflow=hidden;rotatable=0;points=[[0,0.5],[1,0.5]];portConstraint=eastwest;" parent="QhatgiAYlian6YnHIfiv-5" vertex="1">
          <mxGeometry y="156" width="140" height="26" as="geometry"/>
        </mxCell>
        <mxCell id="QhatgiAYlian6YnHIfiv-17" value="loudness" style="text;strokeColor=none;fillColor=none;align=left;verticalAlign=top;spacingLeft=4;spacingRight=4;overflow=hidden;rotatable=0;points=[[0,0.5],[1,0.5]];portConstraint=eastwest;" parent="QhatgiAYlian6YnHIfiv-5" vertex="1">
          <mxGeometry y="182" width="140" height="26" as="geometry"/>
        </mxCell>
        <mxCell id="QhatgiAYlian6YnHIfiv-20" value="mode" style="text;strokeColor=none;fillColor=none;align=left;verticalAlign=top;spacingLeft=4;spacingRight=4;overflow=hidden;rotatable=0;points=[[0,0.5],[1,0.5]];portConstraint=eastwest;" parent="QhatgiAYlian6YnHIfiv-5" vertex="1">
          <mxGeometry y="208" width="140" height="26" as="geometry"/>
        </mxCell>
        <mxCell id="QhatgiAYlian6YnHIfiv-21" value="speachiness" style="text;strokeColor=none;fillColor=none;align=left;verticalAlign=top;spacingLeft=4;spacingRight=4;overflow=hidden;rotatable=0;points=[[0,0.5],[1,0.5]];portConstraint=eastwest;" parent="QhatgiAYlian6YnHIfiv-5" vertex="1">
          <mxGeometry y="234" width="140" height="26" as="geometry"/>
        </mxCell>
        <mxCell id="QhatgiAYlian6YnHIfiv-18" value="acousticness" style="text;strokeColor=none;fillColor=none;align=left;verticalAlign=top;spacingLeft=4;spacingRight=4;overflow=hidden;rotatable=0;points=[[0,0.5],[1,0.5]];portConstraint=eastwest;" parent="QhatgiAYlian6YnHIfiv-5" vertex="1">
          <mxGeometry y="260" width="140" height="26" as="geometry"/>
        </mxCell>
        <mxCell id="QhatgiAYlian6YnHIfiv-25" value="instrumentalness" style="text;strokeColor=none;fillColor=none;align=left;verticalAlign=top;spacingLeft=4;spacingRight=4;overflow=hidden;rotatable=0;points=[[0,0.5],[1,0.5]];portConstraint=eastwest;" parent="QhatgiAYlian6YnHIfiv-5" vertex="1">
          <mxGeometry y="286" width="140" height="26" as="geometry"/>
        </mxCell>
        <mxCell id="QhatgiAYlian6YnHIfiv-24" value="liveness" style="text;strokeColor=none;fillColor=none;align=left;verticalAlign=top;spacingLeft=4;spacingRight=4;overflow=hidden;rotatable=0;points=[[0,0.5],[1,0.5]];portConstraint=eastwest;" parent="QhatgiAYlian6YnHIfiv-5" vertex="1">
          <mxGeometry y="312" width="140" height="26" as="geometry"/>
        </mxCell>
        <mxCell id="QhatgiAYlian6YnHIfiv-40" value="valence" style="text;strokeColor=none;fillColor=none;align=left;verticalAlign=top;spacingLeft=4;spacingRight=4;overflow=hidden;rotatable=0;points=[[0,0.5],[1,0.5]];portConstraint=eastwest;" parent="QhatgiAYlian6YnHIfiv-5" vertex="1">
          <mxGeometry y="338" width="140" height="26" as="geometry"/>
        </mxCell>
        <mxCell id="QhatgiAYlian6YnHIfiv-39" value="tempo" style="text;strokeColor=none;fillColor=none;align=left;verticalAlign=top;spacingLeft=4;spacingRight=4;overflow=hidden;rotatable=0;points=[[0,0.5],[1,0.5]];portConstraint=eastwest;" parent="QhatgiAYlian6YnHIfiv-5" vertex="1">
          <mxGeometry y="364" width="140" height="26" as="geometry"/>
        </mxCell>
        <mxCell id="QhatgiAYlian6YnHIfiv-41" value="duration" style="text;strokeColor=none;fillColor=none;align=left;verticalAlign=top;spacingLeft=4;spacingRight=4;overflow=hidden;rotatable=0;points=[[0,0.5],[1,0.5]];portConstraint=eastwest;" parent="QhatgiAYlian6YnHIfiv-5" vertex="1">
          <mxGeometry y="390" width="140" height="26" as="geometry"/>
        </mxCell>
        <mxCell id="QhatgiAYlian6YnHIfiv-9" value="Annotation" style="swimlane;fontStyle=0;childLayout=stackLayout;horizontal=1;startSize=26;fillColor=#fff2cc;horizontalStack=0;resizeParent=1;resizeParentMax=0;resizeLast=0;collapsible=1;marginBottom=0;strokeColor=#d6b656;" parent="1" vertex="1">
          <mxGeometry x="578" y="445" width="140" height="78" as="geometry">
            <mxRectangle x="578" y="445" width="90" height="26" as="alternateBounds"/>
          </mxGeometry>
        </mxCell>
        <mxCell id="QhatgiAYlian6YnHIfiv-10" value="id" style="text;strokeColor=none;fillColor=none;align=left;verticalAlign=top;spacingLeft=4;spacingRight=4;overflow=hidden;rotatable=0;points=[[0,0.5],[1,0.5]];portConstraint=eastwest;" parent="QhatgiAYlian6YnHIfiv-9" vertex="1">
          <mxGeometry y="26" width="140" height="26" as="geometry"/>
        </mxCell>
        <mxCell id="QhatgiAYlian6YnHIfiv-11" value="contennt" style="text;strokeColor=none;fillColor=none;align=left;verticalAlign=top;spacingLeft=4;spacingRight=4;overflow=hidden;rotatable=0;points=[[0,0.5],[1,0.5]];portConstraint=eastwest;" parent="QhatgiAYlian6YnHIfiv-9" vertex="1">
          <mxGeometry y="52" width="140" height="26" as="geometry"/>
        </mxCell>
        <mxCell id="QhatgiAYlian6YnHIfiv-42" value="Top Chart" style="swimlane;fontStyle=0;childLayout=stackLayout;horizontal=1;startSize=22;fillColor=#d5e8d4;horizontalStack=0;resizeParent=1;resizeParentMax=0;resizeLast=0;collapsible=1;marginBottom=0;swimlaneFillColor=#ffffff;align=center;fontSize=14;strokeColor=#82b366;" parent="1" vertex="1">
          <mxGeometry x="108" y="284" width="140" height="74" as="geometry"/>
        </mxCell>
        <mxCell id="QhatgiAYlian6YnHIfiv-43" value="date" style="text;strokeColor=none;fillColor=none;spacingLeft=4;spacingRight=4;overflow=hidden;rotatable=0;points=[[0,0.5],[1,0.5]];portConstraint=eastwest;fontSize=12;" parent="QhatgiAYlian6YnHIfiv-42" vertex="1">
          <mxGeometry y="22" width="140" height="26" as="geometry"/>
        </mxCell>
        <mxCell id="QhatgiAYlian6YnHIfiv-44" value="country" style="text;strokeColor=none;fillColor=none;spacingLeft=4;spacingRight=4;overflow=hidden;rotatable=0;points=[[0,0.5],[1,0.5]];portConstraint=eastwest;fontSize=12;" parent="QhatgiAYlian6YnHIfiv-42" vertex="1">
          <mxGeometry y="48" width="140" height="26" as="geometry"/>
        </mxCell>
        <mxCell id="QhatgiAYlian6YnHIfiv-59" style="edgeStyle=orthogonalEdgeStyle;rounded=0;orthogonalLoop=1;jettySize=auto;html=1;exitX=0.5;exitY=0;exitDx=0;exitDy=0;startSize=30;endArrow=diamondThin;endFill=1;endSize=30;entryX=0.5;entryY=1;entryDx=0;entryDy=0;startArrow=none;startFill=0;" parent="1" source="QhatgiAYlian6YnHIfiv-56" target="QhatgiAYlian6YnHIfiv-42" edge="1">
          <mxGeometry relative="1" as="geometry">
            <mxPoint x="158" y="378" as="targetPoint"/>
          </mxGeometry>
        </mxCell>
        <mxCell id="QhatgiAYlian6YnHIfiv-61" style="edgeStyle=orthogonalEdgeStyle;rounded=0;orthogonalLoop=1;jettySize=auto;html=1;exitX=0.5;exitY=1;exitDx=0;exitDy=0;entryX=0;entryY=0.5;entryDx=0;entryDy=0;startArrow=none;startFill=0;startSize=30;endArrow=none;endFill=0;endSize=30;" parent="1" source="QhatgiAYlian6YnHIfiv-56" target="QhatgiAYlian6YnHIfiv-41" edge="1">
          <mxGeometry relative="1" as="geometry"/>
        </mxCell>
        <mxCell id="QhatgiAYlian6YnHIfiv-56" value="Record" style="swimlane;fontStyle=0;childLayout=stackLayout;horizontal=1;startSize=22;fillColor=#d5e8d4;horizontalStack=0;resizeParent=1;resizeParentMax=0;resizeLast=0;collapsible=1;marginBottom=0;swimlaneFillColor=#ffffff;align=center;fontSize=14;strokeColor=#82b366;" parent="1" vertex="1">
          <mxGeometry x="108" y="447" width="140" height="74" as="geometry"/>
        </mxCell>
        <mxCell id="QhatgiAYlian6YnHIfiv-57" value="place" style="text;strokeColor=none;fillColor=none;spacingLeft=4;spacingRight=4;overflow=hidden;rotatable=0;points=[[0,0.5],[1,0.5]];portConstraint=eastwest;fontSize=12;" parent="QhatgiAYlian6YnHIfiv-56" vertex="1">
          <mxGeometry y="22" width="140" height="26" as="geometry"/>
        </mxCell>
        <mxCell id="QhatgiAYlian6YnHIfiv-58" value="streams" style="text;strokeColor=none;fillColor=none;spacingLeft=4;spacingRight=4;overflow=hidden;rotatable=0;points=[[0,0.5],[1,0.5]];portConstraint=eastwest;fontSize=12;" parent="QhatgiAYlian6YnHIfiv-56" vertex="1">
          <mxGeometry y="48" width="140" height="26" as="geometry"/>
        </mxCell>
        <mxCell id="QhatgiAYlian6YnHIfiv-62" value="1" style="text;html=1;resizable=0;points=[];autosize=1;align=left;verticalAlign=top;spacingTop=-4;" parent="1" vertex="1">
          <mxGeometry x="193" y="363" width="20" height="20" as="geometry"/>
        </mxCell>
        <mxCell id="QhatgiAYlian6YnHIfiv-64" value="50" style="text;html=1;resizable=0;points=[];autosize=1;align=left;verticalAlign=top;spacingTop=-4;" parent="1" vertex="1">
          <mxGeometry x="193" y="425" width="30" height="20" as="geometry"/>
        </mxCell>
        <mxCell id="QhatgiAYlian6YnHIfiv-65" value="1" style="text;html=1;resizable=0;points=[];autosize=1;align=left;verticalAlign=top;spacingTop=-4;" parent="1" vertex="1">
          <mxGeometry x="307" y="555" width="20" height="20" as="geometry"/>
        </mxCell>
        <mxCell id="QhatgiAYlian6YnHIfiv-66" value="1..*" style="text;html=1;resizable=0;points=[];autosize=1;align=left;verticalAlign=top;spacingTop=-4;" parent="1" vertex="1">
          <mxGeometry x="183" y="523" width="30" height="20" as="geometry"/>
        </mxCell>
        <mxCell id="QhatgiAYlian6YnHIfiv-67" value="1..*" style="text;html=1;resizable=0;points=[];autosize=1;align=left;verticalAlign=top;spacingTop=-4;" parent="1" vertex="1">
          <mxGeometry x="478" y="244" width="30" height="20" as="geometry"/>
        </mxCell>
        <mxCell id="QhatgiAYlian6YnHIfiv-69" value="1" style="text;html=1;resizable=0;points=[];autosize=1;align=left;verticalAlign=top;spacingTop=-4;" parent="1" vertex="1">
          <mxGeometry x="654" y="259" width="20" height="20" as="geometry"/>
        </mxCell>
        <mxCell id="QhatgiAYlian6YnHIfiv-70" value="1" style="text;html=1;resizable=0;points=[];autosize=1;align=left;verticalAlign=top;spacingTop=-4;" parent="1" vertex="1">
          <mxGeometry x="661" y="390" width="20" height="20" as="geometry"/>
        </mxCell>
        <mxCell id="QhatgiAYlian6YnHIfiv-72" value="*" style="text;html=1;resizable=0;points=[];autosize=1;align=left;verticalAlign=top;spacingTop=-4;" parent="1" vertex="1">
          <mxGeometry x="656" y="425" width="20" height="20" as="geometry"/>
        </mxCell>
      </root>
    </mxGraphModel>
  </diagram>
  <diagram name="Page-1" id="Vgrg7yaHGppC6LQ4awFP">
    <mxGraphModel dx="1021" dy="529" grid="1" gridSize="10" guides="1" tooltips="1" connect="1" arrows="1" fold="1" page="1" pageScale="1" pageWidth="827" pageHeight="1169" math="0" shadow="0">
      <root>
        <mxCell id="0"/>
        <mxCell id="1" parent="0"/>
        <mxCell id="P-BBpyLvGzEH9ykvUWQx-1" value="" style="rounded=0;whiteSpace=wrap;html=1;" parent="1" vertex="1">
          <mxGeometry x="80" y="40" width="580" height="413" as="geometry"/>
        </mxCell>
        <mxCell id="Uxm_ukYUzoYv_-nXntYi-1" value="" style="shape=folder;fontStyle=1;spacingTop=10;tabWidth=90;tabHeight=20;tabPosition=left;html=1;fillColor=#f5f5f5;strokeColor=#666666;fontColor=#333333;" parent="1" vertex="1">
          <mxGeometry x="100" y="60" width="300" height="250" as="geometry"/>
        </mxCell>
        <mxCell id="Uxm_ukYUzoYv_-nXntYi-3" value="&lt;b&gt;spotichart package&lt;/b&gt;" style="text;html=1;resizable=0;points=[];autosize=1;align=left;verticalAlign=top;spacingTop=-4;" parent="1" vertex="1">
          <mxGeometry x="193" y="85.5" width="120" height="20" as="geometry"/>
        </mxCell>
        <mxCell id="Uxm_ukYUzoYv_-nXntYi-20" style="rounded=0;orthogonalLoop=1;jettySize=auto;html=1;exitX=0.999;exitY=0.328;exitDx=0;exitDy=0;exitPerimeter=0;entryX=0.367;entryY=0.617;entryDx=0;entryDy=0;entryPerimeter=0;dashed=1;endArrow=open;endFill=0;" parent="1" source="Uxm_ukYUzoYv_-nXntYi-4" target="Uxm_ukYUzoYv_-nXntYi-19" edge="1">
          <mxGeometry relative="1" as="geometry"/>
        </mxCell>
        <mxCell id="Uxm_ukYUzoYv_-nXntYi-26" style="edgeStyle=none;rounded=0;orthogonalLoop=1;jettySize=auto;html=1;exitX=0.992;exitY=0.828;exitDx=0;exitDy=0;exitPerimeter=0;entryX=0.067;entryY=0.57;entryDx=0;entryDy=0;entryPerimeter=0;endArrow=open;endFill=0;dashed=1;" parent="1" source="Uxm_ukYUzoYv_-nXntYi-4" target="Uxm_ukYUzoYv_-nXntYi-23" edge="1">
          <mxGeometry relative="1" as="geometry"/>
        </mxCell>
        <mxCell id="Uxm_ukYUzoYv_-nXntYi-4" value="spotipy" style="shape=folder;fontStyle=1;spacingTop=10;tabWidth=40;tabHeight=14;tabPosition=left;html=1;fillColor=#dae8fc;strokeColor=#6c8ebf;" parent="1" vertex="1">
          <mxGeometry x="200" y="125" width="100" height="60" as="geometry"/>
        </mxCell>
        <mxCell id="Uxm_ukYUzoYv_-nXntYi-30" style="edgeStyle=none;rounded=0;orthogonalLoop=1;jettySize=auto;html=1;exitX=0;exitY=0;exitDx=0;exitDy=37;exitPerimeter=0;entryX=0;entryY=0;entryDx=80;entryDy=37;entryPerimeter=0;dashed=1;endArrow=open;endFill=0;" parent="1" source="Uxm_ukYUzoYv_-nXntYi-5" target="Uxm_ukYUzoYv_-nXntYi-7" edge="1">
          <mxGeometry relative="1" as="geometry"/>
        </mxCell>
        <mxCell id="Uxm_ukYUzoYv_-nXntYi-47" style="edgeStyle=none;rounded=0;orthogonalLoop=1;jettySize=auto;html=1;exitX=0.99;exitY=0.495;exitDx=0;exitDy=0;exitPerimeter=0;entryX=-0.13;entryY=0.563;entryDx=0;entryDy=0;entryPerimeter=0;endArrow=open;endFill=0;dashed=1;" parent="1" source="Uxm_ukYUzoYv_-nXntYi-5" target="Uxm_ukYUzoYv_-nXntYi-41" edge="1">
          <mxGeometry relative="1" as="geometry"/>
        </mxCell>
        <mxCell id="Uxm_ukYUzoYv_-nXntYi-48" style="edgeStyle=none;rounded=0;orthogonalLoop=1;jettySize=auto;html=1;exitX=0;exitY=0;exitDx=90;exitDy=48.5;exitPerimeter=0;dashed=1;endArrow=open;endFill=0;" parent="1" source="Uxm_ukYUzoYv_-nXntYi-5" target="Uxm_ukYUzoYv_-nXntYi-44" edge="1">
          <mxGeometry relative="1" as="geometry">
            <Array as="points">
              <mxPoint x="420" y="269"/>
              <mxPoint x="420" y="285"/>
            </Array>
          </mxGeometry>
        </mxCell>
        <mxCell id="Uxm_ukYUzoYv_-nXntYi-5" value="lyrics" style="shape=folder;fontStyle=1;spacingTop=10;tabWidth=40;tabHeight=14;tabPosition=left;html=1;fillColor=#dae8fc;strokeColor=#6c8ebf;" parent="1" vertex="1">
          <mxGeometry x="290" y="220" width="90" height="60" as="geometry"/>
        </mxCell>
        <mxCell id="Uxm_ukYUzoYv_-nXntYi-38" style="edgeStyle=none;rounded=0;orthogonalLoop=1;jettySize=auto;html=1;exitX=0.533;exitY=1.004;exitDx=0;exitDy=0;exitPerimeter=0;entryX=0.484;entryY=0.06;entryDx=0;entryDy=0;entryPerimeter=0;endArrow=open;endFill=0;dashed=1;" parent="1" source="Uxm_ukYUzoYv_-nXntYi-7" target="Uxm_ukYUzoYv_-nXntYi-35" edge="1">
          <mxGeometry relative="1" as="geometry"/>
        </mxCell>
        <mxCell id="Uxm_ukYUzoYv_-nXntYi-7" value="language" style="shape=folder;fontStyle=1;spacingTop=10;tabWidth=40;tabHeight=14;tabPosition=left;html=1;fillColor=#dae8fc;strokeColor=#6c8ebf;" parent="1" vertex="1">
          <mxGeometry x="135" y="220" width="80" height="60" as="geometry"/>
        </mxCell>
        <mxCell id="Uxm_ukYUzoYv_-nXntYi-21" value="&amp;lt;&amp;lt;use&amp;gt;&amp;gt;" style="text;html=1;resizable=0;points=[];autosize=1;align=left;verticalAlign=top;spacingTop=-4;rotation=0;" parent="1" vertex="1">
          <mxGeometry x="330" y="125" width="60" height="20" as="geometry"/>
        </mxCell>
        <mxCell id="Uxm_ukYUzoYv_-nXntYi-22" value="&lt;font style=&quot;font-size: 10px&quot;&gt;Web API v1&lt;/font&gt;" style="text;html=1;resizable=0;points=[];autosize=1;align=left;verticalAlign=top;spacingTop=-4;" parent="1" vertex="1">
          <mxGeometry x="416" y="119.5" width="70" height="20" as="geometry"/>
        </mxCell>
        <mxCell id="Uxm_ukYUzoYv_-nXntYi-27" value="&lt;font style=&quot;font-size: 10px&quot;&gt;Spotify Charts&lt;/font&gt;" style="text;html=1;resizable=0;points=[];autosize=1;align=left;verticalAlign=top;spacingTop=-4;" parent="1" vertex="1">
          <mxGeometry x="420" y="179" width="80" height="20" as="geometry"/>
        </mxCell>
        <mxCell id="Uxm_ukYUzoYv_-nXntYi-29" value="&amp;lt;&amp;lt;use&amp;gt;&amp;gt;" style="text;html=1;resizable=0;points=[];autosize=1;align=left;verticalAlign=top;spacingTop=-4;rotation=0;" parent="1" vertex="1">
          <mxGeometry x="334" y="172" width="60" height="20" as="geometry"/>
        </mxCell>
        <mxCell id="Uxm_ukYUzoYv_-nXntYi-31" value="&amp;lt;&amp;lt;use&amp;gt;&amp;gt;" style="text;html=1;resizable=0;points=[];autosize=1;align=center;verticalAlign=top;spacingTop=-4;" parent="1" vertex="1">
          <mxGeometry x="220" y="238" width="60" height="20" as="geometry"/>
        </mxCell>
        <mxCell id="Uxm_ukYUzoYv_-nXntYi-36" style="edgeStyle=none;rounded=0;orthogonalLoop=1;jettySize=auto;html=1;exitX=0.587;exitY=0.184;exitDx=0;exitDy=0;exitPerimeter=0;entryX=0.496;entryY=1.107;entryDx=0;entryDy=0;entryPerimeter=0;endArrow=none;endFill=0;" parent="1" source="Uxm_ukYUzoYv_-nXntYi-34" target="Uxm_ukYUzoYv_-nXntYi-35" edge="1">
          <mxGeometry relative="1" as="geometry"/>
        </mxCell>
        <mxCell id="Uxm_ukYUzoYv_-nXntYi-34" value="" style="shape=folder;fontStyle=1;spacingTop=10;tabWidth=40;tabHeight=14;tabPosition=left;html=1;" parent="1" vertex="1">
          <mxGeometry x="113" y="345" width="110" height="78" as="geometry"/>
        </mxCell>
        <mxCell id="Uxm_ukYUzoYv_-nXntYi-35" value="" style="ellipse;whiteSpace=wrap;html=1;fontFamily=Helvetica;fontSize=12;align=center;strokeColor=#b85450;fillColor=#f8cecc;points=[];aspect=fixed;resizable=0;" parent="1" vertex="1">
          <mxGeometry x="172.5" y="335" width="10" height="10" as="geometry"/>
        </mxCell>
        <mxCell id="Uxm_ukYUzoYv_-nXntYi-37" value="&lt;font style=&quot;font-size: 12px&quot;&gt;guess_language&lt;/font&gt;" style="text;html=1;resizable=0;points=[];autosize=1;align=left;verticalAlign=top;spacingTop=-4;" parent="1" vertex="1">
          <mxGeometry x="190" y="330" width="100" height="20" as="geometry"/>
        </mxCell>
        <mxCell id="Uxm_ukYUzoYv_-nXntYi-39" value="&amp;lt;&amp;lt;use&amp;gt;&amp;gt;" style="text;html=1;resizable=0;points=[];autosize=1;align=left;verticalAlign=top;spacingTop=-4;" parent="1" vertex="1">
          <mxGeometry x="178.5" y="288" width="60" height="20" as="geometry"/>
        </mxCell>
        <mxCell id="Uxm_ukYUzoYv_-nXntYi-42" style="edgeStyle=none;rounded=0;orthogonalLoop=1;jettySize=auto;html=1;exitX=0;exitY=0;exitDx=0;exitDy=30;exitPerimeter=0;entryX=0.932;entryY=0.558;entryDx=0;entryDy=0;entryPerimeter=0;endArrow=none;endFill=0;" parent="1" source="Uxm_ukYUzoYv_-nXntYi-40" edge="1">
          <mxGeometry relative="1" as="geometry">
            <mxPoint x="529" y="249" as="sourcePoint"/>
            <mxPoint x="503.31999999999994" y="249.57999999999993" as="targetPoint"/>
          </mxGeometry>
        </mxCell>
        <mxCell id="Uxm_ukYUzoYv_-nXntYi-46" style="edgeStyle=none;rounded=0;orthogonalLoop=1;jettySize=auto;html=1;exitX=-0.003;exitY=0.842;exitDx=0;exitDy=0;exitPerimeter=0;entryX=0.955;entryY=0.582;entryDx=0;entryDy=0;entryPerimeter=0;endArrow=none;endFill=0;" parent="1" source="Uxm_ukYUzoYv_-nXntYi-40" target="Uxm_ukYUzoYv_-nXntYi-44" edge="1">
          <mxGeometry relative="1" as="geometry"/>
        </mxCell>
        <mxCell id="Uxm_ukYUzoYv_-nXntYi-40" value="" style="shape=folder;fontStyle=1;spacingTop=10;tabWidth=40;tabHeight=14;tabPosition=left;html=1;" parent="1" vertex="1">
          <mxGeometry x="529" y="220" width="110" height="78" as="geometry"/>
        </mxCell>
        <mxCell id="Uxm_ukYUzoYv_-nXntYi-41" value="" style="ellipse;whiteSpace=wrap;html=1;fontFamily=Helvetica;fontSize=12;align=center;strokeColor=#d6b656;fillColor=#fff2cc;points=[];aspect=fixed;resizable=0;" parent="1" vertex="1">
          <mxGeometry x="494" y="245" width="10" height="10" as="geometry"/>
        </mxCell>
        <mxCell id="Uxm_ukYUzoYv_-nXntYi-43" value="&lt;font style=&quot;font-size: 10px&quot;&gt;Genius API&lt;/font&gt;" style="text;html=1;resizable=0;points=[];autosize=1;align=left;verticalAlign=top;spacingTop=-4;" parent="1" vertex="1">
          <mxGeometry x="470" y="228" width="70" height="20" as="geometry"/>
        </mxCell>
        <mxCell id="Uxm_ukYUzoYv_-nXntYi-44" value="" style="ellipse;whiteSpace=wrap;html=1;fontFamily=Helvetica;fontSize=12;align=center;strokeColor=#d6b656;fillColor=#fff2cc;points=[];aspect=fixed;resizable=0;" parent="1" vertex="1">
          <mxGeometry x="494" y="280" width="10" height="10" as="geometry"/>
        </mxCell>
        <mxCell id="Uxm_ukYUzoYv_-nXntYi-45" value="&lt;font style=&quot;line-height: 20% ; font-size: 10px&quot;&gt;Genius Web&lt;/font&gt;" style="text;html=1;resizable=0;points=[];autosize=1;align=left;verticalAlign=top;spacingTop=-4;" parent="1" vertex="1">
          <mxGeometry x="466" y="293" width="70" height="20" as="geometry"/>
        </mxCell>
        <mxCell id="Uxm_ukYUzoYv_-nXntYi-49" value="&amp;lt;&amp;lt;use&amp;gt;&amp;gt;" style="text;html=1;resizable=0;points=[];autosize=1;align=left;verticalAlign=top;spacingTop=-4;" parent="1" vertex="1">
          <mxGeometry x="406" y="232" width="60" height="10" as="geometry"/>
        </mxCell>
        <mxCell id="Uxm_ukYUzoYv_-nXntYi-50" value="&amp;lt;&amp;lt;use&amp;gt;&amp;gt;" style="text;html=1;resizable=0;points=[];autosize=1;align=left;verticalAlign=top;spacingTop=-4;" parent="1" vertex="1">
          <mxGeometry x="410" y="283" width="60" height="10" as="geometry"/>
        </mxCell>
        <mxCell id="1FQ1oXPBSDcfWM4i5nte-1" value="" style="group" parent="1" vertex="1" connectable="0">
          <mxGeometry x="460" y="105.5" width="140" height="78" as="geometry"/>
        </mxCell>
        <mxCell id="Uxm_ukYUzoYv_-nXntYi-8" value="" style="shape=folder;fontStyle=1;spacingTop=10;tabWidth=40;tabHeight=14;tabPosition=left;html=1;fillOpacity=100;strokeColor=#191414;" parent="1FQ1oXPBSDcfWM4i5nte-1" vertex="1">
          <mxGeometry x="30" width="110" height="78" as="geometry"/>
        </mxCell>
        <mxCell id="Uxm_ukYUzoYv_-nXntYi-17" value="" style="rounded=0;orthogonalLoop=1;jettySize=auto;html=1;endArrow=none;endFill=0;" parent="1FQ1oXPBSDcfWM4i5nte-1" source="Uxm_ukYUzoYv_-nXntYi-8" target="Uxm_ukYUzoYv_-nXntYi-19" edge="1">
          <mxGeometry relative="1" as="geometry">
            <mxPoint x="-30" y="44" as="sourcePoint"/>
          </mxGeometry>
        </mxCell>
        <mxCell id="Uxm_ukYUzoYv_-nXntYi-19" value="" style="ellipse;whiteSpace=wrap;html=1;fontFamily=Helvetica;fontSize=12;align=center;strokeColor=#1DB954;fillColor=#1ED769;points=[];aspect=fixed;resizable=0;" parent="1FQ1oXPBSDcfWM4i5nte-1" vertex="1">
          <mxGeometry y="34" width="10" height="10" as="geometry"/>
        </mxCell>
        <mxCell id="Uxm_ukYUzoYv_-nXntYi-23" value="" style="ellipse;whiteSpace=wrap;html=1;fontFamily=Helvetica;fontSize=12;align=center;strokeColor=#1DB954;fillColor=#1ED769;points=[];aspect=fixed;resizable=0;" parent="1FQ1oXPBSDcfWM4i5nte-1" vertex="1">
          <mxGeometry y="63.5" width="10" height="10" as="geometry"/>
        </mxCell>
        <mxCell id="Uxm_ukYUzoYv_-nXntYi-24" style="edgeStyle=none;rounded=0;orthogonalLoop=1;jettySize=auto;html=1;exitX=0.002;exitY=0.884;exitDx=0;exitDy=0;exitPerimeter=0;entryX=0.973;entryY=0.523;entryDx=0;entryDy=0;entryPerimeter=0;endArrow=none;endFill=0;" parent="1FQ1oXPBSDcfWM4i5nte-1" source="Uxm_ukYUzoYv_-nXntYi-8" target="Uxm_ukYUzoYv_-nXntYi-23" edge="1">
          <mxGeometry relative="1" as="geometry"/>
        </mxCell>
        <mxCell id="yCXvOLqKIGY-_UXzzoL4-2" value="" style="shape=image;verticalLabelPosition=bottom;labelBackgroundColor=#ffffff;verticalAlign=top;aspect=fixed;imageAspect=0;image=data:image/png,iVBORw0KGgoAAAANSUhEUgAAAJIAAACSCAYAAACue5OOAAAACXBIWXMAAAsTAAALEwEAmpwYAAAAAXNSR0IArs4c6QAAAARnQU1BAACxjwv8YQUAABAnSURBVHgB7Z1LbFTXGce/OzMem5czBpo4CY8hJUqMqsYsQlEViaHJAlVtMWq6aBdhvGuVSIRlsgFvkm6qgESkbiouUdWqUlpAysKV0maQoioKC0/UBlORimtDUjcQPBiDPbZnbs//eo65Hs97zj333DvnJw13PBj8uP/5vvO9zjGoA+n55WByy2uDiQjRoGFQkiK00zYoYRB7blOi9GnJKv/cwh926WrgWqQJ2yYLj9klyub2mjnqMAwKOcmxdLLQRSmK0XPs7kM4gy6xeINBOSaqLLtmmcguLbLr1IBpUYgJnZASY+nEpi4aMqJ0gH2YouqWRTYWs2KZxWu5S/R0IhM2YYVCSHBVm3+2+2j0iY0pY1k8ygNRLV2fuWjv6r0QBlEFVkiwPL3dlGZrm8NBEU81ICoq0LnFKAXWUgVOSNv+mU4t/mf6WPezfSnP1zo+wERlzn0yde728GiGAkRghPTon3401P3drceCbn0apTCdz0Z6u0/f+I5pUgBQXkjb/5VOs4XzCVJn0Swbyy7QiOqCUlZIW36TSm/4YbKTBVSO0oJSTkhYAxkxOtEpLqwFrJlR60jueCZLCqGMkJz8Tw+9w76hNGnqgkX5ItGIKlGeEkLacTV9jF1OhjEK8xhl3J2vQuofTye7iM5qN9YeTsacaNhP6xQhn3h89KfH4gaNaRG1D36HcaKPEOGST0i3SE5Geh0L5216nTTCYZn+U/fmaER2B4JUIcGV4Z1DOqT3GmuB6KBMVyfNtSGshysjLSIZJGMzC2Pbr6SHSBJShISoLBJjlkhHZdKI9MYThkHnd4ynT5AEPBeS84PYdIo0fnFShpg8XSNtH0+f1QlGNUAC88aAOUwe4ZmQtIjUw0sxeSIkLSJ18UpMwoWkRaQ+XohJqJC0iIKDaDEJi9oQGWgRBQfcK5HRnBCLVPqGTpImeNh0fHKP2XZ6pm0hIXuKxBdpAkuRlVNuDpgZaoO2hITaGVLxyKKSJrgYlFuwaW87tbmW10io4qMAq0UUAljpCvcS95RapGUhOa0gugAbJpKblu9pS0SpBZwRIYN+TZpQwdY5+9f/+Km7s78f/4SapOk1ku4pCjktrpeadm3osSYtovDC1kule9wUTQnJcWm6xzr04B7vuJJuqhW6YdemXVqHwVzczBztarT3u2GLxMydjtI6CebiMLDa6Kc3JKTEO6lBXUfrPHDPt42nU418bkNC6j2U1CWQDsWgxnJLdfNIzgI7oq1Rp4KdfmO7ExNzf7WydT6vNqyyf50UXhsV7y1QcWaBCl/OrjznV7D01Wwz/x3Fntj48PmTGzGNQZFNcTJKV7zWgViTA+auWp9QU0ilTa6azimIBKJYYiJZHL/jXCEMXCEcXP2ACwriij+72fk4PrB87Spdw4ZdoOFam1XUFJJsa7Rw9Y4jGFz5cwgpaHBBQWQQHK4hEFhNq1RVSF5bIwgk/+kUzbNHkEXTDBBUlAmrZ18/dbMHPg4S85/fPvL1yx9cqPR3VYW07R8/H4v0dQ+SyG+EiSZ/eVk8EFGnwy3X+hd3OKKCuFQG2+fcGDAPVvq7ikLaevZQav3+/o9IEBDO3XezWjx1gLAgJggLVxUX9tW6KWOVPnnd/v6jJIjZC1/QnTc+Jk194Nrn/jbpPACs1IYju5Vyg4v/nsbuepny19dYpFJN7ToJAFHVVy+9T5r24aJax6yVr5aqSg1uTWa7qyCuug93phEDApLptz913pj/OzpK989/Qb7AanA4uqP85TVCikRJiFuDmfbthw05WGt+8+bHjqhwlZ1Pw/kv5a+tKpHArbEXhGxBk//sFt2/oIXkJXizLjJLde+9K47Fim1dJ8XtoWySJ8Ncujx1l7+2yiIZ12ek7fClEQsW6HB5sFIyPMHmoW+vGvdeJaT4rt7DJIgOrUn5Dtwcd3teCiq6beMB98crUZvIaI1zY98fyJaYrTZYHibqKrDygiunmrjdRd7y5zZ73mzhVyUQ7W098wNP3tgz89THo7eHeaRruRQ9LXbW8ZHXBinHIg1RoDKPTDB+KSg1RF1FUq8tIC8e806DJdeDr1VUBGsnWCekDh55dVDo7wlHvjIVmXi+IqSupxMHSDC9r+xxfsHNmlhYFryT4qXCJxePn0XPSOl7qgVuGu9UWHmuiMBwDxDtwTqJSm6Wzg02nef8RS8r/XfPZGvmlCAcXsjsCWAxsxawVgslYfEite1jcRpviP7zPxFlmVY6AhwhebE+KgfvTidMZb9UuAasYyAaZGp7FC9WisZpk2G/B0RafggLb9jHzh0iEUS7o8nrT/1uwnFtXTYNen0GAN4BfW/sI83yAhiPjWzdAiAmLioZrhCWEZZSxFJh6UEB3QCmIyQ99OgvPSWXDmC5IShYby9FNffhpLMAbxc7Qk6r0bKQDHrOJo0KwHLDUuHBlwMPmLUqCC6DiGoihHZwdRKSrHYitIFNIwa+HHjyw5fpUbamwXpSFKIiYKOknVhyLJ0o6jNClIe7P1gpRMHt1jGF5ZOYdnpe3bvTwKlFzoEzmkABQSE3hMbBZt0ekrmwcqKIFGhvhJmmJGkCBywKKgcI45GxbgbR0XOBaDAWZCG5hyOXXAOSvDbm7tOp9K7lg48cnj3ndTr+Md7BqhahuaAQgdVzefg5trz1gvC8HTQUowAIiZcacHWPLolu6MrX+Xte43PPq6kiMnwPW95+wRGVO/ELkIBEmQmRoCdlpgjtNHaOpz+yFcoj8ZIChMPHllSfd3MPROLd3lUSWsdg00UlhMQzu7weFQYgJKd2+Hy/sqNFwjAoa/i1SQTP3gbB4oiAdzFsHNqt/CBkC1gx8gF0AmBh2Enw/QwQssMVrntphzMIKTLJ6CewSFKrI3rWbTVcVEG3VNKFdOu1v69MkmpWg3UULNSmV/YEbk0lXUiy+7iDCgSFDtOgWCmpayS4NS2ixuB7ADgJx1cHhbR8eImwEyQbQY8oNY+s8aJ2ke7aMMQnMleEyRKeXUZZg0+XNLPnI8+Qr4wflcotq6ZGFBlJUtVCSc8joUnrNltwN4t7FIlvSlU+t+Y1Kk2JKCYoy5eEZL2pEgDhICzmolHVLZZPieAqupuxFl7Mq7UAE9LV9BjZ8jsk8QuHoPgUBZ9lc3IqXhUXJeHHlAiKtc22k4gCWwIa26+kzxsG6c0jPARiwkJ5/vKUp9YKfUbIQckGQooZzNOQxlPcUyJeigoW3g8hGU6tzSbL65k2zUPcokLgAVGJyvTzSFP6eqlIEzGbCUnryB9QtMWDN/SLsFIFH4QEDcWKRNmWTkjWCIN3N4JZZqEQ0bYqKHfrsCzsKFmR+2eyDZ0QqJEDIlZMeGx+6wUnudoMvA1YNrPzlHW8GksBTJOebVOSZiwUtqxZL7u/yaDc5LNmn1NrM2zS+xgrCixUIyNHCP3X+9AkZ5e0Eyl98BlplIWPHD3BXN6GodUlke7n+539jvwI+wHXjtNGYheZjwvgitt9bttKkbXsIEDADwOsBY90yg/54w8VzmLji/K+N/c5P5PsWmMljNJxEo6QolHKFElN3Af/uQulomfaGv3/Kp3FJrv5jA9xqkDUWHZtUrb+axT3GW5eCcYr+MEz/GSjDmFl67+HHZI2XfJj6hbiwVgSMrxBEU0l8qVhTvwsAGLiDf0hbujL8CcrQmLrpIwh6BySRoFwvj46GmgBVSPvOtwQlmpTqf86TKJauJa7xJ+vuDZnn6QemiaJoH00jCKqBbdUqvdgNwIL+XdZA6aF56vKbDLHt1GovNVCp2RY4CPdCjSltUT5saSrmv8Xb85eIkmg8auT4Rtl+XVUVrssTcxcdH+8KnsU3RC3uvf3v04SQJ5H5qAkWndX9j6q8HAmIBYK5Af8qCwMGGA9FelVvzu0K9H9q9y7D+u0azpIZLk3RGtfvvh+W22oEAeShzyng4fh2iCrlYTdymZdriQnRL9Q2pNJRrO/In3YVal02vaaAUmW8r7I5JUij8ENRn3ozpv1D04unyDx8mwSbqFq3cT5UpM/T5KKFpfT7PbhJG06use3Puw6nCt/YY1FcqK3dXRdVjcAugRxViuvbrvPJcHNxHPVBwFgqZw9ntjNF91Cq+Icmzta41Rsjnz8wuHzXc/0SR0I4IvNMORZ+PY1IjdaR3/SRjXEZLJs9nD5ixWFtG08nWKq01smCwCiunfuStuWClZ526e/IL9Z+GTq4NTwaKb89art2qrtLRkG2m2jRRuJnxa7MJ3Pfvn9P+6t9HdVN5GY+/z2adIIhbfR4jgI9BEFjUhfd1VN1BwgUaEjIMxggY7pkfzl+ptqKODaVir9lai5rQ1zbSOk8QxEpI+9d8jpta7X6O931FZPC3VH2rRVkke1NRTaa/m4kk/UtEagboNtbHfibnx3Qu8NIAEcBo3GOFgnO19wLBaStr1H/enH5jBrdHzm3WzNAZGGhmx1BNfR1LVGoKGt/wp6rdSxzI1aRxr5vIaEdHPAzDD7do40nYZ563imoZnHhjcjjeTpdUxVkqZTsCJNeKKGhWTtNXNU1C6uU0C4X16YrUXTO9rohXf4qdRvVI+m99lmyhvWLi7UWFHc4yZpWkgwd4vWjHZxIaVZl8Zpaef//x76yyn2FXVRN2QU2T1lLs2kFmj5CAkWxZ1kF4s0YcGKLd/TlmhZSIji2D8+qNdLwac4s+DcSycyb5G2DrWBL2XmsKHMp0ZdjE3x4VbWRW7aPh2plPU+TpqgMnJjj3mB2kTIMVuTe8xTpOtxQWSEFWRPkgCEbrG9/UraNAy5O5poWoOF+edYhJYmQQjfq12LSX1Eiwh4sum/FpO6eCEi4NnpEVpM6uGViICnx5BoMamDlyICnh6OzMLKNOloTgVGvBQR8NQicXaMp0+yywnSyIfl+ErpGU+RIiTA3NyQfW/hbKQ3rs88kQErXaHq4CSMpXw5iSTH08ni8uYUSdJ4ieXUztosezSDp2ukcvCDReZpr25B8Q60guB3LFNEQKpFcrN9PJ02ltdNSdK0D3NlaDh0esV8+fI+AlfHwtKzuge8PdBjjfZY2VbIja9C4mjr1CLoBSuywquEqKz+t6IIzkLcppOkE5iNYrK10PF2mtFEooyQON96JzW47lDyPGnrVBG4MTToywrrG0U5IXG0u1uDdX/UGvnmeMYkBVFWSBwtKLLs5RKHSQqjvJA4EJQ9nT8W6etWcgdz0cCF5T+/ffrrlz9ouw1WBoEREqf/7KFU/Hv96VAuypELujqdiT7Td1q1NVA9AickDqK8Ass/sdT80aDnoWB9DJsuRvJkqhKFNUtgheQGospPzAzFd/YeDoqoIJ7CzdlLD/78hZn7bdaigBMKIbmBqOav5VLx3YkU++kOkDqLdIuWQ/dL0Xm6EFTLU43QCakcxwXaNMh+0JRh0HO2QYOeH9jD1jq2TVnmrj5jXy/LyhcZP8sXMgi9kCqBE6CWehxxJY0is1gR2mmULJf90IIlq/xzy/mTicVAaG47ZYoJO0JWtEDZ3JlsLgyuqln+D6nLwqjDGiPRAAAAAElFTkSuQmCC;" parent="1FQ1oXPBSDcfWM4i5nte-1" vertex="1">
          <mxGeometry x="60.5" y="21.5" width="49" height="49" as="geometry"/>
        </mxCell>
        <mxCell id="yCXvOLqKIGY-_UXzzoL4-1" value="" style="shape=image;verticalLabelPosition=bottom;labelBackgroundColor=#ffffff;verticalAlign=top;aspect=fixed;imageAspect=0;image=data:image/png,iVBORw0KGgoAAAANSUhEUgAAAKgAAACpCAYAAAC/F3YRAAAgAElEQVR4Ae19B7gcxZH/b3p6Znb3ReUcUCKcAIGQyBlbcMaB6HCGM+awD9ucDx/cwflvc+ZwwGfjcyKaAxtsbIMDyASLZIIIApGEUEYJ6Sk9vby7k7r/X/W8fXp5w5vZ3SftfN9+u7Mz011d/Zvq6urqKk1KKVE5+nBAyiQgWyFFM6RshBR7IcRe9S1FGyCTkLAB+ID0O5/PsFKDpmkAGAAOaCaAODRWA6aNBNgIMDYKYCPB2AhoWh2gJfrQUPkD0CoABSCbIPxtEP5WSEHfOyBFExhLwUwYACOgEfgk4EkIT8D3JYSQCF7vAJjdX3WFT2hgGqAxDbqugekM4PQHgVcDhICb8uD5JhgbCY2NA9MnQWNTwPgkaNqoAx6jByRApWyC9DfB99ZBio2QfgOsuAC43glCAd8lEIpuIAwfK4RTkrSca9ANHeD0ImiA5yOdJEBPANOngvFDoLGp0Njo8Iko8xIPGIAGknEVhLsSUmyGWeWTaAN8H57tw/NEpzQsfY8RcDln4JYO6LqStE5SA9g06PxQMH4oNDat9IQWgYL9GqBSNEB470D470B4m2DVmIAU8GhYLSNAZuvnLsDGSZ9l8DocSDYNGjscujFXqQTZyhiu1/c/gMqkAqTvvgbpr4VZzTslkKv0xuHaUd3pJn3WTHCA6XDaXWjsIHBzIaAfCU2r7X7rsP+93wA0kJavQPrLwePtSpd0OwJJOex7aZAGBGANJnJuygTTj4KmHw+m7x8qwLAHqPTXQ3rPw/ffhpFgkLaHdNobpEv330uWpYPFDDjtDhifC8ZPBeOHDesGD1uACn8NhPs0GN5TneJ2OEqvHNa9ERLxSqpWm4Djw5eHQONngOmHhlR6cYsZdgCV/gb43pPgbCVg6LDbHGUKKi7bhkdtjGnBxNAT8LyZYHyRMlkND+oDKocNQKXYBd97AvBeBU8YFWDmgbIMUH1SfRjpqB8G06fkUULpbi17gEppQ7hPQYpnwGMCTrsN35PKnl06tg2/mmmVixYEzGoLXkpC008D42dBY9Vl3ZiyBqjvvgPpPwIe2ws/5cC2/WCVsKxZWt7EEVBNk4EnLLipGjD+MejG/LIluiwBKvwWCO8RcP6akpSpNrdsGThsCZNAvNpQvgG+cyQY/zg0cmAps6PsAOq7bwDiT9CtDjjt6cpwHiVgJNn6aSJlwbcTACNpemyUNeZddtkAlHRN3/0zuL5UOQ0laYWEnH4qR+QcoGE/UcWVs4rvHANmXACNlYf7X1kAVHhbIf3fQLd2KqnpebICzshh2bMCAinZT62aGDybXP8+A92Y0fOmEpyVHKC++yogfg/d8pFqIQfgylFSDpBuWmfCdxkkPgFunlpSckoGUHLk950/gpvPQzoCqZRXkZolhcK+ykmaxmK0bMrh2ceCmxcBGt93QxF/lQSgUiThu78Ct9ZWhvQidnZeVXVNoGLw0tOgm5dBY8X3lCo6QIW/B8L9BXhsF1Itqbx4Vrm5NByI1xFIR4AZVygv/2JSUVSA+u5mSHE3uNWKVLNdWQ0qZk8PoS41y6+34Nm08e8y6MacIZSW36NFA6jvrgHE3dBNG8kWp6Jv5tdPJb9bgbTGgOeRV/8/gptHFoWmogBUuKshxZ3QdQ8V+2ZR+jWSShRIqzh8wSC1y8DNeZHU071Q2kYY6UHgFOIu6KwCzkgZXYTCaeEk2eGBaQIQ98B334681kglqBrW5Z3QNRfJjsrKUOS9WaQKSJLGE4EkBft8pMN9ZBLUd9cBNKyzCjiLhJuiVUOSNJX0oDMBTd4Dz1kRWd2RADSI0vEL6Nyt6JyRdV1pC94HUh+avBe+uyESgkIHqBQt8Jw7YMTSSLZVZuuR9FqZFJrRSXXuQfp3Q/i7QqcsZIA6cNN3woy3IdVM4Ky4I4XeY2VWoAJpmwMeS8J37oQKuhYijaEC1En+EmaiAamWdMUIH2InlXtRarhvtmHE98JJ3d0ZaC0cqkMDqJtaDDOxCunWyvJlOF0zzErRgHRLClZiI5zkg6ERHwpAffddcONJuB122QTgCo1DlYJy5gAFoaRdEGbiJfjOspyfG+zGIQNUiEb47i9ByHRdMVhdlWsHAAfI2VzYPoT/AIS/fcgtHjJA3dS9MBMeUh0Vf84h98Z+UADpo+mUByMu4aXvhZRD2/A4JIC6qb/AqtqGdEu64vyxH4ArrCaoSVOLDbNqD9zUH4dUbMEA9b33obElcJO2Co49JCoqD++XHCB91LCWwndXFty+AgHqwrPvBzc1uE5F7yyY+/v5g2rzIwDPfqBg+2hBAHXU0N6MVGtlpWg/x9iQmqeG+jYXVnUSbupPBZWVN0ApEwbTnlEmpYJqrDx0YHFAC0xPOn9FJa3It/F5A9RN/hY8pldMSvly+gC+n4Z63WDw0r8FkJ9KmBdAPeclWDXbkW6xK7P2Axhw+TZdmZ5aHVjVTfDSz+T1eM4AlTIF334EwvFLPmunBhfyyYszIdycK40hVFX2RdAqk287EN4TII+3XI+cd+N76SWwahykmt3SOYKQJ3eNEaAzSO6WaztBKd+k43UGiIjWy4qAGaullDe96yGiu/9HcU41lRon1To0g3bOjOgMcUOxQu0iW2CclI94vYCTfBRm4jM5kZwTQCktoJTPwUs5PfmbUxXh3RSvj2HxnzbhjrvehVBpBrt3dq966FIniCljXDym4/p/PxpHzx8FJ8IkC+RiSKkPv33jW3jt9R0wTMpe10lLhqbObwkJ4Qt89CMzcNkVByvVKd/3rlers55qugZPSOzZ5WDipARSHUV6MYgyDcpuDrwCKc6AxsZnpTcngLrpJ2AmgGRz6QLIUvCAPz+0CZ/8h8fhOBTDaRBw9ttsiclTarDghHFAhAC1LIZNmzrwzRuXQfjpHOiU+NPD72PCxATO/sgUJJtpVS7ftvXb4D5/UrFWjOPKryzFH/+8Drf+5Exc+MnpgXtkn7uj+cNzBOL1FpyOR2FWXZ61kqwAlaIRkK/AS5ZmrT0IGhDDkse24lOfJXB6MGKxLumYtYWdN7h2OsgJm+sDQ7iPEs1WVRloaxcwjOxqvmu7uPyLf8PrL1+AceNM2KlM9uQhEDHQo5qGTZvasHtXGz576ROoq/0oPnTOJKSai+TDS2anjjQ09haE/wGYPnkgStX/WbnnppfArNJLsmKkwFln4q3X9+DTlzwB2/ZgWEbe4MxwICrJlCk/802SKh8hSG3avm0v/uXqpWAmVxmSM2WF+U381LiGz11CkUEYbMfBZy59HCvfaVQR7eh6MQ7flTDiFJhsSdbqBgWoypUuXoWXKn6YGmJWLK5j724bn/qHJ7F3bxJGzMjaoOF6g25YeOgPq/HgAxtg1VqR+dX6KRdnnjEREybUQWM69uzpwPkXLcGuBhvxKh5ZvT36hXTRDlqFfBvCb+hxqffJoAD1nOdgVTO4dn7G1d6VFHJOwVRJmnzxSy9izdqdMCyrYMlZSP3FfoZSxZBeff03l6Gl0VaJDqKgwXEExkyswhmnT4IUruLr2rU78fkrnoUAAzei0X97t8VzBYy4Ds/5W+9LPc4HAWgawn0Jwi6BWUlCxU2/647VeOgPK8HNWA+i99cTGuo3rN+F225bBZ4gM1VULZX4+LnT1TBPIxXx99HH1uLGby2HWWXlPf0siEoNKnOL9F+HFG0DFjEgQD1nubJ72hHOeAeiykro2LS+Fdd/42UVODUffW6gMofN/xrHT29bgT3bkzCsAbtnSM0RtofjFo5F/YhqlT6S+Mu4if/+7jIseXwrYnXRqRjdCXccH1a1hO++0v3vHr8H5IDvvKDSWPe4uwgnilkmx/+74TU07mmFYWY1NBSBquJVQe3dvn0v7vnVWvB4NFLUsX1MmV6NhQvGAiJIvKvrDFL4+NJVz6NxVxpWrNN+G3XTPQ+e/eKAa/T9AlT6m8D5NjjFNOJ2MiJWbWDpsw144LeroXMravaUafk67vq/VWhvsmFEoBOq2brOcMJxZCjfN78wLBMbNuzG9f+5DHrMKMpQbyc9WIkmCG9Nv33RL0A952VFoOdHpgT1Twzp51LDd/7nLQjhqhw+/d64n//JTQPr1u3Gk09tU3lJI2mu8HHyieMAzYDoZl8ia8Jdd6/Akke3FGWo94WExmmy9FK/zewLUJWv6E0Iu/jOyBZJzxd24PG/bgQ7YKVnxoYq8PuHNgBa3y7qtyfz/FM4ArNn1mLkyDj8brtxA2uCwDXXv4JkqxuJBO9OKql0lOZS+isB2d79kvrdp/W+txqxGgdOOsLVjD5kdP7BdNx21ypl/iAz0wF9MANPPbsNDZvbYJl9umnIrKEt4hMmVmH2rHpA9uxrbppYsWI7br99FYyq6M17ZPqyaiR8r2+UvD4t993X1Stc3MGd1oh1bF7XgsWPboLGzCF3QH8F0BLkcDk417FndxteenWXSgcTNt1CSPC4jiMOH7nPq6azEpJqmsbx/R+9iYat7TCLMmGS8OzlfZrZC6Bp+O6qwPbZ59Zo/2AWx+LHtqC1pQ08h/XrQqipThRnJUpIimMxtJeBQAL4eObZbZEN81TDrBl1/bKSmxw7dzTjf3/yLvRYNAKje8W0wiXFekjZ2v1v9ACo761DvMYFmSGKeajO8CQeXrw5B++f/ClzbRuzZo/DF75wKLy0k38BeTxBbaEhyw0lnaOOV17bBafdQaAb5kFITrdKzJlNAGX9LnFqzMCdd6/Elg0tkZudiGexWrJ6re5BeQ+ACu9dSn/bL7E9ngr5xLR0bNrQimWv7wQxJcyDPIXGja/Bw388G9NnVMNJ7zOrhFlPV1k6Q0uLDVrgyBdURCt5XdELRR+SoLt2pZFKibzL6qJnsB+ewPRp1TBME0L05Qs3dDQ3tal5AbOil6K01Ou7PfXQLiu4lAK+uxqGHhhuB2tX2NeYpWPZ8j1obekAD5ERnufDNA38+peLcNjcEZ2+lmFT36s8nWH9+21qoseM3DvV8zyceupUXHDeTPier1QE4UssXDgOVdXkTRb+qCY8gVEjLdTXW9i9uwN6f7Z5jePeX63G166ai5EjDTU69GpxaKe0rE6h4ynztaYFNvAugELsAGN74NhD050Ko5bh5Vd3KqNxWHN30gGl7+GWH56CMz88WWW1C/S6wijM/SkNL78StCXXZwJaJa6/9igs+sgsihG371GPsqNE44tLk8baWhN1dSZ27+pr4iEiSBfd0dCE3z74Pq7618MBh5ywoznIKSkW74AUH0DTZ6pKuoZ44a+HWWWi2DNdAo10fbz9TqPShcJquufYuPiiw/Dlr86F3RYdU7vTS6s+bY1p/PXJrQUkX9VAEh9IKw93CgKsPhEGZaNRPZHgqKP9UwN4pgQCg+GX96+Bm6LECWGJkO6cC37TgoFmcghvXdfFLoD6/r4/u64W4Qdt3mppsvH+Jpq99TfG5E+E67iYNHkkfvKjEyAdvygvnfIKSlh4ePEWbNzYCG7sG5xybcEQJ/65VtN1H0luw9LVED8QQOlm3TCwfPkOvPjCDphV4c4Ruojp+iH7A6iA8DYDbvH1T84ZduxIYfeeFGhD11APtWwnJf7n28dj3KQqlS6lGEO7aTGk2lx87wdvKktEMeocKq+U0ORQw/xgAA0mex5+SytbrEumDbn6/gqQtgfKEgMZqDmqNin2QMPeSBTx/ojo8R9n2Lk7pRJ95Tvr7VFO54nvOPjwh2bi05+dBbutOAEmCIw8HsN/3/QGVq5sCLal9Edcmf0XzDY0VMVzkPYaxxNLtqJldyqnfVaFNpXMTdxo7wp+qwBK8Zasag4KUVL0g2nY2+ioveFD3TNE+rNhmLjphmPUhKsY+jTJ/FhtAg8+sA7f/Z/XofPcZ+5F5/UAFdJO1MEkKD1GKsuWzU14fukO8FwAPUBd2f4OVrh4IEUzsxLaXZfXLq9steR1XUNrO4lzMWQShGfjwgvmYMGJ45Buizb1otI5uYZYXQJ//sMGfO6KYAMY06MdAvNibYg3ByqLjyeWEFaibqMGIbYq6gMJKmjjUgmkZycD08oxZWj1k7TkhqXsdfCjDc9DjiyJegvM4Pjet5fjvIseQ7LDVxOOEDFRhkXp+Nvz25FutcFDmC8M2EApIEUQ3z54FShDmNd3JWHAAkK+QGJ9qIfwHHz4rGk45rixSIfsaE2WhnhcR7zWRLwuDqbreHTxFpx6+iO4/v89ryKJGBYv5Ts+JPYFtu/sE1TGOdata8bqNa0wInQgkQ4BtBG0eMQhUxCiCb4b/kpFrlwLthdkZ9BA5QXmGQ2Xf+5gWlYObamWyiX9LG1LbNrcjs1b2pV30aOPbcKyZTTqCHDTGrJqkmlXsc1MwbAt0Z7MLfwNjRy0FEuLKvMWjKbYyRnSQ/32SFhSgDHZBi5EKzh3SjNBUs2SCLyMNAWsQswznuvhoBmj8KEzJ8HLkdm5cNSK69i4oR0XfvopbHi/Ce3t1JH0Yco2yFgOs99cKuq8R/nADn0wyaNGtdyPdjXi5CogJJa/uScSp54M4RRLK5bgELKZ5E0rjARt2C82ZzrJkRIjRtDMlzxqCqRBevjI2dNQMyoWamBd3WRYt74Vb7+zXXUiBWE1rBho704YJrFMh6hmawy1FLkvBHUnU262b7Ka+LaP1tZuS6vZHoKO5W/sjtDDqnMENHSAACr8JjUrKxQbWduT7QZfYuQIS+3eLISGYD8Nx9+fPUWZqrJVl9d1V2Lq1GpY8bjSM8MEZXc6aIJXW2dh0sQqiG7bL7rfE8VvsrknUz6am8lzKseZucaw5YN27NgZrT2UPJsojiij0IqlPGg/zITxCYyot1QownxpUc9PrMWC+aPhp8LViWjf9syZNZg9sw7Sj1BHFx7mzKrH5ClVoY4A2XhJ6+okPZtaKLRRbkO8zhma9qawZWsHWARbUbrTLMReGlebS2piIoV43LgYDppeW5gElB6Omjcao8fH4YZsiSDJFqsxcerJEwNlrTv3Qv0tcObpk2AkDIRh0ciVNMYZ9jSm0dTk5LyDlkYRCpmzek1ztMueytTUCCYlzZYK1P1y5cQg95FHjR7nmDOHPLsLkVISxx4zVjErkmb4Pi759CyARePpRRMCw4zh0xfPhCy2LwRn+GBbEq5NHvs5DvGdfUkWjUgPj0xNTQTQdqDkm8k0HLtgXN4zwwCQOo5UG7+iseOSTfXYE8fjvI/PBK1UhX2Q/fZTF83BkceMBgUxKOqh0SSQ4sXnH5h4e0NHpKSSs7aUbaSDdkCWGqCehxOPH6tWgvJZP6dN/2bMwowZNUBEkwt6CSgkzHduXICamiq4Tnggoi0eo0fX4sYbjilRcgqJNWsJoPmPoA0NKWVxyFF1zRvMCgcyRTpohwoglXcJIT5AwfUPOaQec/9uFISXOwAkbVkYFcOYMXH4Ieuf3ZuXbvdwyNyR+PmPT1F6cuBY3P2O/H+7amFEw20/Ow3TZ9cgXWTpScAiX9mVq2iSnN/wTvfvaUzBS5PkzW1ylS+HSBeX0gGToJWk/N+gfCsc7P7MZOTsD0/JUw8VGD0qhrpaI1qnZEox3ZrGJZcdjBv/62S1lWQoktS1PRWY7ZYfnooLPzlDrW1H1M8Dsp1Ck+/ckcLadc2Alq+juIbWNgfkQxEV3VJh0qVo07RBa8B2FOcCvYSej/M+Nl25q+U+zEtlnqJIzEGDoiOXeET+pd+44SjcfuuHEItxtezXPa5RttpJENBSYXW1iXvuXoSrv3a42o5SCv7rlo7Va1uwc2e7ygKXjfae1zWVzocAGpVtOICkoElSsIOwJwHFP7NTLuYvGIMTjp8I4eW2Nky6U22NCY1CBxaBZAKY3ZrGF688DM89fT7OOuMg+E5mq3D/fAxA6Stg+q6HcxbNwovPXYDPfX6Oksr97PYtQktoVNex7LXdtCEMrAAxSI7Fjjt0F8lsjQ13MTlbbYNcJzs4xSC64rJD8cILm3Nel69K6IAerOMPUnxol2jkoYwYC48bhSWPn4s/P7IF9/16DZa+1IBdu2hmS6ayzOtCQwPH+AlVOPnECbjs0kNwzjlTAE0WL6tGPy1XeBQCz79IDi/R6JD9VFvQXzwgMMPQgsoI5SFiGgXWP/+86bjp5nFYu2Z3TlsnShJkTAOSLS6o7vMunIbzzp+ObVvasWJlEzZubMXeJlsNfbQ6NntWLQ47bAQmTKlSwLXbHAjCcAlxQfrnjg+SWPb6rgJ2n4bS3TkXwjWlIPc/POVcSkg3uq5EVX0M1/7rEbjiyiWQ0siqhKcoUghtV6VZaRHfM6qPhu9USxCmcsJ4C5OmTe5cMsygT9mo4Kf9nlnkMpdD4lu+xehxAy+/ulXlSqJYpOV8MEieFQTFagB1utNu49JL52D+/CnwnGxeNlrgKlbIAlSIjVITKFsg1eog1WJ329dug3Jwkr5WxHcnh5ZpwdaNAgz0mcJpNy4n3T/ShjEwsLgaqjIVl/qbNu6ZCYbv3bRQ2edoRWHgQ0NLsw3Pjs4eN3Ddw/MKDe9NO5N4fEkhwSUybZbKkZucuQt2kcwUNcB3YB0waAJXrd6EAe4r+t8kRdMtDs46ewqu+Kcj4A+6vKgpfY8cbvNcSi56u8qlQp7gePa5Bmzdsreg4BJBO6QylcViZN6LpmUEUI1ZYNCqAF5ipahXG0lmemkX3/vOQsyePVY5M/S6JThlDI1NNlpa3LJ6yfqltQz+DHpZwwO/36AmbCQMCjskRtZbsCy9R3z7wsrq/ynaBwZUkQStUrnU+7+tdP9SCPKRY0zcfcfpsCwDXj97pmgW3dyUUh45WsS+iaXjRHg1m3EdG1Y144klW4YY5lJi9OgYYEang5JtW2O1BNDanJ1Vw2NV9pLo7aYZ8smnT8SPbzkVUngg17TuR8Y38d339kbrm9i90uH6W5LHoIH7H9iA9rb2IUexnjyxOlpOcA2aVgem6SNKa5TL0ky7LYUvfukwXPtvx4Fc08i00/sIIuMVPF71Lm6/PDdMhtbGNO69f00ots/p0yMGKM3f9dG0Fk9B9Mv3oBUmt8PG93+wEFd+8Wj4rt0LpEFsUbvdjTQ0YPlyKDtlZAqi3J+/+/372LRx9xAmRxlbs46ZM2gHRF9hkZ2a3O/QtHowpo8EReIoXGHOvcJC7iS6yIBP24lvvfUkfPlL8xVIM8O9putYs7YJ729oLVI2ikJaUdpnKG4p2Wh/9DMKr60Pqa+DLcEWDppeAxmRD27ALdJJRtAsvga2MtOU7xBJICVjt5f28LOfn4T/vO5E5TdKbmtkME4lk3jq2e1AATE5Swud6GsnIUe5jn7zwAasem8HhrpyJH2hdp9Onpjod+IaRovIeYXCMLIAoNUQkoz1+TqthkFK7mVkQOp0OPj2dxcqd7VEwuhMNsDwyKOb4TnlOxLk3tJw7yTds6PZxvdveUstfAx9pPTxd4eOQO0oKzIfXLLOpNOUrEnN4mNg+ihQkIJyP4i5vieRbk3hc58/BM8+fR7mzZugQtC8uLQBuxui3qtd7hzqRR9Jz4SFW29fhbVrd4JbYay7SyyYH+EmRRUXn0xMI6AWkahJGhsH6Lt7ta58T2nYSrWksPC40Xju6Y/hB7e8g/HjEhg1xizqvvLy5VBAmZXQsfX9Ftz8wzegMT5kB6pgTsRx7IIxCFyyIuIA18HYGGVdUv6gGqO0zCsjqi26YpPNDhIxhhvVur1QdtPoahteJdNoQ3bPr9/wIhr3tKqQPUNtAS2WTJhYi3lHjlQhc4Za3oDPaxqYTrEIyJuWNBM+vWsmH7HlYECaCrlAnUBJUd2W4mTxKITGUjxDfRivs/DE4i247/6VoBTboRzSw8IFYzFmQhVSbeFvwd5Ho4SmT1anSvHU9UlItYvKevY+Dg3rX1aMobnRxlevWar08zD3DZ1DGxsjnK7QBMkhq5JOGyg7q5Kog6aPBbfy3d03rPtxvySeRhVK/vof1y1TEyOKxBfGQSGKElUJnHHaRMgQYwP0ps0wdfh+HaCRDtoJUE1j0PUZAK8AtDfDhtM5De2x2hgefGAD7vzF2+EN7eT75Ls45eSJmH1wHWwVsj0azmimDp1Pg6YFFocuYa0RQCvHsOUAgTNRY2Dte8248qrnlANQmEM7Mebi82cUYYOiBp3P6eqHLoDSn+lWV63MdF2t/BgWHCBwUhh1Oy1wyWXPoLGxTcVbDYt4mr2PG1+Pc/9+KrxUrlvC86+dXigv6XTl6aQSugCqsVGANv4AyFSRP+PK/Qly7tVNjiv++QUsW7YFhhXSrL2z4RRu8aLzZ2LMJIpN1dPlMUzemDEdnjcCTJ/UVWwXQGkfrG78HcDLZqt8F5GVHwNzgCZFZnUMN35rOe67/x2V1GHgu/O/osJDGhYuu3QOpEp2m38ZuT6hGRy6cUiPnK3dAEpJQw+DcFU8nFzLrNxXQg4QOGO1cdx+27u44caXVNigsIN5kQ/u2WcfhKMXjoEdYoKK3mxTrkpSgvG5PS71AKjGZsJOVsOMVaRoDy6V4Ql1KIHz1/evx5Vf+hs0piPsLHdqR63GcfVX5qqofqTrRnWYlo5Uqw7GD+5RRU+Aahy6OReUs7tylC8HlOSsi+Oh372Pyy5/UoXS4ZQVI+TD9xws+vBBOP2siSCH8CgPFjPUCK5p8R7V9AAoXdGN+UrXICZUjvLjQGZY//V96/CZS/+qAuqqLHchk0rSkxxM/vPaeSpMTz87bUKrMYCaVNjrXWgfgDJ9FuxkHawIM9r2JqJynp0DNLzSMiAN63fdsRKf/cdu4Ixg6KV4BBddMAennDkJ6bZsEV6y0z/YHTR7T7ea0I1D+9zWB6CaxsHN+dAMY1+Qtj6PVf4oJgcInLEYg1lt4aYbl+ML//yUkmpRSE5qF0WQrqquwre+QaOpF/XWIzBKjGbMA9DXPNYHoESgbh4HN0nbKSrjfDGB2F9dBE5aIXJ8DZdf9iy+cTfmJK0AABB1SURBVMML0HQOIwKdM1M/LWtee/VROOTwUUh35B6SPfN8Pt9knPdtF9w8vt/H+gUo+Yf6YgaM6nAcDfqtufJnVg6Qvpmoj2HDhnZ8aNFf8H/30vq6GelqH6WkmXv4RFx7zRFwk1G61AXNt6oMuM5EMP2gfvnRL0DpTsM6VT1QkaH98i3SP0lqmhZT+uYfH9qIE0/5I15culk5HYe9vt69IWSUp1TjP7vlRCRqeaSrRl31Msp/ekrXae8fAwJUNw5HurUGhPDKUTwOkEBI1FtIpiW++i8v4oKL/qLiyFMS26gPMsr/xzXH4NSzJqsAblFbcqwYh91G+uf8AZs2iMGTg1unQuOPdaagHrCMyoUQOKB0TQpnbpp4eslWfO2apXhnRQMYt4oSHpOSO5xwwnTc8M35amiPwDDQk0u07d0yoOMkaNrAL9+AEpRK49YJsNs4COmVIxoOEDBpMkq65rYdDv75C3/DWYsexjsrdqohnUxLUR+ZhGL33nUaLEsrytBuWAx2O9k+Tx60eVmQlwAzTgazngXS0c7mBqVyP7yYAaZZbSLV5uH2n6zAzTe/gW3bm8C4CV0vzgQ1SIDGcM+dZ2D2YXVINttDijySU1fRSxm3IFLHQmP1gz6SBaAkRU+H3f6cCitDIRErxxA5QJ1jaCrah5vy8Jv71uH7P3wLb7+9Xe1hLIaumWkBBWITvoObv3sazj3vIKRbUtGDU03AGZykgBE7K0PKgN9ZAUqb5xk/FbqSoqkBCyr2BRr6iMEkiYbLEY/pgGWgvdnGb+5Zg5/ftgKvvUbAJKvJwHpYFO2j0N0UiO3LVx6Df79uXpBQLIqKepfZKT0dJT1H9b7a5zwrQOkJwzoLTsdSWHEXdqrEQ32n9zhlro7VUBYdCa/DheuVJ1JJvzSUJYRh0/pWPPiHlbj3V6vw3nu7gsAEplkUqdW95+ml9hwbF184Fz/+3xOUF3vgudT9rmh+07Km06HBiC/KqYKcAAotDmYsAjMXQ0t5Jc1YQWavJX/dhuu+/hLmHz0Wn7x4Fo49dizqRpIXjA8/6akMaDm1PoKbaEpD8ZB05cvA0NKYxotPb8XvHlyPvzy2CU1725RDLjetogOTmkuvseekcc6iObjvl6dBEz5sJ/qMcYrV5E8QMyHTZ2TVPTNdkxtAVbycU2C3PY9YjY9ka5AbKFNIMb+ZoeO9VU14+50d6vN/976HWbNH4pxFU/Gxc6dh3hGjMHoCgZUSGfkqR5HrichUAUreQBH2KPclpRekinZtT2LZaw0q1PaSp7Zg3bq9QQY6zSj6UN69b2hYJ8l5ztlz8NDvzwLnEulk8QKuxaoMOO1xGFVndidr0N+azCOPiO+ugK7/QoVr7C/S8aA1hXRRraRwhqu/9hJuu/1NaLoJCgkIkOrBMXVqHY5bOA7HHz8ex8wfg4Nn12LMmBig1q5JfkiVW174QkVnoywVxIKBFAQyVmvQVBYRcghm5J/AyToXWOik7WPHrhTWrWvBq6/vxssv78Cy13Zi2zaSlAFN3KSYnNGbiwZjMfUX6ZwXXTAX9/3qNJhcIlVEcFLzaUu073wGurlgMFJ7XMsLoPSk03EHzKrVSDanSzNE0TKgycATBq79t1fxg1tepdg9oA3/pEf5KtlCZ75MzcLkydU4eHYdDj1kBA6eMwIzDqpW8S1HjbJQU2MiHmcwCbxkb1SYywBJAgReT6jwOsmUj9ZWF3sa09jekMSG91uxZk2zyrdOKa13NFCeTnJLo+fJI4yVHJSZnqagC9J3cOUXjsZPf3ISKMN1OlU8yUk6L9l57fapsKqvzpCV03feAJViL9zUTdC5g1KZnajBFDWYArP+5Efv4upr/qZm9Eav8IKB1CDpSoClbwKPDitmoLbWRH2dhbo6EzXVBhJVBiySdCwAKElVClDQ0eGircNFc7ON5mZH5Uknw/a+pLGEal2ltI5ynTyn3ux9E8WuShOtGm668QR8/RtHqW3Djl0knbOTHkoeJjUDunkdmE6B6nI/8gYoFe3Zz4Bbi5FuSQ84NOZOQmF3EkjJ1GTVxPDo4s24/J+exs5dLeBWbNAwgwQ8n8xTlMGOClEtyHz3RwsBtvOjoq4xNdyXesjuj9Le/7m2jfr6KvzijjNwwcUz4bSnQZn8iq1txOvicNNnwoh9pDeJWc8LAih1qt3xI1hVW4qz8pClGfG6GNatbsHlVzyLF17cpPRSmrgcqAd5JZHjx4IFk/GLO8/AEfNGqtz06n0sIlOoPnJ8sTvGwqq6rktvz4eEAntRgxm/BE6SwYrrJZOimYaSPjx7TjWefvJcXP8fx1Ma4oGz02Ue2k+/yZ9TeAL/+i8L8OxTH8cRR9LyZToyK8ZgbDRNHV5awoxdUhA4qewCAUpRmceA6edDJ4+UYo8ZvbhC1SdbXWhC4DvfOw5/ffwTOHwupVBMw3UOjOVZFSfVTmPOnNH4y8MfxY9+fBJihlR57UvRPVQnpb6ROBdaZyjFXt2W02mBQ/y+sp3k3TATK5FqTgWq2r5LJftFwVvbm1x89/tv4sc/fQsdHSkww9ov8yhlzEemZeGqLx2Jr19/FEaMiSHdapdEaqpOpwC6NGvvmAGr6qoh4WDIAIVMwUneDDPeVFIDfncukO5DqaL1uIW3lu/Gf934Gh5+hBKo+tBNk/I/dr99WP6myZ7nBGatc86ZiW99cwEWHDcOIm0jnS7uLL07A5XeWW3AcapgxK6Dxuq6X87799ABSgYcbwuEdwuY5hXVvpa1tfQm1xiAzrDksa349s1v4vnnN6uZe+DSNvyAGkjMAJgnnTgF/37NUfjoR6cqn4RUW7TBFbLxm8BJEULITMD4VWDdwihme3ag66EAlAr37JfAzd+p8M0+mXDK6CCBGas14TvAo49twW23r8Bfn9wCitoGWn40w4/KEXbzSceEIGBynH76FHzlysPxiY9NAyPH3zY7SLpR4veN7MBWjQU3/VEYsTNCYUFoACVqnORDMBMvqTxG9DaV1UFbDJTd1AR8iRdf2IF7frkaDy/eqOJp0nyRcaMo2yty5Qu96MIjqShQV1eNcz8yHZ//3CEqDDcMDU67o/JGDWr4zbWyEO5T9s7U0TDinw2htKCIUAFKRTrJO2EmVqs8RqFRGWZBBFQGWNWGcu7YsqEVjzy6CQ8+tAEvvbITnksZQ2jZ01BOIMVUV+mlpmVJCFrDF9C5hWMXjsP5n5ippOXMg+tVEC+73SkLidnVLWpSFIeTnAojfhU0LbwRKXSASunATf4vzKoGpJrTZTOz72Jmrx+xmA7NMiAdH2++vRdPPf0Bnn5mK15bvhtNe5OdS5rBcibjtIpEecx7FVLAKYGR9EmyWe5bimWoH1GFo+eNwYfOnIKzzpyIo+aNgk57whwXqVT5mcxospaoj8NNjYYRuxrQEgVwY+BHQgcoVSVFCzz7xzDie8tipWng5u+7oqQq+XBSAF9PYOPGNrz1ViOWvrwDb7y1B+vXN6NhRxKeS3oggYoOQip9MuZk5frUea1zFbVrGYN0Hnouo/sEKsX4sQnMmV2Po44ajROOHY+jjx6FGQfVBN5Xvgc76fdKP76v+FL/CsAZg5euATO+qvK7h01TJAAlIoW/C77zUxjxtmED0gxzSUJaFklWGqoY4PrYvTuNzZvbsf79VuXJRL+3N3SgcW8aLS0OOshR2vbUOj9JRpK0OtPUrDYe56ivMzFqZAwTJ1Zh6pRqzJxRh1kzazBtSjXGjYsDaqImQO57tu2XzoaZYUKWbwXOOguenYDGvwKd7wvbneXRvC5HBlCiQvg7Ibyfg1utww6k3blIgDXIKZkS7qpUPZ1jvC/g2T5SaQKVgOP4yseUJjdcJx9STXnXE9jjcT2I/9+VVVqq7H4+pRl3BaIMb9i9LWH8JvUkUWfCs+Ng/MtgPEi6FUbZvcuIFKBUmfAaILxbwWPDT5L2ZlbvcwIueTWRekDfwTkN+hqUCzTpmcppSpJ7QOAYnRnhexc2TM6V5Ky14LkJMP1KMD41UsojByhRr0Dq3wputSHVbJf9xClSjg/jwjOS07VjSnLqEYOTWFUUgCqQ+jvhu7fDiDUjVUn+OuxgqsBZb8FLV0PjX4Qe4bDenTlFAyhVKkUTPOduGLFtJfFP7N7wyu/8OEA+t549Gkz/JzA+Lr+Hh3B3UQFKdEqRhufcCyO2VgULoAkF6W6Vozw5ECxfEjingRmfB2M1RSW06ACl1kkp4Dt/ALeWQqQ9pNPF28BVVO4O48poSKcYpTxOs/VjoBsXQ2PFD8VZEoBm+s1zngPEn8BNWTauehnaDuRvpW/WGGqdX2ofBzezx1CKil8lBSg1SnjrIP37oVutFb00ql7Oo1zStmJK30xA0/8BOj8sj6fDv7XkAKUmSdEK3/0duPUeRNqtDPnh93PWEtWQruINWPDtmWDGp6ASDGd9MtobygKgmSb67jOA+At0SyDVEn0A/0y9lW8gXku6JiXvOge6eU7ZsKSsAEpcEf4WSO9B6NY2iLRTkaYRQqW71PTssdD0C6HzWRHWmH/RZQdQaoIUPoS/BPCfgh4TnRvAhvkaYf59E+kTZNqL1Vrwyf2VnQ5m/D00rfiz9GyNLEuAZogW3geAWAxmrgF8gVTECU0z9e7v3/EEJ+8XCOcggH0MjE8v2yaXNUAzXPPdVwDxJHRrL6QdTKIy1yrfOXKgc0ObHjfg2dXQtEXQzZNyfLh0tw0LgCr2SFqBehKQS8FjtooK7Dqi4niSDTsUaE3Nzk14aQqOdgqYcSY0rSrbk2VxffgAtJNdQjRDeE8B/lLwuKYmUuTgWzn6csA0GPSECTcpwfhx0PiZYGxM3xvL+J9hB9AML6XYCekvhfBeBY87gOMhVer4+RniSvyd2WflJAGdH6uSYGhsQompKqz6YQvQTHOlbIZwl0L6r4DH25SHsJN0lWd75p4D4Vs5ddDkR9fhpuLQ9AXQ+UkqhtZwbv+wB2iG+VIkIcUb8N2XoclNKnAVSdV0Ovp85xkaiv1Ny5Jq71TMUCOIJyZD48dB148BhomOmY1n+w1AuzdU+OshvDcgvRUwEq0qFItMeyqbBW1ZGM4H2S8prCHrTE/pdMSgG0eC6cdA02cP56b1S/t+CdBMS6VMA2ItfHcZhLcBZqwj2PTm0g7MYINb5t5y/qZI0irmkcFpFQNOhwXGZ0M3jgbYwaBka/vrsV8DtHunSdkB6W+E9N9BIGF3wKrtzIfp+iqBKkUmLrWAJQlJ+iRJyWArMoW4oX1cYxUomX4YGEnK/RiU3fvtgAFo90ZTJA/hbwPERvjeegh/K6TYjVg1D+LiUHAFT8B3KVWNiCTlYgaIus6gU2oblSaHtEpa2nWhsdHQ2BQwfQYYnwWm077znNNa9WzuMD47QAHas8ek9BRApb8dUmyDEPS9G1I0A0iCElBRCMdgVaAz+QJF8KPcQz7lCw1yhmb0231bkIPgDSrFDaW5IVSqSCS0J17ATnoQMgbG6tVsm0xBBET6UARroPzWxntyLvqzCkAH47FMQso2QLaCFggIsFK2QMpWQLSD1AbAhhQ2JGjbCoGXCgxiOUEjiReDxuLQtFpoWo1KAahSUGt1Krgr02pDj2c0WJOG27X/D1Ye7C3OUxPbAAAAAElFTkSuQmCC;" parent="1" vertex="1">
          <mxGeometry x="560" y="240" width="51" height="51" as="geometry"/>
        </mxCell>
        <mxCell id="yCXvOLqKIGY-_UXzzoL4-3" value="" style="shape=image;verticalLabelPosition=bottom;labelBackgroundColor=#ffffff;verticalAlign=top;aspect=fixed;imageAspect=0;image=data:image/svg+xml,PHN2ZyB4bWxucz0iaHR0cDovL3d3dy53My5vcmcvMjAwMC9zdmciIHdpZHRoPSI2NS44MTIiIGhlaWdodD0iNTgiIHZpZXdCb3g9IjAgMCA2NS44MTIwMzUgNTguMDAwMDAxIj48ZyBmaWxsPSIjYTI5ZDg2IiBzdHJva2U9IiNjY2MiIHN0cm9rZS13aWR0aD0iLjIxNCIgc3Ryb2tlLWxpbmVqb2luPSJiZXZlbCI+PHBhdGggZD0iTTE4LjkzIDE4LjgyNmw5LjMyMyAzLjM5NHYxMC45NTdsLTkuMzIzLTMuMzk0eiIgc3R5bGU9Imlzb2xhdGlvbjphdXRvO21peC1ibGVuZC1tb2RlOm5vcm1hbCIgY29sb3I9IiMwMDAiIG92ZXJmbG93PSJ2aXNpYmxlIiBmaWxsPSIjZTllOWZmIi8+PHBhdGggZD0iTTkuNDcgMjIuMjd2MTAuOTU3bDkuNDYtMy40NDRWMTguODI2eiIgc3R5bGU9Imlzb2xhdGlvbjphdXRvO21peC1ibGVuZC1tb2RlOm5vcm1hbCIgY29sb3I9IiMwMDAiIG92ZXJmbG93PSJ2aXNpYmxlIiBmaWxsPSIjMzUzNTY0Ii8+PHBhdGggZD0iTTkuNDcgMzMuMjI3bDkuMzIyIDMuMzkzIDkuNDYtMy40NDMtOS4zMjItMy4zOTR6IiBzdHlsZT0iaXNvbGF0aW9uOmF1dG87bWl4LWJsZW5kLW1vZGU6bm9ybWFsIiBjb2xvcj0iIzAwMCIgb3ZlcmZsb3c9InZpc2libGUiIGZpbGw9IiNhZmFmZGUiLz48cGF0aCBkPSJNOS40NyAyMi4yN2w5LjMyMiAzLjM5MyA5LjQ2LTMuNDQzLTkuMzIyLTMuMzk0eiIgZmlsbD0iI2Y3ZjdmNCIvPjxwYXRoIGQ9Ik0xOC43OTIgMjUuNjYzVjM2LjYybDkuNDYtMy40NDNWMjIuMjJ6IiBmaWxsPSIjZmZmIi8+PHBhdGggZD0iTTkuNDcgMjIuMjdsOS4zMjIgMy4zOTNWMzYuNjJMOS40NyAzMy4yMjd6IiBmaWxsPSIjZWZlZWVhIi8+PHBhdGggc3R5bGU9Imlzb2xhdGlvbjphdXRvO21peC1ibGVuZC1tb2RlOm5vcm1hbCIgZD0iTTI4LjI5MyAxMS4xNjZsOS4zMjMgMy4zOTN2MTAuOTU3bC05LjMyMy0zLjM5M3oiIGNvbG9yPSIjMDAwIiBvdmVyZmxvdz0idmlzaWJsZSIgZmlsbD0iI2U5ZTlmZiIvPjxwYXRoIHN0eWxlPSJpc29sYXRpb246YXV0bzttaXgtYmxlbmQtbW9kZTpub3JtYWwiIGQ9Ik0xOC44MzMgMTQuNjA5djEwLjk1N2w5LjQ2LTMuNDQzVjExLjE2NnoiIGNvbG9yPSIjMDAwIiBvdmVyZmxvdz0idmlzaWJsZSIgZmlsbD0iIzM1MzU2NCIvPjxwYXRoIHN0eWxlPSJpc29sYXRpb246YXV0bzttaXgtYmxlbmQtbW9kZTpub3JtYWwiIGQ9Ik0xOC44MzMgMjUuNTY2bDkuMzIyIDMuMzkzIDkuNDYxLTMuNDQzLTkuMzIzLTMuMzkzeiIgY29sb3I9IiMwMDAiIG92ZXJmbG93PSJ2aXNpYmxlIiBmaWxsPSIjYWZhZmRlIi8+PHBhdGggZD0iTTE4LjgzMyAxNC42MDlsOS4zMjIgMy4zOTMgOS40NjEtMy40NDMtOS4zMjMtMy4zOTN6IiBmaWxsPSIjZjdmN2Y0Ii8+PHBhdGggZD0iTTI4LjE1NSAxOC4wMDJWMjguOTZsOS40NjEtMy40NDNWMTQuNTU5eiIgZmlsbD0iI2ZmZiIvPjxwYXRoIGQ9Ik0xOC44MzMgMTQuNjA5bDkuMzIyIDMuMzkzVjI4Ljk2bC05LjMyMi0zLjM5M3oiIGZpbGw9IiNlZmVlZWEiLz48cGF0aCBkPSJNOS41NjcgMzMuMjk3bDkuMzIyIDMuMzkzdjEwLjk1N2wtOS4zMjItMy4zOTN6IiBzdHlsZT0iaXNvbGF0aW9uOmF1dG87bWl4LWJsZW5kLW1vZGU6bm9ybWFsIiBjb2xvcj0iIzAwMCIgb3ZlcmZsb3c9InZpc2libGUiIGZpbGw9IiNlOWU5ZmYiLz48cGF0aCBkPSJNLjEwNiAzNi43NHYxMC45NTdsOS40Ni0zLjQ0M1YzMy4yOTd6IiBzdHlsZT0iaXNvbGF0aW9uOmF1dG87bWl4LWJsZW5kLW1vZGU6bm9ybWFsIiBjb2xvcj0iIzAwMCIgb3ZlcmZsb3c9InZpc2libGUiIGZpbGw9IiMzNTM1NjQiLz48cGF0aCBkPSJNLjEwNiA0Ny42OTdMOS40MyA1MS4wOWw5LjQ2LTMuNDQzLTkuMzIyLTMuMzkzeiIgc3R5bGU9Imlzb2xhdGlvbjphdXRvO21peC1ibGVuZC1tb2RlOm5vcm1hbCIgY29sb3I9IiMwMDAiIG92ZXJmbG93PSJ2aXNpYmxlIiBmaWxsPSIjYWZhZmRlIi8+PHBhdGggZD0iTS4xMDYgMzYuNzRsOS4zMjMgMy4zOTMgOS40Ni0zLjQ0My05LjMyMi0zLjM5M3oiIGZpbGw9IiNmN2Y3ZjQiLz48cGF0aCBkPSJNOS40MjkgNDAuMTMzVjUxLjA5bDkuNDYtMy40NDNWMzYuNjl6IiBmaWxsPSIjZmZmIi8+PHBhdGggZD0iTS4xMDYgMzYuNzRsOS4zMjMgMy4zOTNWNTEuMDlMLjEwNiA0Ny42OTd6IiBmaWxsPSIjZWZlZWVhIi8+PC9nPjxnIGZpbGw9IiNhMjlkODYiIHN0cm9rZT0iI2NjYyIgc3Ryb2tlLXdpZHRoPSIuMjE0IiBzdHJva2UtbGluZWpvaW49ImJldmVsIj48cGF0aCBzdHlsZT0iaXNvbGF0aW9uOmF1dG87bWl4LWJsZW5kLW1vZGU6bm9ybWFsIiBkPSJNMTguOTMgMzYuNzAybDkuMzIzIDMuMzkzdjEwLjk1N2wtOS4zMjMtMy4zOTN6IiBjb2xvcj0iIzAwMCIgb3ZlcmZsb3c9InZpc2libGUiIGZpbGw9IiNlOWU5ZmYiLz48cGF0aCBzdHlsZT0iaXNvbGF0aW9uOmF1dG87bWl4LWJsZW5kLW1vZGU6bm9ybWFsIiBkPSJNOS40NyA0MC4xNDV2MTAuOTU3bDkuNDYtMy40NDNWMzYuNzAyeiIgY29sb3I9IiMwMDAiIG92ZXJmbG93PSJ2aXNpYmxlIiBmaWxsPSIjMzUzNTY0Ii8+PHBhdGggc3R5bGU9Imlzb2xhdGlvbjphdXRvO21peC1ibGVuZC1tb2RlOm5vcm1hbCIgZD0iTTkuNDcgNTEuMTAybDkuMzIyIDMuMzkzIDkuNDYtMy40NDMtOS4zMjItMy4zOTN6IiBjb2xvcj0iIzAwMCIgb3ZlcmZsb3c9InZpc2libGUiIGZpbGw9IiNhZmFmZGUiLz48cGF0aCBkPSJNOS40NyA0MC4xNDVsOS4zMjIgMy4zOTMgOS40Ni0zLjQ0My05LjMyMi0zLjM5M3oiIGZpbGw9IiNmN2Y3ZjQiLz48cGF0aCBkPSJNMTguNzkyIDQzLjUzOHYxMC45NTdsOS40Ni0zLjQ0M1Y0MC4wOTV6IiBmaWxsPSIjZmZmIi8+PHBhdGggZD0iTTkuNDcgNDAuMTQ1bDkuMzIyIDMuMzkzdjEwLjk1N0w5LjQ3IDUxLjEwMnoiIGZpbGw9IiNlZmVlZWEiLz48L2c+PGcgZmlsbD0iI2EyOWQ4NiIgc3Ryb2tlPSIjY2NjIiBzdHJva2Utd2lkdGg9Ii4yMTQiIHN0cm9rZS1saW5lam9pbj0iYmV2ZWwiPjxwYXRoIGQ9Ik0xOC45MyAyNS42MzZsOS4zMjMgMy4zOTN2MTAuOTU3bC05LjMyMy0zLjM5M3oiIHN0eWxlPSJpc29sYXRpb246YXV0bzttaXgtYmxlbmQtbW9kZTpub3JtYWwiIGNvbG9yPSIjMDAwIiBvdmVyZmxvdz0idmlzaWJsZSIgZmlsbD0iI2U5ZTlmZiIvPjxwYXRoIGQ9Ik05LjQ3IDI5LjA4djEwLjk1Nmw5LjQ2LTMuNDQzVjI1LjYzNnoiIHN0eWxlPSJpc29sYXRpb246YXV0bzttaXgtYmxlbmQtbW9kZTpub3JtYWwiIGNvbG9yPSIjMDAwIiBvdmVyZmxvdz0idmlzaWJsZSIgZmlsbD0iIzM1MzU2NCIvPjxwYXRoIGQ9Ik05LjQ3IDQwLjAzNmw5LjMyMiAzLjM5NCA5LjQ2LTMuNDQ0LTkuMzIyLTMuMzkzeiIgc3R5bGU9Imlzb2xhdGlvbjphdXRvO21peC1ibGVuZC1tb2RlOm5vcm1hbCIgY29sb3I9IiMwMDAiIG92ZXJmbG93PSJ2aXNpYmxlIiBmaWxsPSIjYWZhZmRlIi8+PHBhdGggZD0iTTkuNDcgMjkuMDhsOS4zMjIgMy4zOTMgOS40Ni0zLjQ0NC05LjMyMi0zLjM5M3oiIGZpbGw9IiNmN2Y3ZjQiLz48cGF0aCBkPSJNMTguNzkyIDMyLjQ3M1Y0My40M2w5LjQ2LTMuNDQ0VjI5LjAzeiIgZmlsbD0iI2ZmZiIvPjxwYXRoIGQ9Ik05LjQ3IDI5LjA4bDkuMzIyIDMuMzkzVjQzLjQzTDkuNDcgNDAuMDM2eiIgZmlsbD0iI2VmZWVlYSIvPjwvZz48ZyBmaWxsPSIjYTI5ZDg2IiBzdHJva2U9IiNjY2MiIHN0cm9rZS13aWR0aD0iLjIxNCIgc3Ryb2tlLWxpbmVqb2luPSJiZXZlbCI+PHBhdGggc3R5bGU9Imlzb2xhdGlvbjphdXRvO21peC1ibGVuZC1tb2RlOm5vcm1hbCIgZD0iTTU2LjM4MyAyOS44OTJsOS4zMjMgMy4zOTN2MTAuOTU3bC05LjMyMy0zLjM5M3oiIGNvbG9yPSIjMDAwIiBvdmVyZmxvdz0idmlzaWJsZSIgZmlsbD0iI2U5ZTlmZiIvPjxwYXRoIHN0eWxlPSJpc29sYXRpb246YXV0bzttaXgtYmxlbmQtbW9kZTpub3JtYWwiIGQ9Ik00Ni45MjMgMzMuMzM1djEwLjk1N2w5LjQ2LTMuNDQzVjI5Ljg5MnoiIGNvbG9yPSIjMDAwIiBvdmVyZmxvdz0idmlzaWJsZSIgZmlsbD0iIzM1MzU2NCIvPjxwYXRoIHN0eWxlPSJpc29sYXRpb246YXV0bzttaXgtYmxlbmQtbW9kZTpub3JtYWwiIGQ9Ik00Ni45MjMgNDQuMjkybDkuMzIyIDMuMzk0IDkuNDYtMy40NDQtOS4zMjItMy4zOTN6IiBjb2xvcj0iIzAwMCIgb3ZlcmZsb3c9InZpc2libGUiIGZpbGw9IiNhZmFmZGUiLz48cGF0aCBkPSJNNDYuOTIzIDMzLjMzNWw5LjMyMiAzLjM5NCA5LjQ2LTMuNDQ0LTkuMzIyLTMuMzkzeiIgZmlsbD0iI2Y3ZjdmNCIvPjxwYXRoIGQ9Ik01Ni4yNDUgMzYuNzI5djEwLjk1N2w5LjQ2LTMuNDQ0VjMzLjI4NXoiIGZpbGw9IiNmZmYiLz48cGF0aCBkPSJNNDYuOTIzIDMzLjMzNWw5LjMyMiAzLjM5NHYxMC45NTdsLTkuMzIyLTMuMzk0eiIgZmlsbD0iI2VmZWVlYSIvPjwvZz48ZyB0cmFuc2Zvcm09InRyYW5zbGF0ZSgtMTY4My42NiAtNTEzLjI3NSkgc2NhbGUoLjY1MTc3KSI+PGcgZmlsbD0iI2EyOWQ4NiIgc3Ryb2tlPSIjY2NjIiBzdHJva2Utd2lkdGg9Ii4zMjgiIHN0cm9rZS1saW5lam9pbj0iYmV2ZWwiPjxwYXRoIHN0eWxlPSJpc29sYXRpb246YXV0bzttaXgtYmxlbmQtbW9kZTpub3JtYWwiIGQ9Ik0yNjU1LjM0OSA4MzguNTk0bDE0LjMwMyA1LjIwNnYxNi44MTFsLTE0LjMwMy01LjIwNnoiIGNvbG9yPSIjMDAwIiBvdmVyZmxvdz0idmlzaWJsZSIgZmlsbD0iI2U5ZTlmZiIvPjxwYXRoIHN0eWxlPSJpc29sYXRpb246YXV0bzttaXgtYmxlbmQtbW9kZTpub3JtYWwiIGQ9Ik0yNjQwLjgzNCA4NDMuODc3djE2LjgxMWwxNC41MTUtNS4yODN2LTE2LjgxeiIgY29sb3I9IiMwMDAiIG92ZXJmbG93PSJ2aXNpYmxlIiBmaWxsPSIjMzUzNTY0Ii8+PHBhdGggc3R5bGU9Imlzb2xhdGlvbjphdXRvO21peC1ibGVuZC1tb2RlOm5vcm1hbCIgZD0iTTI2NDAuODM0IDg2MC42ODhsMTQuMzAzIDUuMjA2IDE0LjUxNS01LjI4My0xNC4zMDMtNS4yMDZ6IiBjb2xvcj0iIzAwMCIgb3ZlcmZsb3c9InZpc2libGUiIGZpbGw9IiNhZmFmZGUiLz48cGF0aCBkPSJNMjY0MC44MzQgODQzLjg3N2wxNC4zMDMgNS4yMDYgMTQuNTE1LTUuMjgzLTE0LjMwMy01LjIwNnoiIGZpbGw9IiNmN2Y3ZjQiLz48cGF0aCBkPSJNMjY1NS4xMzcgODQ5LjA4M3YxNi44MTFsMTQuNTE1LTUuMjgzdi0xNi44MXoiIGZpbGw9IiNmZmQyNDIiLz48cGF0aCBkPSJNMjY0MC44MzQgODQzLjg3N2wxNC4zMDMgNS4yMDZ2MTYuODExbC0xNC4zMDMtNS4yMDZ6IiBmaWxsPSIjZWZlZWVhIi8+PC9nPjxjaXJjbGUgdHJhbnNmb3JtPSJza2V3WSgtMjApIHNjYWxlKC45Mzk3IDEpIiBjeT0iMTgyMy44OTkiIGN4PSIyODM1LjIxOCIgcj0iMi45NjciIGZpbGw9IiNmZmYiLz48L2c+PGcgZmlsbD0iI2EyOWQ4NiIgc3Ryb2tlPSIjY2NjIiBzdHJva2Utd2lkdGg9Ii4yMTQiIHN0cm9rZS1saW5lam9pbj0iYmV2ZWwiPjxwYXRoIGQ9Ik0zNy42NTcgMzYuNzAybDkuMzIyIDMuMzkzdjEwLjk1N2wtOS4zMjItMy4zOTN6IiBzdHlsZT0iaXNvbGF0aW9uOmF1dG87bWl4LWJsZW5kLW1vZGU6bm9ybWFsIiBjb2xvcj0iIzAwMCIgb3ZlcmZsb3c9InZpc2libGUiIGZpbGw9IiNlOWU5ZmYiLz48cGF0aCBkPSJNMjguMTk2IDQwLjE0NXYxMC45NTdsOS40Ni0zLjQ0M1YzNi43MDJ6IiBzdHlsZT0iaXNvbGF0aW9uOmF1dG87bWl4LWJsZW5kLW1vZGU6bm9ybWFsIiBjb2xvcj0iIzAwMCIgb3ZlcmZsb3c9InZpc2libGUiIGZpbGw9IiMzNTM1NjQiLz48cGF0aCBkPSJNMjguMTk2IDUxLjEwMmw5LjMyMyAzLjM5MyA5LjQ2LTMuNDQzLTkuMzIyLTMuMzkzeiIgc3R5bGU9Imlzb2xhdGlvbjphdXRvO21peC1ibGVuZC1tb2RlOm5vcm1hbCIgY29sb3I9IiMwMDAiIG92ZXJmbG93PSJ2aXNpYmxlIiBmaWxsPSIjYWZhZmRlIi8+PHBhdGggZD0iTTI4LjE5NiA0MC4xNDVsOS4zMjMgMy4zOTMgOS40Ni0zLjQ0My05LjMyMi0zLjM5M3oiIGZpbGw9IiNmN2Y3ZjQiLz48cGF0aCBkPSJNMzcuNTE5IDQzLjUzOHYxMC45NTdsOS40Ni0zLjQ0M1Y0MC4wOTV6IiBmaWxsPSIjZmZkMjQyIi8+PHBhdGggZD0iTTI4LjE5NiA0MC4xNDVsOS4zMjMgMy4zOTN2MTAuOTU3bC05LjMyMy0zLjM5M3oiIGZpbGw9IiNlZmVlZWEiLz48L2c+PGcgZmlsbD0iI2EyOWQ4NiIgc3Ryb2tlPSIjY2NjIiBzdHJva2Utd2lkdGg9Ii4yMTQiIHN0cm9rZS1saW5lam9pbj0iYmV2ZWwiPjxwYXRoIHN0eWxlPSJpc29sYXRpb246YXV0bzttaXgtYmxlbmQtbW9kZTpub3JtYWwiIGQ9Ik0yOC4yOTMgNDAuMTA3bDkuMzIzIDMuMzkzdjEwLjk1N2wtOS4zMjMtMy4zOTN6IiBjb2xvcj0iIzAwMCIgb3ZlcmZsb3c9InZpc2libGUiIGZpbGw9IiNlOWU5ZmYiLz48cGF0aCBzdHlsZT0iaXNvbGF0aW9uOmF1dG87bWl4LWJsZW5kLW1vZGU6bm9ybWFsIiBkPSJNMTguODMzIDQzLjU1djEwLjk1N2w5LjQ2LTMuNDQzVjQwLjEwN3oiIGNvbG9yPSIjMDAwIiBvdmVyZmxvdz0idmlzaWJsZSIgZmlsbD0iIzM1MzU2NCIvPjxwYXRoIHN0eWxlPSJpc29sYXRpb246YXV0bzttaXgtYmxlbmQtbW9kZTpub3JtYWwiIGQ9Ik0xOC44MzMgNTQuNTA3bDkuMzIyIDMuMzkzIDkuNDYtMy40NDMtOS4zMjItMy4zOTN6IiBjb2xvcj0iIzAwMCIgb3ZlcmZsb3c9InZpc2libGUiIGZpbGw9IiNhZmFmZGUiLz48cGF0aCBkPSJNMTguODMzIDQzLjU1bDkuMzIyIDMuMzkzIDkuNDYtMy40NDMtOS4zMjItMy4zOTN6IiBmaWxsPSIjZjdmN2Y0Ii8+PHBhdGggZD0iTTI4LjE1NSA0Ni45NDNWNTcuOWw5LjQ2LTMuNDQzVjQzLjV6IiBmaWxsPSIjZmZmIi8+PHBhdGggZD0iTTE4LjgzMyA0My41NWw5LjMyMiAzLjM5M1Y1Ny45bC05LjMyMi0zLjM5M3oiIGZpbGw9IiNlZmVlZWEiLz48L2c+PGcgZmlsbD0iI2EyOWQ4NiIgc3Ryb2tlPSIjY2NjIiBzdHJva2Utd2lkdGg9Ii4yMTQiIHN0cm9rZS1saW5lam9pbj0iYmV2ZWwiPjxwYXRoIGQ9Ik01Ni4zODMgMTguODI2bDkuMzIzIDMuMzk0djEwLjk1N2wtOS4zMjMtMy4zOTR6IiBzdHlsZT0iaXNvbGF0aW9uOmF1dG87bWl4LWJsZW5kLW1vZGU6bm9ybWFsIiBjb2xvcj0iIzAwMCIgb3ZlcmZsb3c9InZpc2libGUiIGZpbGw9IiNlOWU5ZmYiLz48cGF0aCBkPSJNNDYuOTIzIDIyLjI3djEwLjk1N2w5LjQ2LTMuNDQ0VjE4LjgyNnoiIHN0eWxlPSJpc29sYXRpb246YXV0bzttaXgtYmxlbmQtbW9kZTpub3JtYWwiIGNvbG9yPSIjMDAwIiBvdmVyZmxvdz0idmlzaWJsZSIgZmlsbD0iIzM1MzU2NCIvPjxwYXRoIGQ9Ik00Ni45MjMgMzMuMjI3bDkuMzIyIDMuMzkzIDkuNDYtMy40NDMtOS4zMjItMy4zOTR6IiBzdHlsZT0iaXNvbGF0aW9uOmF1dG87bWl4LWJsZW5kLW1vZGU6bm9ybWFsIiBjb2xvcj0iIzAwMCIgb3ZlcmZsb3c9InZpc2libGUiIGZpbGw9IiNhZmFmZGUiLz48cGF0aCBkPSJNNDYuOTIzIDIyLjI3bDkuMzIyIDMuMzkzIDkuNDYtMy40NDMtOS4zMjItMy4zOTR6IiBmaWxsPSIjZjdmN2Y0Ii8+PHBhdGggZD0iTTU2LjI0NSAyNS42NjNWMzYuNjJsOS40Ni0zLjQ0M1YyMi4yMnoiIGZpbGw9IiNmZmQyNDIiLz48cGF0aCBkPSJNNDYuOTIzIDIyLjI3bDkuMzIyIDMuMzkzVjM2LjYybC05LjMyMi0zLjM5M3oiIGZpbGw9IiNlZmVlZWEiLz48L2c+PGcgZmlsbD0iI2EyOWQ4NiIgc3Ryb2tlPSIjY2NjIiBzdHJva2Utd2lkdGg9Ii4yMTQiIHN0cm9rZS1saW5lam9pbj0iYmV2ZWwiPjxwYXRoIHN0eWxlPSJpc29sYXRpb246YXV0bzttaXgtYmxlbmQtbW9kZTpub3JtYWwiIGQ9Ik01Ni4zODMgNy43Nmw5LjMyMyAzLjM5NFYyMi4xMWwtOS4zMjMtMy4zOTN6IiBjb2xvcj0iIzAwMCIgb3ZlcmZsb3c9InZpc2libGUiIGZpbGw9IiNlOWU5ZmYiLz48cGF0aCBzdHlsZT0iaXNvbGF0aW9uOmF1dG87bWl4LWJsZW5kLW1vZGU6bm9ybWFsIiBkPSJNNDYuOTIzIDExLjIwNHYxMC45NTdsOS40Ni0zLjQ0M1Y3Ljc2eiIgY29sb3I9IiMwMDAiIG92ZXJmbG93PSJ2aXNpYmxlIiBmaWxsPSIjMzUzNTY0Ii8+PHBhdGggc3R5bGU9Imlzb2xhdGlvbjphdXRvO21peC1ibGVuZC1tb2RlOm5vcm1hbCIgZD0iTTQ2LjkyMyAyMi4xNjFsOS4zMjIgMy4zOTMgOS40Ni0zLjQ0My05LjMyMi0zLjM5M3oiIGNvbG9yPSIjMDAwIiBvdmVyZmxvdz0idmlzaWJsZSIgZmlsbD0iI2FmYWZkZSIvPjxwYXRoIGQ9Ik00Ni45MjMgMTEuMjA0bDkuMzIyIDMuMzkzIDkuNDYtMy40NDMtOS4zMjItMy4zOTN6IiBmaWxsPSIjZmZjOTFkIi8+PHBhdGggZD0iTTU2LjI0NSAxNC41OTd2MTAuOTU3bDkuNDYtMy40NDNWMTEuMTU0eiIgZmlsbD0iI2ZmZDI0MiIvPjxwYXRoIGQ9Ik00Ni45MjMgMTEuMjA0bDkuMzIyIDMuMzkzdjEwLjk1N2wtOS4zMjItMy4zOTN6IiBmaWxsPSIjZWZlZWVhIi8+PC9nPjxnIGZpbGw9IiNhMjlkODYiIHN0cm9rZT0iI2NjYyIgc3Ryb2tlLXdpZHRoPSIuMjE0IiBzdHJva2UtbGluZWpvaW49ImJldmVsIj48cGF0aCBzdHlsZT0iaXNvbGF0aW9uOmF1dG87bWl4LWJsZW5kLW1vZGU6bm9ybWFsIiBkPSJNNDcuMDIgMjIuMjMxbDkuMzIyIDMuMzkzdjEwLjk1N2wtOS4zMjItMy4zOTN6IiBjb2xvcj0iIzAwMCIgb3ZlcmZsb3c9InZpc2libGUiIGZpbGw9IiNlOWU5ZmYiLz48cGF0aCBzdHlsZT0iaXNvbGF0aW9uOmF1dG87bWl4LWJsZW5kLW1vZGU6bm9ybWFsIiBkPSJNMzcuNTYgMjUuNjc1djEwLjk1N2w5LjQ2LTMuNDQ0VjIyLjIzMXoiIGNvbG9yPSIjMDAwIiBvdmVyZmxvdz0idmlzaWJsZSIgZmlsbD0iIzM1MzU2NCIvPjxwYXRoIHN0eWxlPSJpc29sYXRpb246YXV0bzttaXgtYmxlbmQtbW9kZTpub3JtYWwiIGQ9Ik0zNy41NiAzNi42MzJsOS4zMjIgMy4zOTMgOS40Ni0zLjQ0NC05LjMyMi0zLjM5M3oiIGNvbG9yPSIjMDAwIiBvdmVyZmxvdz0idmlzaWJsZSIgZmlsbD0iI2FmYWZkZSIvPjxwYXRoIGQ9Ik0zNy41NiAyNS42NzVsOS4zMjIgMy4zOTMgOS40Ni0zLjQ0NC05LjMyMi0zLjM5M3oiIGZpbGw9IiNmN2Y3ZjQiLz48cGF0aCBkPSJNNDYuODgyIDI5LjA2OHYxMC45NTdsOS40Ni0zLjQ0NFYyNS42MjR6IiBmaWxsPSIjZmZkMjQyIi8+PHBhdGggZD0iTTM3LjU2IDI1LjY3NWw5LjMyMiAzLjM5M3YxMC45NTdsLTkuMzIzLTMuMzkzeiIgZmlsbD0iI2VmZWVlYSIvPjwvZz48ZyBmaWxsPSIjYTI5ZDg2IiBzdHJva2U9IiNjY2MiIHN0cm9rZS13aWR0aD0iLjIxNCIgc3Ryb2tlLWxpbmVqb2luPSJiZXZlbCI+PHBhdGggZD0iTTQ3LjAyIDExLjE2Nmw5LjMyMiAzLjM5M3YxMC45NTdsLTkuMzIyLTMuMzkzeiIgc3R5bGU9Imlzb2xhdGlvbjphdXRvO21peC1ibGVuZC1tb2RlOm5vcm1hbCIgY29sb3I9IiMwMDAiIG92ZXJmbG93PSJ2aXNpYmxlIiBmaWxsPSIjZTllOWZmIi8+PHBhdGggZD0iTTM3LjU2IDE0LjYwOXYxMC45NTdsOS40Ni0zLjQ0M1YxMS4xNjZ6IiBzdHlsZT0iaXNvbGF0aW9uOmF1dG87bWl4LWJsZW5kLW1vZGU6bm9ybWFsIiBjb2xvcj0iIzAwMCIgb3ZlcmZsb3c9InZpc2libGUiIGZpbGw9IiMzNTM1NjQiLz48cGF0aCBkPSJNMzcuNTYgMjUuNTY2bDkuMzIyIDMuMzkzIDkuNDYtMy40NDMtOS4zMjItMy4zOTN6IiBzdHlsZT0iaXNvbGF0aW9uOmF1dG87bWl4LWJsZW5kLW1vZGU6bm9ybWFsIiBjb2xvcj0iIzAwMCIgb3ZlcmZsb3c9InZpc2libGUiIGZpbGw9IiNhZmFmZGUiLz48cGF0aCBkPSJNMzcuNTYgMTQuNjA5bDkuMzIyIDMuMzkzIDkuNDYtMy40NDMtOS4zMjItMy4zOTN6IiBmaWxsPSIjZjdmN2Y0Ii8+PHBhdGggZD0iTTQ2Ljg4MiAxOC4wMDJWMjguOTZsOS40Ni0zLjQ0M1YxNC41NTl6IiBmaWxsPSIjMzc3NWE5Ii8+PHBhdGggZD0iTTM3LjU2IDE0LjYwOWw5LjMyMiAzLjM5M1YyOC45NmwtOS4zMjMtMy4zOTN6IiBmaWxsPSIjZWZlZWVhIi8+PC9nPjxnIGZpbGw9IiNhMjlkODYiIHN0cm9rZT0iI2NjYyIgc3Ryb2tlLXdpZHRoPSIuMjE0IiBzdHJva2UtbGluZWpvaW49ImJldmVsIj48cGF0aCBzdHlsZT0iaXNvbGF0aW9uOmF1dG87bWl4LWJsZW5kLW1vZGU6bm9ybWFsIiBkPSJNNDcuMDIuMWw5LjMyMiAzLjM5M1YxNC40NWwtOS4zMjItMy4zOTN6IiBjb2xvcj0iIzAwMCIgb3ZlcmZsb3c9InZpc2libGUiIGZpbGw9IiNlOWU5ZmYiLz48cGF0aCBzdHlsZT0iaXNvbGF0aW9uOmF1dG87bWl4LWJsZW5kLW1vZGU6bm9ybWFsIiBkPSJNMzcuNTYgMy41NDNWMTQuNWw5LjQ2LTMuNDQzVi4xeiIgY29sb3I9IiMwMDAiIG92ZXJmbG93PSJ2aXNpYmxlIiBmaWxsPSIjMzUzNTY0Ii8+PHBhdGggc3R5bGU9Imlzb2xhdGlvbjphdXRvO21peC1ibGVuZC1tb2RlOm5vcm1hbCIgZD0iTTM3LjU2IDE0LjVsOS4zMjIgMy4zOTMgOS40Ni0zLjQ0My05LjMyMi0zLjM5M3oiIGNvbG9yPSIjMDAwIiBvdmVyZmxvdz0idmlzaWJsZSIgZmlsbD0iI2FmYWZkZSIvPjxwYXRoIGQ9Ik0zNy41NiAzLjU0M2w5LjMyMiAzLjM5MyA5LjQ2LTMuNDQzTDQ3LjAyLjF6IiBmaWxsPSIjMmY2NDkxIi8+PHBhdGggZD0iTTQ2Ljg4MiA2LjkzNnYxMC45NTdsOS40Ni0zLjQ0M1YzLjQ5M3oiIGZpbGw9IiMzNzc1YTkiLz48cGF0aCBkPSJNMzcuNTYgMy41NDNsOS4zMjIgMy4zOTN2MTAuOTU3TDM3LjU1OSAxNC41eiIgZmlsbD0iI2VmZWVlYSIvPjwvZz48ZyBmaWxsPSIjYTI5ZDg2IiBzdHJva2U9IiNjY2MiIHN0cm9rZS13aWR0aD0iLjIxNCIgc3Ryb2tlLWxpbmVqb2luPSJiZXZlbCI+PHBhdGggZD0iTTM3LjY1NyAyNS42MzZsOS4zMjIgMy4zOTN2MTAuOTU3bC05LjMyMi0zLjM5M3oiIHN0eWxlPSJpc29sYXRpb246YXV0bzttaXgtYmxlbmQtbW9kZTpub3JtYWwiIGNvbG9yPSIjMDAwIiBvdmVyZmxvdz0idmlzaWJsZSIgZmlsbD0iI2U5ZTlmZiIvPjxwYXRoIGQ9Ik0yOC4xOTYgMjkuMDh2MTAuOTU2bDkuNDYtMy40NDNWMjUuNjM2eiIgc3R5bGU9Imlzb2xhdGlvbjphdXRvO21peC1ibGVuZC1tb2RlOm5vcm1hbCIgY29sb3I9IiMwMDAiIG92ZXJmbG93PSJ2aXNpYmxlIiBmaWxsPSIjMzUzNTY0Ii8+PHBhdGggZD0iTTI4LjE5NiA0MC4wMzZsOS4zMjMgMy4zOTQgOS40Ni0zLjQ0NC05LjMyMi0zLjM5M3oiIHN0eWxlPSJpc29sYXRpb246YXV0bzttaXgtYmxlbmQtbW9kZTpub3JtYWwiIGNvbG9yPSIjMDAwIiBvdmVyZmxvdz0idmlzaWJsZSIgZmlsbD0iI2FmYWZkZSIvPjxwYXRoIGQ9Ik0yOC4xOTYgMjkuMDhsOS4zMjMgMy4zOTMgOS40Ni0zLjQ0NC05LjMyMi0zLjM5M3oiIGZpbGw9IiNmN2Y3ZjQiLz48cGF0aCBkPSJNMzcuNTE5IDMyLjQ3M1Y0My40M2w5LjQ2LTMuNDQ0VjI5LjAzeiIgZmlsbD0iI2ZmZDI0MiIvPjxwYXRoIGQ9Ik0yOC4xOTYgMjkuMDhsOS4zMjMgMy4zOTNWNDMuNDNsLTkuMzIzLTMuMzk0eiIgZmlsbD0iI2VmZWVlYSIvPjwvZz48ZyBmaWxsPSIjYTI5ZDg2IiBzdHJva2U9IiNjY2MiIHN0cm9rZS13aWR0aD0iLjIxNCIgc3Ryb2tlLWxpbmVqb2luPSJiZXZlbCI+PHBhdGggc3R5bGU9Imlzb2xhdGlvbjphdXRvO21peC1ibGVuZC1tb2RlOm5vcm1hbCIgZD0iTTM3LjY1NyAxNC41N2w5LjMyMiAzLjM5NFYyOC45MmwtOS4zMjItMy4zOTR6IiBjb2xvcj0iIzAwMCIgb3ZlcmZsb3c9InZpc2libGUiIGZpbGw9IiNlOWU5ZmYiLz48cGF0aCBzdHlsZT0iaXNvbGF0aW9uOmF1dG87bWl4LWJsZW5kLW1vZGU6bm9ybWFsIiBkPSJNMjguMTk2IDE4LjAxNFYyOC45N2w5LjQ2LTMuNDQ0VjE0LjU3eiIgY29sb3I9IiMwMDAiIG92ZXJmbG93PSJ2aXNpYmxlIiBmaWxsPSIjMzUzNTY0Ii8+PHBhdGggc3R5bGU9Imlzb2xhdGlvbjphdXRvO21peC1ibGVuZC1tb2RlOm5vcm1hbCIgZD0iTTI4LjE5NiAyOC45N2w5LjMyMyAzLjM5NCA5LjQ2LTMuNDQzLTkuMzIyLTMuMzk0eiIgY29sb3I9IiMwMDAiIG92ZXJmbG93PSJ2aXNpYmxlIiBmaWxsPSIjYWZhZmRlIi8+PHBhdGggZD0iTTI4LjE5NiAxOC4wMTRsOS4zMjMgMy4zOTMgOS40Ni0zLjQ0My05LjMyMi0zLjM5NHoiIGZpbGw9IiNmN2Y3ZjQiLz48cGF0aCBkPSJNMzcuNTE5IDIxLjQwN3YxMC45NTdsOS40Ni0zLjQ0M1YxNy45NjR6IiBmaWxsPSIjMzc3NWE5Ii8+PHBhdGggZD0iTTI4LjE5NiAxOC4wMTRsOS4zMjMgMy4zOTN2MTAuOTU3bC05LjMyMy0zLjM5M3oiIGZpbGw9IiNlZmVlZWEiLz48L2c+PGcgZmlsbD0iI2EyOWQ4NiIgc3Ryb2tlPSIjY2NjIiBzdHJva2Utd2lkdGg9Ii4yMTQiIHN0cm9rZS1saW5lam9pbj0iYmV2ZWwiPjxwYXRoIHN0eWxlPSJpc29sYXRpb246YXV0bzttaXgtYmxlbmQtbW9kZTpub3JtYWwiIGQ9Ik0yOC4yOTMgMjkuMDRsOS4zMjMgMy4zOTR2MTAuOTU3bC05LjMyMy0zLjM5M3oiIGNvbG9yPSIjMDAwIiBvdmVyZmxvdz0idmlzaWJsZSIgZmlsbD0iI2U5ZTlmZiIvPjxwYXRoIHN0eWxlPSJpc29sYXRpb246YXV0bzttaXgtYmxlbmQtbW9kZTpub3JtYWwiIGQ9Ik0xOC44MzMgMzIuNDg0djEwLjk1N2w5LjQ2LTMuNDQzVjI5LjA0eiIgY29sb3I9IiMwMDAiIG92ZXJmbG93PSJ2aXNpYmxlIiBmaWxsPSIjMzUzNTY0Ii8+PHBhdGggc3R5bGU9Imlzb2xhdGlvbjphdXRvO21peC1ibGVuZC1tb2RlOm5vcm1hbCIgZD0iTTE4LjgzMyA0My40NDFsOS4zMjIgMy4zOTMgOS40Ni0zLjQ0My05LjMyMi0zLjM5M3oiIGNvbG9yPSIjMDAwIiBvdmVyZmxvdz0idmlzaWJsZSIgZmlsbD0iI2FmYWZkZSIvPjxwYXRoIGQ9Ik0xOC44MzMgMzIuNDg0bDkuMzIyIDMuMzkzIDkuNDYtMy40NDMtOS4zMjItMy4zOTN6IiBmaWxsPSIjZjdmN2Y0Ii8+PHBhdGggZD0iTTI4LjE1NSAzNS44Nzd2MTAuOTU3bDkuNDYtMy40NDNWMzIuNDM0eiIgZmlsbD0iIzM3NzVhOSIvPjxwYXRoIGQ9Ik0xOC44MzMgMzIuNDg0bDkuMzIyIDMuMzkzdjEwLjk1N2wtOS4zMjItMy4zOTN6IiBmaWxsPSIjMmY2NDkxIi8+PC9nPjxnIGZpbGw9IiNhMjlkODYiIHN0cm9rZT0iI2NjYyIgc3Ryb2tlLXdpZHRoPSIuMjE0IiBzdHJva2UtbGluZWpvaW49ImJldmVsIj48cGF0aCBkPSJNMjguMjkzIDE3Ljk3NWw5LjMyMyAzLjM5M3YxMC45NTdsLTkuMzIzLTMuMzkzeiIgc3R5bGU9Imlzb2xhdGlvbjphdXRvO21peC1ibGVuZC1tb2RlOm5vcm1hbCIgY29sb3I9IiMwMDAiIG92ZXJmbG93PSJ2aXNpYmxlIiBmaWxsPSIjZTllOWZmIi8+PHBhdGggZD0iTTE4LjgzMyAyMS40MTl2MTAuOTU3bDkuNDYtMy40NDRWMTcuOTc1eiIgc3R5bGU9Imlzb2xhdGlvbjphdXRvO21peC1ibGVuZC1tb2RlOm5vcm1hbCIgY29sb3I9IiMwMDAiIG92ZXJmbG93PSJ2aXNpYmxlIiBmaWxsPSIjMzUzNTY0Ii8+PHBhdGggZD0iTTE4LjgzMyAzMi4zNzZsOS4zMjIgMy4zOTMgOS40Ni0zLjQ0NC05LjMyMi0zLjM5M3oiIHN0eWxlPSJpc29sYXRpb246YXV0bzttaXgtYmxlbmQtbW9kZTpub3JtYWwiIGNvbG9yPSIjMDAwIiBvdmVyZmxvdz0idmlzaWJsZSIgZmlsbD0iI2FmYWZkZSIvPjxwYXRoIGQ9Ik0xOC44MzMgMjEuNDE5bDkuMzIyIDMuMzkzIDkuNDYtMy40NDQtOS4zMjItMy4zOTN6IiBmaWxsPSIjMmY2NDkxIi8+PHBhdGggZD0iTTI4LjE1NSAyNC44MTJ2MTAuOTU3bDkuNDYtMy40NDRWMjEuMzY4eiIgZmlsbD0iIzM3NzVhOSIvPjxwYXRoIGQ9Ik0xOC44MzMgMjEuNDE5bDkuMzIyIDMuMzkzdjEwLjk1N2wtOS4zMjItMy4zOTN6IiBmaWxsPSIjMmY2NDkxIi8+PC9nPjxnIHRyYW5zZm9ybT0idHJhbnNsYXRlKC0xNjgzLjY2IC01MTMuMjc1KSBzY2FsZSguNjUxNzcpIj48ZyBmaWxsPSIjYTI5ZDg2IiBzdHJva2U9IiNjY2MiIHN0cm9rZS13aWR0aD0iLjMyOCIgc3Ryb2tlLWxpbmVqb2luPSJiZXZlbCI+PHBhdGggc3R5bGU9Imlzb2xhdGlvbjphdXRvO21peC1ibGVuZC1tb2RlOm5vcm1hbCIgZD0iTTI2NDAuOTgzIDc5Mi44ODVsMTQuMzA0IDUuMjA2djE2LjgxMWwtMTQuMzA0LTUuMjA2eiIgY29sb3I9IiMwMDAiIG92ZXJmbG93PSJ2aXNpYmxlIiBmaWxsPSIjZTllOWZmIi8+PHBhdGggc3R5bGU9Imlzb2xhdGlvbjphdXRvO21peC1ibGVuZC1tb2RlOm5vcm1hbCIgZD0iTTI2MjYuNDY4IDc5OC4xNjh2MTYuODExbDE0LjUxNS01LjI4M3YtMTYuODExeiIgY29sb3I9IiMwMDAiIG92ZXJmbG93PSJ2aXNpYmxlIiBmaWxsPSIjMzUzNTY0Ii8+PHBhdGggc3R5bGU9Imlzb2xhdGlvbjphdXRvO21peC1ibGVuZC1tb2RlOm5vcm1hbCIgZD0iTTI2MjYuNDY4IDgxNC45NzlsMTQuMzA0IDUuMjA2IDE0LjUxNS01LjI4My0xNC4zMDQtNS4yMDZ6IiBjb2xvcj0iIzAwMCIgb3ZlcmZsb3c9InZpc2libGUiIGZpbGw9IiNhZmFmZGUiLz48cGF0aCBkPSJNMjYyNi40NjggNzk4LjE2OGwxNC4zMDQgNS4yMDYgMTQuNTE1LTUuMjgzLTE0LjMwNC01LjIwNnoiIGZpbGw9IiMyZjY0OTEiLz48cGF0aCBkPSJNMjY0MC43NzIgODAzLjM3NHYxNi44MTFsMTQuNTE1LTUuMjgzdi0xNi44MTF6IiBmaWxsPSIjMzc3NWE5Ii8+PHBhdGggZD0iTTI2MjYuNDY4IDc5OC4xNjhsMTQuMzA0IDUuMjA2djE2LjgxMWwtMTQuMzA0LTUuMjA2eiIgZmlsbD0iIzJmNjQ5MSIvPjwvZz48Y2lyY2xlIHRyYW5zZm9ybT0ic2tld1koLTIwKSBzY2FsZSguOTM5NyAxKSIgY3k9IjE3NzIuOTIyIiBjeD0iMjgxNi4wMTciIHI9IjIuOTY3IiBmaWxsPSIjZmZmIi8+PC9nPjwvc3ZnPg==;" parent="1" vertex="1">
          <mxGeometry x="143" y="368" width="50" height="44" as="geometry"/>
        </mxCell>
        <mxCell id="yCXvOLqKIGY-_UXzzoL4-4" value="&lt;font style=&quot;font-size: 12px&quot;&gt;guess-language-spirit&lt;/font&gt;" style="text;html=1;resizable=0;points=[];autosize=1;align=center;verticalAlign=top;spacingTop=-4;" parent="1" vertex="1">
          <mxGeometry x="103" y="425" width="130" height="20" as="geometry"/>
        </mxCell>
      </root>
    </mxGraphModel>
  </diagram>
  <diagram name="Page-2" id="EzXxc4ODtQ0UZKbIDi3z">
    <mxGraphModel dx="2067" dy="643" grid="1" gridSize="10" guides="1" tooltips="1" connect="1" arrows="1" fold="1" page="1" pageScale="1" pageWidth="827" pageHeight="1169" math="0" shadow="0">
      <root>
        <mxCell id="Q292NiY0Muhm066f6xs9-0"/>
        <mxCell id="Q292NiY0Muhm066f6xs9-1" parent="Q292NiY0Muhm066f6xs9-0"/>
        <mxCell id="RPFT_-vl7gFnDsFynRQg-8" value="" style="html=1;" parent="Q292NiY0Muhm066f6xs9-1" vertex="1">
          <mxGeometry x="-1" y="615" width="731" height="595" as="geometry"/>
        </mxCell>
        <mxCell id="RPFT_-vl7gFnDsFynRQg-61" value="" style="html=1;" parent="Q292NiY0Muhm066f6xs9-1" vertex="1">
          <mxGeometry x="150" y="669" width="561" height="411" as="geometry"/>
        </mxCell>
        <mxCell id="RPFT_-vl7gFnDsFynRQg-9" value="" style="shape=note;whiteSpace=wrap;html=1;backgroundOutline=1;darkOpacity=0.05;size=5;" parent="Q292NiY0Muhm066f6xs9-1" vertex="1">
          <mxGeometry x="711.0713588169642" y="625" width="10" height="13" as="geometry"/>
        </mxCell>
        <mxCell id="RPFT_-vl7gFnDsFynRQg-20" value="" style="group" parent="Q292NiY0Muhm066f6xs9-1" vertex="1" connectable="0">
          <mxGeometry x="581.5" y="722.5" width="110" height="50" as="geometry"/>
        </mxCell>
        <mxCell id="RPFT_-vl7gFnDsFynRQg-19" value="" style="html=1;" parent="RPFT_-vl7gFnDsFynRQg-20" vertex="1">
          <mxGeometry width="110" height="50" as="geometry"/>
        </mxCell>
        <mxCell id="RPFT_-vl7gFnDsFynRQg-16" value="" style="shape=note;whiteSpace=wrap;html=1;backgroundOutline=1;darkOpacity=0.05;size=5;" parent="RPFT_-vl7gFnDsFynRQg-20" vertex="1">
          <mxGeometry x="96.5" y="3.5" width="10" height="13" as="geometry"/>
        </mxCell>
        <mxCell id="RPFT_-vl7gFnDsFynRQg-17" value="«artifact»" style="text;html=1;resizable=0;points=[];autosize=1;align=center;verticalAlign=top;spacingTop=-4;" parent="RPFT_-vl7gFnDsFynRQg-20" vertex="1">
          <mxGeometry x="20" y="9" width="70" height="20" as="geometry"/>
        </mxCell>
        <mxCell id="RPFT_-vl7gFnDsFynRQg-18" value="&lt;b&gt;__init__.py&lt;/b&gt;" style="text;html=1;resizable=0;points=[];autosize=1;align=center;verticalAlign=top;spacingTop=-4;" parent="RPFT_-vl7gFnDsFynRQg-20" vertex="1">
          <mxGeometry x="15" y="25.5" width="80" height="10" as="geometry"/>
        </mxCell>
        <mxCell id="RPFT_-vl7gFnDsFynRQg-21" value="«componet»&lt;br&gt;&lt;b&gt;spotichart&lt;/b&gt;" style="html=1;" parent="Q292NiY0Muhm066f6xs9-1" vertex="1">
          <mxGeometry x="860" y="717.5" width="130" height="58" as="geometry"/>
        </mxCell>
        <mxCell id="RPFT_-vl7gFnDsFynRQg-22" value="" style="shape=component;jettyWidth=8;jettyHeight=4;" parent="RPFT_-vl7gFnDsFynRQg-21" vertex="1">
          <mxGeometry x="1" width="20" height="20" relative="1" as="geometry">
            <mxPoint x="-27" y="7" as="offset"/>
          </mxGeometry>
        </mxCell>
        <mxCell id="RPFT_-vl7gFnDsFynRQg-23" value="" style="group" parent="Q292NiY0Muhm066f6xs9-1" vertex="1" connectable="0">
          <mxGeometry x="324.5" y="624.5" width="80" height="36.5" as="geometry"/>
        </mxCell>
        <mxCell id="RPFT_-vl7gFnDsFynRQg-10" value="«dir artifact»" style="text;html=1;resizable=0;points=[];autosize=1;align=center;verticalAlign=top;spacingTop=-4;" parent="RPFT_-vl7gFnDsFynRQg-23" vertex="1">
          <mxGeometry width="80" height="20" as="geometry"/>
        </mxCell>
        <mxCell id="RPFT_-vl7gFnDsFynRQg-14" value="&lt;b&gt;/spotichart&lt;/b&gt;" style="text;html=1;resizable=0;points=[];autosize=1;align=center;verticalAlign=top;spacingTop=-4;" parent="RPFT_-vl7gFnDsFynRQg-23" vertex="1">
          <mxGeometry y="16.5" width="80" height="20" as="geometry"/>
        </mxCell>
        <mxCell id="RPFT_-vl7gFnDsFynRQg-25" value="«manifest»" style="text;html=1;" parent="Q292NiY0Muhm066f6xs9-1" vertex="1">
          <mxGeometry x="740" y="724" width="80" height="20" as="geometry"/>
        </mxCell>
        <mxCell id="RPFT_-vl7gFnDsFynRQg-26" value="" style="group" parent="Q292NiY0Muhm066f6xs9-1" vertex="1" connectable="0">
          <mxGeometry x="20" y="731.5" width="110" height="50" as="geometry"/>
        </mxCell>
        <mxCell id="RPFT_-vl7gFnDsFynRQg-27" value="" style="html=1;" parent="RPFT_-vl7gFnDsFynRQg-26" vertex="1">
          <mxGeometry width="110" height="50" as="geometry"/>
        </mxCell>
        <mxCell id="RPFT_-vl7gFnDsFynRQg-28" value="" style="shape=note;whiteSpace=wrap;html=1;backgroundOutline=1;darkOpacity=0.05;size=5;" parent="RPFT_-vl7gFnDsFynRQg-26" vertex="1">
          <mxGeometry x="96.5" y="3.5" width="10" height="13" as="geometry"/>
        </mxCell>
        <mxCell id="RPFT_-vl7gFnDsFynRQg-29" value="«artifact»" style="text;html=1;resizable=0;points=[];autosize=1;align=center;verticalAlign=top;spacingTop=-4;" parent="RPFT_-vl7gFnDsFynRQg-26" vertex="1">
          <mxGeometry x="20" y="9" width="70" height="20" as="geometry"/>
        </mxCell>
        <mxCell id="RPFT_-vl7gFnDsFynRQg-30" value="&lt;b&gt;LICENSE&lt;/b&gt;" style="text;html=1;resizable=0;points=[];autosize=1;align=center;verticalAlign=top;spacingTop=-4;" parent="RPFT_-vl7gFnDsFynRQg-26" vertex="1">
          <mxGeometry x="20" y="25" width="70" height="20" as="geometry"/>
        </mxCell>
        <mxCell id="RPFT_-vl7gFnDsFynRQg-35" value="" style="group" parent="Q292NiY0Muhm066f6xs9-1" vertex="1" connectable="0">
          <mxGeometry x="20" y="790" width="110" height="50" as="geometry"/>
        </mxCell>
        <mxCell id="RPFT_-vl7gFnDsFynRQg-36" value="" style="html=1;" parent="RPFT_-vl7gFnDsFynRQg-35" vertex="1">
          <mxGeometry width="110" height="50" as="geometry"/>
        </mxCell>
        <mxCell id="RPFT_-vl7gFnDsFynRQg-37" value="" style="shape=note;whiteSpace=wrap;html=1;backgroundOutline=1;darkOpacity=0.05;size=5;" parent="RPFT_-vl7gFnDsFynRQg-35" vertex="1">
          <mxGeometry x="96.5" y="3.5" width="10" height="13" as="geometry"/>
        </mxCell>
        <mxCell id="RPFT_-vl7gFnDsFynRQg-38" value="«artifact»" style="text;html=1;resizable=0;points=[];autosize=1;align=center;verticalAlign=top;spacingTop=-4;" parent="RPFT_-vl7gFnDsFynRQg-35" vertex="1">
          <mxGeometry x="20" y="9" width="70" height="20" as="geometry"/>
        </mxCell>
        <mxCell id="RPFT_-vl7gFnDsFynRQg-39" value="&lt;b&gt;MANIFEST.in&lt;/b&gt;" style="text;html=1;resizable=0;points=[];autosize=1;align=center;verticalAlign=top;spacingTop=-4;" parent="RPFT_-vl7gFnDsFynRQg-35" vertex="1">
          <mxGeometry x="10" y="25" width="90" height="20" as="geometry"/>
        </mxCell>
        <mxCell id="RPFT_-vl7gFnDsFynRQg-40" value="" style="group" parent="Q292NiY0Muhm066f6xs9-1" vertex="1" connectable="0">
          <mxGeometry x="20" y="850" width="110" height="50" as="geometry"/>
        </mxCell>
        <mxCell id="RPFT_-vl7gFnDsFynRQg-41" value="" style="html=1;" parent="RPFT_-vl7gFnDsFynRQg-40" vertex="1">
          <mxGeometry width="110" height="50" as="geometry"/>
        </mxCell>
        <mxCell id="RPFT_-vl7gFnDsFynRQg-42" value="" style="shape=note;whiteSpace=wrap;html=1;backgroundOutline=1;darkOpacity=0.05;size=5;" parent="RPFT_-vl7gFnDsFynRQg-40" vertex="1">
          <mxGeometry x="96.5" y="3.5" width="10" height="13" as="geometry"/>
        </mxCell>
        <mxCell id="RPFT_-vl7gFnDsFynRQg-43" value="«artifact»" style="text;html=1;resizable=0;points=[];autosize=1;align=center;verticalAlign=top;spacingTop=-4;" parent="RPFT_-vl7gFnDsFynRQg-40" vertex="1">
          <mxGeometry x="20" y="9" width="70" height="20" as="geometry"/>
        </mxCell>
        <mxCell id="RPFT_-vl7gFnDsFynRQg-44" value="&lt;b&gt;README.md&lt;/b&gt;" style="text;html=1;resizable=0;points=[];autosize=1;align=center;verticalAlign=top;spacingTop=-4;" parent="RPFT_-vl7gFnDsFynRQg-40" vertex="1">
          <mxGeometry x="10" y="25" width="90" height="20" as="geometry"/>
        </mxCell>
        <mxCell id="RPFT_-vl7gFnDsFynRQg-45" value="" style="group" parent="Q292NiY0Muhm066f6xs9-1" vertex="1" connectable="0">
          <mxGeometry x="20" y="669.5" width="120" height="50" as="geometry"/>
        </mxCell>
        <mxCell id="RPFT_-vl7gFnDsFynRQg-46" value="" style="html=1;" parent="RPFT_-vl7gFnDsFynRQg-45" vertex="1">
          <mxGeometry width="110" height="50" as="geometry"/>
        </mxCell>
        <mxCell id="RPFT_-vl7gFnDsFynRQg-47" value="" style="shape=note;whiteSpace=wrap;html=1;backgroundOutline=1;darkOpacity=0.05;size=5;" parent="RPFT_-vl7gFnDsFynRQg-45" vertex="1">
          <mxGeometry x="96.5" y="3.5" width="10" height="13" as="geometry"/>
        </mxCell>
        <mxCell id="RPFT_-vl7gFnDsFynRQg-48" value="«artifact»" style="text;html=1;resizable=0;points=[];autosize=1;align=center;verticalAlign=top;spacingTop=-4;" parent="RPFT_-vl7gFnDsFynRQg-45" vertex="1">
          <mxGeometry x="20" y="9" width="70" height="20" as="geometry"/>
        </mxCell>
        <mxCell id="RPFT_-vl7gFnDsFynRQg-49" value="&lt;b&gt;requirements.txt&lt;/b&gt;" style="text;html=1;resizable=0;points=[];autosize=1;align=center;verticalAlign=top;spacingTop=-4;" parent="RPFT_-vl7gFnDsFynRQg-45" vertex="1">
          <mxGeometry x="-0.5" y="25" width="110" height="20" as="geometry"/>
        </mxCell>
        <mxCell id="RPFT_-vl7gFnDsFynRQg-50" value="" style="group" parent="Q292NiY0Muhm066f6xs9-1" vertex="1" connectable="0">
          <mxGeometry x="20.10343143857756" y="970" width="110" height="50" as="geometry"/>
        </mxCell>
        <mxCell id="RPFT_-vl7gFnDsFynRQg-51" value="" style="html=1;" parent="RPFT_-vl7gFnDsFynRQg-50" vertex="1">
          <mxGeometry width="110" height="50" as="geometry"/>
        </mxCell>
        <mxCell id="RPFT_-vl7gFnDsFynRQg-52" value="" style="shape=note;whiteSpace=wrap;html=1;backgroundOutline=1;darkOpacity=0.05;size=5;" parent="RPFT_-vl7gFnDsFynRQg-50" vertex="1">
          <mxGeometry x="96.5" y="3.5" width="10" height="13" as="geometry"/>
        </mxCell>
        <mxCell id="RPFT_-vl7gFnDsFynRQg-53" value="«artifact»" style="text;html=1;resizable=0;points=[];autosize=1;align=center;verticalAlign=top;spacingTop=-4;" parent="RPFT_-vl7gFnDsFynRQg-50" vertex="1">
          <mxGeometry x="20" y="9" width="70" height="20" as="geometry"/>
        </mxCell>
        <mxCell id="RPFT_-vl7gFnDsFynRQg-54" value="&lt;b&gt;setup.cfg&lt;/b&gt;" style="text;html=1;resizable=0;points=[];autosize=1;align=center;verticalAlign=top;spacingTop=-4;" parent="RPFT_-vl7gFnDsFynRQg-50" vertex="1">
          <mxGeometry x="20" y="25" width="70" height="20" as="geometry"/>
        </mxCell>
        <mxCell id="RPFT_-vl7gFnDsFynRQg-55" value="" style="group" parent="Q292NiY0Muhm066f6xs9-1" vertex="1" connectable="0">
          <mxGeometry x="20.10343143857756" y="910" width="110" height="50" as="geometry"/>
        </mxCell>
        <mxCell id="RPFT_-vl7gFnDsFynRQg-56" value="" style="html=1;" parent="RPFT_-vl7gFnDsFynRQg-55" vertex="1">
          <mxGeometry width="110" height="50" as="geometry"/>
        </mxCell>
        <mxCell id="RPFT_-vl7gFnDsFynRQg-57" value="" style="shape=note;whiteSpace=wrap;html=1;backgroundOutline=1;darkOpacity=0.05;size=5;" parent="RPFT_-vl7gFnDsFynRQg-55" vertex="1">
          <mxGeometry x="96.5" y="3.5" width="10" height="13" as="geometry"/>
        </mxCell>
        <mxCell id="RPFT_-vl7gFnDsFynRQg-58" value="«artifact»" style="text;html=1;resizable=0;points=[];autosize=1;align=center;verticalAlign=top;spacingTop=-4;" parent="RPFT_-vl7gFnDsFynRQg-55" vertex="1">
          <mxGeometry x="20" y="9" width="70" height="20" as="geometry"/>
        </mxCell>
        <mxCell id="RPFT_-vl7gFnDsFynRQg-59" value="&lt;b&gt;setup.py&lt;/b&gt;" style="text;html=1;resizable=0;points=[];autosize=1;align=center;verticalAlign=top;spacingTop=-4;" parent="RPFT_-vl7gFnDsFynRQg-55" vertex="1">
          <mxGeometry x="20" y="25" width="70" height="20" as="geometry"/>
        </mxCell>
        <mxCell id="RPFT_-vl7gFnDsFynRQg-62" value="" style="shape=note;whiteSpace=wrap;html=1;backgroundOutline=1;darkOpacity=0.05;size=5;" parent="Q292NiY0Muhm066f6xs9-1" vertex="1">
          <mxGeometry x="691.5999348958334" y="678" width="10" height="13" as="geometry"/>
        </mxCell>
        <mxCell id="RPFT_-vl7gFnDsFynRQg-69" value="" style="group" parent="Q292NiY0Muhm066f6xs9-1" vertex="1" connectable="0">
          <mxGeometry x="390.5" y="678" width="80" height="36.5" as="geometry"/>
        </mxCell>
        <mxCell id="RPFT_-vl7gFnDsFynRQg-66" value="" style="group" parent="RPFT_-vl7gFnDsFynRQg-69" vertex="1" connectable="0">
          <mxGeometry width="80" height="36.5" as="geometry"/>
        </mxCell>
        <mxCell id="RPFT_-vl7gFnDsFynRQg-67" value="«dir artifact»" style="text;html=1;resizable=0;points=[];autosize=1;align=center;verticalAlign=top;spacingTop=-4;" parent="RPFT_-vl7gFnDsFynRQg-66" vertex="1">
          <mxGeometry width="80" height="20" as="geometry"/>
        </mxCell>
        <mxCell id="RPFT_-vl7gFnDsFynRQg-68" value="&lt;b&gt;/spotichart&lt;/b&gt;" style="text;html=1;resizable=0;points=[];autosize=1;align=center;verticalAlign=top;spacingTop=-4;" parent="RPFT_-vl7gFnDsFynRQg-66" vertex="1">
          <mxGeometry y="16.5" width="80" height="20" as="geometry"/>
        </mxCell>
        <mxCell id="RPFT_-vl7gFnDsFynRQg-70" style="edgeStyle=none;rounded=0;orthogonalLoop=1;jettySize=auto;html=1;exitX=1;exitY=0.5;exitDx=0;exitDy=0;entryX=0;entryY=0.5;entryDx=0;entryDy=0;dashed=1;endArrow=open;endFill=0;" parent="Q292NiY0Muhm066f6xs9-1" source="RPFT_-vl7gFnDsFynRQg-19" target="RPFT_-vl7gFnDsFynRQg-21" edge="1">
          <mxGeometry relative="1" as="geometry"/>
        </mxCell>
        <mxCell id="RPFT_-vl7gFnDsFynRQg-71" value="" style="group" parent="Q292NiY0Muhm066f6xs9-1" vertex="1" connectable="0">
          <mxGeometry x="581.5" y="781" width="110" height="50" as="geometry"/>
        </mxCell>
        <mxCell id="RPFT_-vl7gFnDsFynRQg-72" value="" style="html=1;" parent="RPFT_-vl7gFnDsFynRQg-71" vertex="1">
          <mxGeometry width="110" height="50" as="geometry"/>
        </mxCell>
        <mxCell id="RPFT_-vl7gFnDsFynRQg-73" value="" style="shape=note;whiteSpace=wrap;html=1;backgroundOutline=1;darkOpacity=0.05;size=5;" parent="RPFT_-vl7gFnDsFynRQg-71" vertex="1">
          <mxGeometry x="96.5" y="3.5" width="10" height="13" as="geometry"/>
        </mxCell>
        <mxCell id="RPFT_-vl7gFnDsFynRQg-74" value="«artifact»" style="text;html=1;resizable=0;points=[];autosize=1;align=center;verticalAlign=top;spacingTop=-4;" parent="RPFT_-vl7gFnDsFynRQg-71" vertex="1">
          <mxGeometry x="20" y="9" width="70" height="20" as="geometry"/>
        </mxCell>
        <mxCell id="RPFT_-vl7gFnDsFynRQg-75" value="&lt;b&gt;__about__.py&lt;/b&gt;" style="text;html=1;resizable=0;points=[];autosize=1;align=center;verticalAlign=top;spacingTop=-4;" parent="RPFT_-vl7gFnDsFynRQg-71" vertex="1">
          <mxGeometry x="10" y="25.5" width="90" height="20" as="geometry"/>
        </mxCell>
        <mxCell id="RPFT_-vl7gFnDsFynRQg-76" value="" style="html=1;" parent="Q292NiY0Muhm066f6xs9-1" vertex="1">
          <mxGeometry x="320" y="722" width="251" height="178" as="geometry"/>
        </mxCell>
        <mxCell id="RPFT_-vl7gFnDsFynRQg-77" value="" style="shape=note;whiteSpace=wrap;html=1;backgroundOutline=1;darkOpacity=0.05;size=5;" parent="Q292NiY0Muhm066f6xs9-1" vertex="1">
          <mxGeometry x="551.2469937193628" y="730.5" width="10" height="13" as="geometry"/>
        </mxCell>
        <mxCell id="RPFT_-vl7gFnDsFynRQg-78" value="" style="group" parent="Q292NiY0Muhm066f6xs9-1" vertex="1" connectable="0">
          <mxGeometry x="405.6470588235293" y="730.5" width="80" height="36.5" as="geometry"/>
        </mxCell>
        <mxCell id="RPFT_-vl7gFnDsFynRQg-79" value="" style="group" parent="RPFT_-vl7gFnDsFynRQg-78" vertex="1" connectable="0">
          <mxGeometry width="80" height="36.5" as="geometry"/>
        </mxCell>
        <mxCell id="RPFT_-vl7gFnDsFynRQg-80" value="«dir artifact»" style="text;html=1;resizable=0;points=[];autosize=1;align=center;verticalAlign=top;spacingTop=-4;" parent="RPFT_-vl7gFnDsFynRQg-79" vertex="1">
          <mxGeometry width="80" height="20" as="geometry"/>
        </mxCell>
        <mxCell id="RPFT_-vl7gFnDsFynRQg-81" value="&lt;b&gt;/spotipy&lt;/b&gt;" style="text;html=1;resizable=0;points=[];autosize=1;align=center;verticalAlign=top;spacingTop=-4;" parent="RPFT_-vl7gFnDsFynRQg-79" vertex="1">
          <mxGeometry x="10" y="16.5" width="60" height="20" as="geometry"/>
        </mxCell>
        <mxCell id="RPFT_-vl7gFnDsFynRQg-82" value="" style="group" parent="Q292NiY0Muhm066f6xs9-1" vertex="1" connectable="0">
          <mxGeometry x="451" y="833" width="110" height="50" as="geometry"/>
        </mxCell>
        <mxCell id="RPFT_-vl7gFnDsFynRQg-83" value="" style="html=1;" parent="RPFT_-vl7gFnDsFynRQg-82" vertex="1">
          <mxGeometry width="110" height="50" as="geometry"/>
        </mxCell>
        <mxCell id="RPFT_-vl7gFnDsFynRQg-84" value="" style="shape=note;whiteSpace=wrap;html=1;backgroundOutline=1;darkOpacity=0.05;size=5;" parent="RPFT_-vl7gFnDsFynRQg-82" vertex="1">
          <mxGeometry x="96.5" y="3.5" width="10" height="13" as="geometry"/>
        </mxCell>
        <mxCell id="RPFT_-vl7gFnDsFynRQg-85" value="«artifact»" style="text;html=1;resizable=0;points=[];autosize=1;align=center;verticalAlign=top;spacingTop=-4;" parent="RPFT_-vl7gFnDsFynRQg-82" vertex="1">
          <mxGeometry x="20" y="9" width="70" height="20" as="geometry"/>
        </mxCell>
        <mxCell id="RPFT_-vl7gFnDsFynRQg-86" value="&lt;b&gt;__init__.py&lt;/b&gt;" style="text;html=1;resizable=0;points=[];autosize=1;align=center;verticalAlign=top;spacingTop=-4;" parent="RPFT_-vl7gFnDsFynRQg-82" vertex="1">
          <mxGeometry x="15" y="25.5" width="80" height="10" as="geometry"/>
        </mxCell>
        <mxCell id="RPFT_-vl7gFnDsFynRQg-87" value="" style="group" parent="Q292NiY0Muhm066f6xs9-1" vertex="1" connectable="0">
          <mxGeometry x="451" y="771.5" width="110" height="50" as="geometry"/>
        </mxCell>
        <mxCell id="RPFT_-vl7gFnDsFynRQg-88" value="" style="html=1;" parent="RPFT_-vl7gFnDsFynRQg-87" vertex="1">
          <mxGeometry width="110" height="50" as="geometry"/>
        </mxCell>
        <mxCell id="RPFT_-vl7gFnDsFynRQg-89" value="" style="shape=note;whiteSpace=wrap;html=1;backgroundOutline=1;darkOpacity=0.05;size=5;" parent="RPFT_-vl7gFnDsFynRQg-87" vertex="1">
          <mxGeometry x="96.5" y="3.5" width="10" height="13" as="geometry"/>
        </mxCell>
        <mxCell id="RPFT_-vl7gFnDsFynRQg-90" value="«artifact»" style="text;html=1;resizable=0;points=[];autosize=1;align=center;verticalAlign=top;spacingTop=-4;" parent="RPFT_-vl7gFnDsFynRQg-87" vertex="1">
          <mxGeometry x="20" y="9" width="70" height="20" as="geometry"/>
        </mxCell>
        <mxCell id="RPFT_-vl7gFnDsFynRQg-91" value="&lt;b&gt;__about__.py&lt;/b&gt;" style="text;html=1;resizable=0;points=[];autosize=1;align=center;verticalAlign=top;spacingTop=-4;" parent="RPFT_-vl7gFnDsFynRQg-87" vertex="1">
          <mxGeometry x="10" y="25.5" width="90" height="20" as="geometry"/>
        </mxCell>
        <mxCell id="RPFT_-vl7gFnDsFynRQg-92" value="" style="group" parent="Q292NiY0Muhm066f6xs9-1" vertex="1" connectable="0">
          <mxGeometry x="330.5" y="771.5" width="135" height="50" as="geometry"/>
        </mxCell>
        <mxCell id="RPFT_-vl7gFnDsFynRQg-93" value="" style="html=1;" parent="RPFT_-vl7gFnDsFynRQg-92" vertex="1">
          <mxGeometry width="110" height="50" as="geometry"/>
        </mxCell>
        <mxCell id="RPFT_-vl7gFnDsFynRQg-94" value="" style="shape=note;whiteSpace=wrap;html=1;backgroundOutline=1;darkOpacity=0.05;size=5;" parent="RPFT_-vl7gFnDsFynRQg-92" vertex="1">
          <mxGeometry x="96.5" y="3.5" width="10" height="13" as="geometry"/>
        </mxCell>
        <mxCell id="RPFT_-vl7gFnDsFynRQg-95" value="«artifact»" style="text;html=1;resizable=0;points=[];autosize=1;align=center;verticalAlign=top;spacingTop=-4;" parent="RPFT_-vl7gFnDsFynRQg-92" vertex="1">
          <mxGeometry x="20" y="9" width="70" height="20" as="geometry"/>
        </mxCell>
        <mxCell id="RPFT_-vl7gFnDsFynRQg-96" value="&lt;b&gt;audio_features.py&lt;/b&gt;" style="text;html=1;resizable=0;points=[];autosize=1;align=center;verticalAlign=top;spacingTop=-4;" parent="RPFT_-vl7gFnDsFynRQg-92" vertex="1">
          <mxGeometry x="-4" y="25.5" width="120" height="20" as="geometry"/>
        </mxCell>
        <mxCell id="RPFT_-vl7gFnDsFynRQg-97" value="" style="group;fontStyle=1" parent="Q292NiY0Muhm066f6xs9-1" vertex="1" connectable="0">
          <mxGeometry x="330.5" y="834" width="110" height="50" as="geometry"/>
        </mxCell>
        <mxCell id="RPFT_-vl7gFnDsFynRQg-98" value="" style="html=1;" parent="RPFT_-vl7gFnDsFynRQg-97" vertex="1">
          <mxGeometry width="110" height="50" as="geometry"/>
        </mxCell>
        <mxCell id="RPFT_-vl7gFnDsFynRQg-99" value="" style="shape=note;whiteSpace=wrap;html=1;backgroundOutline=1;darkOpacity=0.05;size=5;" parent="RPFT_-vl7gFnDsFynRQg-97" vertex="1">
          <mxGeometry x="96.5" y="3.5" width="10" height="13" as="geometry"/>
        </mxCell>
        <mxCell id="RPFT_-vl7gFnDsFynRQg-100" value="«artifact»" style="text;html=1;resizable=0;points=[];autosize=1;align=center;verticalAlign=top;spacingTop=-4;" parent="RPFT_-vl7gFnDsFynRQg-97" vertex="1">
          <mxGeometry x="20" y="9" width="70" height="20" as="geometry"/>
        </mxCell>
        <mxCell id="RPFT_-vl7gFnDsFynRQg-101" value="&lt;b&gt;top_charts.py&lt;/b&gt;" style="text;html=1;resizable=0;points=[];autosize=1;align=center;verticalAlign=top;spacingTop=-4;" parent="RPFT_-vl7gFnDsFynRQg-97" vertex="1">
          <mxGeometry x="10" y="25.5" width="90" height="20" as="geometry"/>
        </mxCell>
        <mxCell id="RPFT_-vl7gFnDsFynRQg-103" value="" style="html=1;" parent="Q292NiY0Muhm066f6xs9-1" vertex="1">
          <mxGeometry x="159.5" y="840" width="151" height="110" as="geometry"/>
        </mxCell>
        <mxCell id="RPFT_-vl7gFnDsFynRQg-104" value="" style="shape=note;whiteSpace=wrap;html=1;backgroundOutline=1;darkOpacity=0.05;size=5;" parent="Q292NiY0Muhm066f6xs9-1" vertex="1">
          <mxGeometry x="290.74699371936276" y="848.5" width="10" height="13" as="geometry"/>
        </mxCell>
        <mxCell id="RPFT_-vl7gFnDsFynRQg-105" value="" style="group" parent="Q292NiY0Muhm066f6xs9-1" vertex="1" connectable="0">
          <mxGeometry x="195.14705882352928" y="848.5" width="90" height="36.5" as="geometry"/>
        </mxCell>
        <mxCell id="RPFT_-vl7gFnDsFynRQg-106" value="" style="group" parent="RPFT_-vl7gFnDsFynRQg-105" vertex="1" connectable="0">
          <mxGeometry width="90" height="36.5" as="geometry"/>
        </mxCell>
        <mxCell id="RPFT_-vl7gFnDsFynRQg-107" value="«dir artifact»" style="text;html=1;resizable=0;points=[];autosize=1;align=center;verticalAlign=top;spacingTop=-4;" parent="RPFT_-vl7gFnDsFynRQg-106" vertex="1">
          <mxGeometry width="80" height="20" as="geometry"/>
        </mxCell>
        <mxCell id="RPFT_-vl7gFnDsFynRQg-108" value="&lt;b&gt;/language&lt;/b&gt;" style="text;html=1;resizable=0;points=[];autosize=1;align=center;verticalAlign=top;spacingTop=-4;" parent="RPFT_-vl7gFnDsFynRQg-106" vertex="1">
          <mxGeometry x="1.5" y="16.5" width="70" height="20" as="geometry"/>
        </mxCell>
        <mxCell id="RPFT_-vl7gFnDsFynRQg-109" value="" style="group" parent="Q292NiY0Muhm066f6xs9-1" vertex="1" connectable="0">
          <mxGeometry x="181.5" y="889.5" width="110" height="50" as="geometry"/>
        </mxCell>
        <mxCell id="RPFT_-vl7gFnDsFynRQg-110" value="" style="html=1;" parent="RPFT_-vl7gFnDsFynRQg-109" vertex="1">
          <mxGeometry width="110" height="50" as="geometry"/>
        </mxCell>
        <mxCell id="RPFT_-vl7gFnDsFynRQg-111" value="" style="shape=note;whiteSpace=wrap;html=1;backgroundOutline=1;darkOpacity=0.05;size=5;" parent="RPFT_-vl7gFnDsFynRQg-109" vertex="1">
          <mxGeometry x="96.5" y="3.5" width="10" height="13" as="geometry"/>
        </mxCell>
        <mxCell id="RPFT_-vl7gFnDsFynRQg-112" value="«artifact»" style="text;html=1;resizable=0;points=[];autosize=1;align=center;verticalAlign=top;spacingTop=-4;" parent="RPFT_-vl7gFnDsFynRQg-109" vertex="1">
          <mxGeometry x="20" y="9" width="70" height="20" as="geometry"/>
        </mxCell>
        <mxCell id="RPFT_-vl7gFnDsFynRQg-113" value="&lt;b&gt;__init__.py&lt;/b&gt;" style="text;html=1;resizable=0;points=[];autosize=1;align=center;verticalAlign=top;spacingTop=-4;" parent="RPFT_-vl7gFnDsFynRQg-109" vertex="1">
          <mxGeometry x="10" y="25.5" width="80" height="20" as="geometry"/>
        </mxCell>
        <mxCell id="RPFT_-vl7gFnDsFynRQg-114" value="" style="html=1;" parent="Q292NiY0Muhm066f6xs9-1" vertex="1">
          <mxGeometry x="159" y="721.5" width="151" height="110" as="geometry"/>
        </mxCell>
        <mxCell id="RPFT_-vl7gFnDsFynRQg-115" value="" style="shape=note;whiteSpace=wrap;html=1;backgroundOutline=1;darkOpacity=0.05;size=5;" parent="Q292NiY0Muhm066f6xs9-1" vertex="1">
          <mxGeometry x="290.24699371936276" y="730" width="10" height="13" as="geometry"/>
        </mxCell>
        <mxCell id="RPFT_-vl7gFnDsFynRQg-116" value="" style="group" parent="Q292NiY0Muhm066f6xs9-1" vertex="1" connectable="0">
          <mxGeometry x="194.64705882352928" y="730" width="90" height="36.5" as="geometry"/>
        </mxCell>
        <mxCell id="RPFT_-vl7gFnDsFynRQg-117" value="" style="group" parent="RPFT_-vl7gFnDsFynRQg-116" vertex="1" connectable="0">
          <mxGeometry width="90" height="36.5" as="geometry"/>
        </mxCell>
        <mxCell id="RPFT_-vl7gFnDsFynRQg-118" value="«dir artifact»" style="text;html=1;resizable=0;points=[];autosize=1;align=center;verticalAlign=top;spacingTop=-4;" parent="RPFT_-vl7gFnDsFynRQg-117" vertex="1">
          <mxGeometry width="80" height="20" as="geometry"/>
        </mxCell>
        <mxCell id="RPFT_-vl7gFnDsFynRQg-119" value="&lt;b&gt;/utils&lt;/b&gt;" style="text;html=1;resizable=0;points=[];autosize=1;align=center;verticalAlign=top;spacingTop=-4;" parent="RPFT_-vl7gFnDsFynRQg-117" vertex="1">
          <mxGeometry x="16.5" y="16.5" width="40" height="20" as="geometry"/>
        </mxCell>
        <mxCell id="RPFT_-vl7gFnDsFynRQg-120" value="" style="group" parent="Q292NiY0Muhm066f6xs9-1" vertex="1" connectable="0">
          <mxGeometry x="181" y="771" width="110" height="50" as="geometry"/>
        </mxCell>
        <mxCell id="RPFT_-vl7gFnDsFynRQg-121" value="" style="html=1;" parent="RPFT_-vl7gFnDsFynRQg-120" vertex="1">
          <mxGeometry width="110" height="50" as="geometry"/>
        </mxCell>
        <mxCell id="RPFT_-vl7gFnDsFynRQg-122" value="" style="shape=note;whiteSpace=wrap;html=1;backgroundOutline=1;darkOpacity=0.05;size=5;" parent="RPFT_-vl7gFnDsFynRQg-120" vertex="1">
          <mxGeometry x="96.5" y="3.5" width="10" height="13" as="geometry"/>
        </mxCell>
        <mxCell id="RPFT_-vl7gFnDsFynRQg-123" value="«artifact»" style="text;html=1;resizable=0;points=[];autosize=1;align=center;verticalAlign=top;spacingTop=-4;" parent="RPFT_-vl7gFnDsFynRQg-120" vertex="1">
          <mxGeometry x="20" y="9" width="70" height="20" as="geometry"/>
        </mxCell>
        <mxCell id="RPFT_-vl7gFnDsFynRQg-124" value="&lt;b&gt;__init__.py&lt;/b&gt;" style="text;html=1;resizable=0;points=[];autosize=1;align=center;verticalAlign=top;spacingTop=-4;" parent="RPFT_-vl7gFnDsFynRQg-120" vertex="1">
          <mxGeometry x="10" y="25.5" width="80" height="20" as="geometry"/>
        </mxCell>
        <mxCell id="RPFT_-vl7gFnDsFynRQg-125" value="" style="html=1;" parent="Q292NiY0Muhm066f6xs9-1" vertex="1">
          <mxGeometry x="160" y="959.5" width="489" height="113" as="geometry"/>
        </mxCell>
        <mxCell id="RPFT_-vl7gFnDsFynRQg-126" value="" style="shape=note;whiteSpace=wrap;html=1;backgroundOutline=1;darkOpacity=0.05;size=5;" parent="Q292NiY0Muhm066f6xs9-1" vertex="1">
          <mxGeometry x="629.2385554807861" y="967.5" width="10" height="13" as="geometry"/>
        </mxCell>
        <mxCell id="RPFT_-vl7gFnDsFynRQg-127" value="" style="group" parent="Q292NiY0Muhm066f6xs9-1" vertex="1" connectable="0">
          <mxGeometry x="364.6386205849526" y="969.5" width="80" height="36.5" as="geometry"/>
        </mxCell>
        <mxCell id="RPFT_-vl7gFnDsFynRQg-128" value="" style="group" parent="RPFT_-vl7gFnDsFynRQg-127" vertex="1" connectable="0">
          <mxGeometry width="80" height="36.5" as="geometry"/>
        </mxCell>
        <mxCell id="RPFT_-vl7gFnDsFynRQg-129" value="«dir artifact»" style="text;html=1;resizable=0;points=[];autosize=1;align=center;verticalAlign=top;spacingTop=-4;" parent="RPFT_-vl7gFnDsFynRQg-128" vertex="1">
          <mxGeometry width="80" height="20" as="geometry"/>
        </mxCell>
        <mxCell id="RPFT_-vl7gFnDsFynRQg-130" value="&lt;b&gt;/lyrics&lt;/b&gt;" style="text;html=1;resizable=0;points=[];autosize=1;align=center;verticalAlign=top;spacingTop=-4;" parent="RPFT_-vl7gFnDsFynRQg-128" vertex="1">
          <mxGeometry x="10" y="16.5" width="50" height="20" as="geometry"/>
        </mxCell>
        <mxCell id="RPFT_-vl7gFnDsFynRQg-131" value="" style="group" parent="Q292NiY0Muhm066f6xs9-1" vertex="1" connectable="0">
          <mxGeometry x="528.9915617614233" y="1009.5" width="110" height="50" as="geometry"/>
        </mxCell>
        <mxCell id="RPFT_-vl7gFnDsFynRQg-132" value="" style="html=1;" parent="RPFT_-vl7gFnDsFynRQg-131" vertex="1">
          <mxGeometry width="110" height="50" as="geometry"/>
        </mxCell>
        <mxCell id="RPFT_-vl7gFnDsFynRQg-133" value="" style="shape=note;whiteSpace=wrap;html=1;backgroundOutline=1;darkOpacity=0.05;size=5;" parent="RPFT_-vl7gFnDsFynRQg-131" vertex="1">
          <mxGeometry x="96.5" y="3.5" width="10" height="13" as="geometry"/>
        </mxCell>
        <mxCell id="RPFT_-vl7gFnDsFynRQg-134" value="«artifact»" style="text;html=1;resizable=0;points=[];autosize=1;align=center;verticalAlign=top;spacingTop=-4;" parent="RPFT_-vl7gFnDsFynRQg-131" vertex="1">
          <mxGeometry x="20" y="9" width="70" height="20" as="geometry"/>
        </mxCell>
        <mxCell id="RPFT_-vl7gFnDsFynRQg-135" value="&lt;b&gt;__init__.py&lt;/b&gt;" style="text;html=1;resizable=0;points=[];autosize=1;align=center;verticalAlign=top;spacingTop=-4;" parent="RPFT_-vl7gFnDsFynRQg-131" vertex="1">
          <mxGeometry x="15" y="25.5" width="80" height="10" as="geometry"/>
        </mxCell>
        <mxCell id="RPFT_-vl7gFnDsFynRQg-136" value="" style="group" parent="Q292NiY0Muhm066f6xs9-1" vertex="1" connectable="0">
          <mxGeometry x="169.99156176142333" y="1010" width="110" height="50" as="geometry"/>
        </mxCell>
        <mxCell id="RPFT_-vl7gFnDsFynRQg-137" value="" style="html=1;" parent="RPFT_-vl7gFnDsFynRQg-136" vertex="1">
          <mxGeometry width="110" height="50" as="geometry"/>
        </mxCell>
        <mxCell id="RPFT_-vl7gFnDsFynRQg-138" value="" style="shape=note;whiteSpace=wrap;html=1;backgroundOutline=1;darkOpacity=0.05;size=5;" parent="RPFT_-vl7gFnDsFynRQg-136" vertex="1">
          <mxGeometry x="96.5" y="3.5" width="10" height="13" as="geometry"/>
        </mxCell>
        <mxCell id="RPFT_-vl7gFnDsFynRQg-139" value="«artifact»" style="text;html=1;resizable=0;points=[];autosize=1;align=center;verticalAlign=top;spacingTop=-4;" parent="RPFT_-vl7gFnDsFynRQg-136" vertex="1">
          <mxGeometry x="20" y="9" width="70" height="20" as="geometry"/>
        </mxCell>
        <mxCell id="RPFT_-vl7gFnDsFynRQg-140" value="&lt;b&gt;__about__.py&lt;/b&gt;" style="text;html=1;resizable=0;points=[];autosize=1;align=center;verticalAlign=top;spacingTop=-4;" parent="RPFT_-vl7gFnDsFynRQg-136" vertex="1">
          <mxGeometry x="10" y="25.5" width="90" height="20" as="geometry"/>
        </mxCell>
        <mxCell id="RPFT_-vl7gFnDsFynRQg-141" value="" style="group" parent="Q292NiY0Muhm066f6xs9-1" vertex="1" connectable="0">
          <mxGeometry x="408.4915617614233" y="1008.5" width="135" height="50" as="geometry"/>
        </mxCell>
        <mxCell id="RPFT_-vl7gFnDsFynRQg-142" value="" style="html=1;" parent="RPFT_-vl7gFnDsFynRQg-141" vertex="1">
          <mxGeometry width="110" height="50" as="geometry"/>
        </mxCell>
        <mxCell id="RPFT_-vl7gFnDsFynRQg-143" value="" style="shape=note;whiteSpace=wrap;html=1;backgroundOutline=1;darkOpacity=0.05;size=5;" parent="RPFT_-vl7gFnDsFynRQg-141" vertex="1">
          <mxGeometry x="96.5" y="3.5" width="10" height="13" as="geometry"/>
        </mxCell>
        <mxCell id="RPFT_-vl7gFnDsFynRQg-144" value="«artifact»" style="text;html=1;resizable=0;points=[];autosize=1;align=center;verticalAlign=top;spacingTop=-4;" parent="RPFT_-vl7gFnDsFynRQg-141" vertex="1">
          <mxGeometry x="20" y="9" width="70" height="20" as="geometry"/>
        </mxCell>
        <mxCell id="RPFT_-vl7gFnDsFynRQg-145" value="&lt;b&gt;lyrics_scraper.py&lt;/b&gt;" style="text;html=1;resizable=0;points=[];autosize=1;align=center;verticalAlign=top;spacingTop=-4;" parent="RPFT_-vl7gFnDsFynRQg-141" vertex="1">
          <mxGeometry y="25.5" width="110" height="20" as="geometry"/>
        </mxCell>
        <mxCell id="RPFT_-vl7gFnDsFynRQg-151" value="" style="group;fontStyle=1" parent="Q292NiY0Muhm066f6xs9-1" vertex="1" connectable="0">
          <mxGeometry x="288.9915617614233" y="1009" width="120" height="50" as="geometry"/>
        </mxCell>
        <mxCell id="RPFT_-vl7gFnDsFynRQg-152" value="" style="html=1;" parent="RPFT_-vl7gFnDsFynRQg-151" vertex="1">
          <mxGeometry width="110" height="50" as="geometry"/>
        </mxCell>
        <mxCell id="RPFT_-vl7gFnDsFynRQg-153" value="" style="shape=note;whiteSpace=wrap;html=1;backgroundOutline=1;darkOpacity=0.05;size=5;" parent="RPFT_-vl7gFnDsFynRQg-151" vertex="1">
          <mxGeometry x="96.5" y="3.5" width="10" height="13" as="geometry"/>
        </mxCell>
        <mxCell id="RPFT_-vl7gFnDsFynRQg-154" value="«artifact»" style="text;html=1;resizable=0;points=[];autosize=1;align=center;verticalAlign=top;spacingTop=-4;" parent="RPFT_-vl7gFnDsFynRQg-151" vertex="1">
          <mxGeometry x="20" y="9" width="70" height="20" as="geometry"/>
        </mxCell>
        <mxCell id="RPFT_-vl7gFnDsFynRQg-155" value="&lt;b&gt;track_features.py&lt;/b&gt;" style="text;html=1;resizable=0;points=[];autosize=1;align=center;verticalAlign=top;spacingTop=-4;" parent="RPFT_-vl7gFnDsFynRQg-151" vertex="1">
          <mxGeometry y="25.5" width="110" height="20" as="geometry"/>
        </mxCell>
        <mxCell id="BuJVj-WOTDAuUbbmA43Y-0" value="" style="html=1;fillColor=none;" parent="Q292NiY0Muhm066f6xs9-1" vertex="1">
          <mxGeometry x="150" y="1091" width="377" height="110" as="geometry"/>
        </mxCell>
        <mxCell id="BuJVj-WOTDAuUbbmA43Y-1" value="" style="shape=note;whiteSpace=wrap;html=1;backgroundOutline=1;darkOpacity=0.05;size=5;" parent="Q292NiY0Muhm066f6xs9-1" vertex="1">
          <mxGeometry x="507.24699371936276" y="1099.5" width="10" height="13" as="geometry"/>
        </mxCell>
        <mxCell id="BuJVj-WOTDAuUbbmA43Y-2" value="" style="group" parent="Q292NiY0Muhm066f6xs9-1" vertex="1" connectable="0">
          <mxGeometry x="293.6470588235293" y="1099.5" width="90" height="36.5" as="geometry"/>
        </mxCell>
        <mxCell id="BuJVj-WOTDAuUbbmA43Y-3" value="" style="group" parent="BuJVj-WOTDAuUbbmA43Y-2" vertex="1" connectable="0">
          <mxGeometry width="90" height="36.5" as="geometry"/>
        </mxCell>
        <mxCell id="BuJVj-WOTDAuUbbmA43Y-4" value="«dir artifact»" style="text;html=1;resizable=0;points=[];autosize=1;align=center;verticalAlign=top;spacingTop=-4;" parent="BuJVj-WOTDAuUbbmA43Y-3" vertex="1">
          <mxGeometry width="80" height="20" as="geometry"/>
        </mxCell>
        <mxCell id="BuJVj-WOTDAuUbbmA43Y-5" value="&lt;b&gt;/tests&lt;/b&gt;" style="text;html=1;resizable=0;points=[];autosize=1;align=center;verticalAlign=top;spacingTop=-4;" parent="BuJVj-WOTDAuUbbmA43Y-3" vertex="1">
          <mxGeometry x="16.5" y="16.5" width="50" height="20" as="geometry"/>
        </mxCell>
        <mxCell id="BuJVj-WOTDAuUbbmA43Y-6" value="" style="group" parent="Q292NiY0Muhm066f6xs9-1" vertex="1" connectable="0">
          <mxGeometry x="398" y="1140.5" width="110" height="50" as="geometry"/>
        </mxCell>
        <mxCell id="BuJVj-WOTDAuUbbmA43Y-7" value="" style="html=1;" parent="BuJVj-WOTDAuUbbmA43Y-6" vertex="1">
          <mxGeometry width="110" height="50" as="geometry"/>
        </mxCell>
        <mxCell id="BuJVj-WOTDAuUbbmA43Y-8" value="" style="shape=note;whiteSpace=wrap;html=1;backgroundOutline=1;darkOpacity=0.05;size=5;" parent="BuJVj-WOTDAuUbbmA43Y-6" vertex="1">
          <mxGeometry x="96.5" y="3.5" width="10" height="13" as="geometry"/>
        </mxCell>
        <mxCell id="BuJVj-WOTDAuUbbmA43Y-9" value="«artifact»" style="text;html=1;resizable=0;points=[];autosize=1;align=center;verticalAlign=top;spacingTop=-4;" parent="BuJVj-WOTDAuUbbmA43Y-6" vertex="1">
          <mxGeometry x="20" y="9" width="70" height="20" as="geometry"/>
        </mxCell>
        <mxCell id="BuJVj-WOTDAuUbbmA43Y-10" value="&lt;b&gt;__init__.py&lt;/b&gt;" style="text;html=1;resizable=0;points=[];autosize=1;align=center;verticalAlign=top;spacingTop=-4;" parent="BuJVj-WOTDAuUbbmA43Y-6" vertex="1">
          <mxGeometry x="10" y="25.5" width="80" height="20" as="geometry"/>
        </mxCell>
        <mxCell id="BuJVj-WOTDAuUbbmA43Y-16" value="" style="group" parent="Q292NiY0Muhm066f6xs9-1" vertex="1" connectable="0">
          <mxGeometry x="280" y="1140.5" width="120" height="50" as="geometry"/>
        </mxCell>
        <mxCell id="BuJVj-WOTDAuUbbmA43Y-17" value="" style="html=1;" parent="BuJVj-WOTDAuUbbmA43Y-16" vertex="1">
          <mxGeometry width="110" height="50" as="geometry"/>
        </mxCell>
        <mxCell id="BuJVj-WOTDAuUbbmA43Y-18" value="" style="shape=note;whiteSpace=wrap;html=1;backgroundOutline=1;darkOpacity=0.05;size=5;" parent="BuJVj-WOTDAuUbbmA43Y-16" vertex="1">
          <mxGeometry x="96.5" y="3.5" width="10" height="13" as="geometry"/>
        </mxCell>
        <mxCell id="BuJVj-WOTDAuUbbmA43Y-19" value="«artifact»" style="text;html=1;resizable=0;points=[];autosize=1;align=center;verticalAlign=top;spacingTop=-4;" parent="BuJVj-WOTDAuUbbmA43Y-16" vertex="1">
          <mxGeometry x="20" y="9" width="70" height="20" as="geometry"/>
        </mxCell>
        <mxCell id="BuJVj-WOTDAuUbbmA43Y-20" value="&lt;b&gt;requirements.txt&lt;/b&gt;" style="text;html=1;resizable=0;points=[];autosize=1;align=center;verticalAlign=top;spacingTop=-4;" parent="BuJVj-WOTDAuUbbmA43Y-16" vertex="1">
          <mxGeometry x="1.5" y="25.5" width="110" height="20" as="geometry"/>
        </mxCell>
        <mxCell id="BuJVj-WOTDAuUbbmA43Y-21" value="" style="group" parent="Q292NiY0Muhm066f6xs9-1" vertex="1" connectable="0">
          <mxGeometry x="19.60343143857756" y="1030" width="110" height="50" as="geometry"/>
        </mxCell>
        <mxCell id="BuJVj-WOTDAuUbbmA43Y-22" value="" style="html=1;" parent="BuJVj-WOTDAuUbbmA43Y-21" vertex="1">
          <mxGeometry width="110" height="50" as="geometry"/>
        </mxCell>
        <mxCell id="BuJVj-WOTDAuUbbmA43Y-23" value="" style="shape=note;whiteSpace=wrap;html=1;backgroundOutline=1;darkOpacity=0.05;size=5;" parent="BuJVj-WOTDAuUbbmA43Y-21" vertex="1">
          <mxGeometry x="96.5" y="3.5" width="10" height="13" as="geometry"/>
        </mxCell>
        <mxCell id="BuJVj-WOTDAuUbbmA43Y-24" value="«artifact»" style="text;html=1;resizable=0;points=[];autosize=1;align=center;verticalAlign=top;spacingTop=-4;" parent="BuJVj-WOTDAuUbbmA43Y-21" vertex="1">
          <mxGeometry x="20" y="9" width="70" height="20" as="geometry"/>
        </mxCell>
        <mxCell id="BuJVj-WOTDAuUbbmA43Y-25" value="&lt;b&gt;.gitignore&lt;/b&gt;" style="text;html=1;resizable=0;points=[];autosize=1;align=center;verticalAlign=top;spacingTop=-4;" parent="BuJVj-WOTDAuUbbmA43Y-21" vertex="1">
          <mxGeometry x="20" y="25" width="70" height="20" as="geometry"/>
        </mxCell>
        <mxCell id="BuJVj-WOTDAuUbbmA43Y-31" value="" style="group" parent="Q292NiY0Muhm066f6xs9-1" vertex="1" connectable="0">
          <mxGeometry x="162" y="1140.5" width="110" height="50" as="geometry"/>
        </mxCell>
        <mxCell id="BuJVj-WOTDAuUbbmA43Y-32" value="" style="html=1;" parent="BuJVj-WOTDAuUbbmA43Y-31" vertex="1">
          <mxGeometry width="110" height="50" as="geometry"/>
        </mxCell>
        <mxCell id="BuJVj-WOTDAuUbbmA43Y-33" value="" style="shape=note;whiteSpace=wrap;html=1;backgroundOutline=1;darkOpacity=0.05;size=5;" parent="BuJVj-WOTDAuUbbmA43Y-31" vertex="1">
          <mxGeometry x="96.5" y="3.5" width="10" height="13" as="geometry"/>
        </mxCell>
        <mxCell id="BuJVj-WOTDAuUbbmA43Y-34" value="«artifact»" style="text;html=1;resizable=0;points=[];autosize=1;align=center;verticalAlign=top;spacingTop=-4;" parent="BuJVj-WOTDAuUbbmA43Y-31" vertex="1">
          <mxGeometry x="20" y="9" width="70" height="20" as="geometry"/>
        </mxCell>
        <mxCell id="BuJVj-WOTDAuUbbmA43Y-35" value="&lt;b&gt;tests.py&lt;/b&gt;" style="text;html=1;resizable=0;points=[];autosize=1;align=center;verticalAlign=top;spacingTop=-4;" parent="BuJVj-WOTDAuUbbmA43Y-31" vertex="1">
          <mxGeometry x="25" y="25.5" width="60" height="20" as="geometry"/>
        </mxCell>
      </root>
    </mxGraphModel>
  </diagram>
  <diagram id="6zZ3ySJuAX5FFKyCSKrF" name="Page-4">
    <mxGraphModel dx="599" dy="277" grid="1" gridSize="10" guides="1" tooltips="1" connect="1" arrows="1" fold="1" page="1" pageScale="1" pageWidth="827" pageHeight="1169" math="0" shadow="0">
      <root>
        <mxCell id="I4CWTcNjfNTuaHDMyD6--0"/>
        <mxCell id="I4CWTcNjfNTuaHDMyD6--1" parent="I4CWTcNjfNTuaHDMyD6--0"/>
        <mxCell id="7V-rtGUQzFitJp9lsn75-6" value="" style="rounded=0;whiteSpace=wrap;html=1;fontFamily=Verdana;strokeColor=none;" vertex="1" parent="I4CWTcNjfNTuaHDMyD6--1">
          <mxGeometry x="240" y="40" width="350" height="180" as="geometry"/>
        </mxCell>
        <mxCell id="I4CWTcNjfNTuaHDMyD6--3" value="" style="shape=folder;fontStyle=1;spacingTop=10;tabWidth=69;tabHeight=18;tabPosition=left;html=1;fillColor=#f5f5f5;strokeColor=#666666;fontColor=#333333;border-radius=34;" vertex="1" parent="I4CWTcNjfNTuaHDMyD6--1">
          <mxGeometry x="250" y="60" width="150" height="140" as="geometry"/>
        </mxCell>
        <mxCell id="I4CWTcNjfNTuaHDMyD6--4" value="Spotichart Package" style="text;resizable=0;points=[];autosize=1;align=left;verticalAlign=middle;spacingTop=-4;fontFamily=Verdana;fontStyle=0;html=1;" vertex="1" parent="I4CWTcNjfNTuaHDMyD6--1">
          <mxGeometry x="263" y="85.5" width="130" height="20" as="geometry"/>
        </mxCell>
        <mxCell id="I4CWTcNjfNTuaHDMyD6--6" value="&lt;font face=&quot;Verdana&quot; style=&quot;font-weight: normal&quot;&gt;spotipy&lt;br&gt;submodule&lt;br&gt;&lt;/font&gt;" style="shape=folder;fontStyle=1;spacingTop=10;tabWidth=40;tabHeight=14;tabPosition=left;html=1;fillColor=#dae8fc;strokeColor=#6c8ebf;gradientColor=none;perimeter=rectanglePerimeter;" vertex="1" parent="I4CWTcNjfNTuaHDMyD6--1">
          <mxGeometry x="280" y="114.5" width="100" height="60" as="geometry"/>
        </mxCell>
        <mxCell id="I4CWTcNjfNTuaHDMyD6--13" value="&lt;font style=&quot;font-size: 9px&quot; face=&quot;Verdana&quot;&gt;Web&lt;br&gt;API v1&lt;/font&gt;" style="text;html=1;resizable=0;points=[];autosize=1;align=left;verticalAlign=top;spacingTop=-4;strokeColor=none;" vertex="1" parent="I4CWTcNjfNTuaHDMyD6--1">
          <mxGeometry x="413" y="100.5" width="50" height="30" as="geometry"/>
        </mxCell>
        <mxCell id="I4CWTcNjfNTuaHDMyD6--14" value="&lt;font style=&quot;font-size: 9px&quot; face=&quot;Verdana&quot;&gt;Spotify&lt;br&gt;Charts&lt;/font&gt;" style="text;html=1;resizable=0;points=[];autosize=1;align=left;verticalAlign=top;spacingTop=-4;strokeColor=none;" vertex="1" parent="I4CWTcNjfNTuaHDMyD6--1">
          <mxGeometry x="413" y="179" width="50" height="30" as="geometry"/>
        </mxCell>
        <mxCell id="I4CWTcNjfNTuaHDMyD6--31" value="" style="group" vertex="1" connectable="0" parent="I4CWTcNjfNTuaHDMyD6--1">
          <mxGeometry x="433" y="101" width="140" height="78" as="geometry"/>
        </mxCell>
        <mxCell id="I4CWTcNjfNTuaHDMyD6--32" value="" style="shape=folder;fontStyle=1;spacingTop=10;tabWidth=40;tabHeight=14;tabPosition=left;html=1;fillOpacity=100;strokeColor=#535353;fillColor=#B3B3B3;" vertex="1" parent="I4CWTcNjfNTuaHDMyD6--31">
          <mxGeometry x="30" width="110" height="78" as="geometry"/>
        </mxCell>
        <mxCell id="I4CWTcNjfNTuaHDMyD6--33" value="" style="rounded=0;orthogonalLoop=1;jettySize=auto;html=1;endArrow=none;endFill=0;strokeColor=#191414;" edge="1" parent="I4CWTcNjfNTuaHDMyD6--31" source="I4CWTcNjfNTuaHDMyD6--32" target="I4CWTcNjfNTuaHDMyD6--34">
          <mxGeometry relative="1" as="geometry">
            <mxPoint x="-30" y="44" as="sourcePoint"/>
          </mxGeometry>
        </mxCell>
        <mxCell id="I4CWTcNjfNTuaHDMyD6--36" style="edgeStyle=none;rounded=0;orthogonalLoop=1;jettySize=auto;html=1;exitX=0.002;exitY=0.884;exitDx=0;exitDy=0;exitPerimeter=0;entryX=0.973;entryY=0.523;entryDx=0;entryDy=0;entryPerimeter=0;endArrow=none;endFill=0;strokeColor=#191414;" edge="1" parent="I4CWTcNjfNTuaHDMyD6--31" source="I4CWTcNjfNTuaHDMyD6--32" target="I4CWTcNjfNTuaHDMyD6--35">
          <mxGeometry relative="1" as="geometry"/>
        </mxCell>
        <mxCell id="I4CWTcNjfNTuaHDMyD6--37" value="" style="shape=image;verticalLabelPosition=bottom;labelBackgroundColor=#ffffff;verticalAlign=top;aspect=fixed;imageAspect=0;image=data:image/png,iVBORw0KGgoAAAANSUhEUgAAAJIAAACSCAYAAACue5OOAAAACXBIWXMAAAsTAAALEwEAmpwYAAAAAXNSR0IArs4c6QAAAARnQU1BAACxjwv8YQUAABAnSURBVHgB7Z1LbFTXGce/OzMem5czBpo4CY8hJUqMqsYsQlEViaHJAlVtMWq6aBdhvGuVSIRlsgFvkm6qgESkbiouUdWqUlpAysKV0maQoioKC0/UBlORimtDUjcQPBiDPbZnbs//eo65Hs97zj333DvnJw13PBj8uP/5vvO9zjGoA+n55WByy2uDiQjRoGFQkiK00zYoYRB7blOi9GnJKv/cwh926WrgWqQJ2yYLj9klyub2mjnqMAwKOcmxdLLQRSmK0XPs7kM4gy6xeINBOSaqLLtmmcguLbLr1IBpUYgJnZASY+nEpi4aMqJ0gH2YouqWRTYWs2KZxWu5S/R0IhM2YYVCSHBVm3+2+2j0iY0pY1k8ygNRLV2fuWjv6r0QBlEFVkiwPL3dlGZrm8NBEU81ICoq0LnFKAXWUgVOSNv+mU4t/mf6WPezfSnP1zo+wERlzn0yde728GiGAkRghPTon3401P3drceCbn0apTCdz0Z6u0/f+I5pUgBQXkjb/5VOs4XzCVJn0Swbyy7QiOqCUlZIW36TSm/4YbKTBVSO0oJSTkhYAxkxOtEpLqwFrJlR60jueCZLCqGMkJz8Tw+9w76hNGnqgkX5ItGIKlGeEkLacTV9jF1OhjEK8xhl3J2vQuofTye7iM5qN9YeTsacaNhP6xQhn3h89KfH4gaNaRG1D36HcaKPEOGST0i3SE5Geh0L5216nTTCYZn+U/fmaER2B4JUIcGV4Z1DOqT3GmuB6KBMVyfNtSGshysjLSIZJGMzC2Pbr6SHSBJShISoLBJjlkhHZdKI9MYThkHnd4ynT5AEPBeS84PYdIo0fnFShpg8XSNtH0+f1QlGNUAC88aAOUwe4ZmQtIjUw0sxeSIkLSJ18UpMwoWkRaQ+XohJqJC0iIKDaDEJi9oQGWgRBQfcK5HRnBCLVPqGTpImeNh0fHKP2XZ6pm0hIXuKxBdpAkuRlVNuDpgZaoO2hITaGVLxyKKSJrgYlFuwaW87tbmW10io4qMAq0UUAljpCvcS95RapGUhOa0gugAbJpKblu9pS0SpBZwRIYN+TZpQwdY5+9f/+Km7s78f/4SapOk1ku4pCjktrpeadm3osSYtovDC1kule9wUTQnJcWm6xzr04B7vuJJuqhW6YdemXVqHwVzczBztarT3u2GLxMydjtI6CebiMLDa6Kc3JKTEO6lBXUfrPHDPt42nU418bkNC6j2U1CWQDsWgxnJLdfNIzgI7oq1Rp4KdfmO7ExNzf7WydT6vNqyyf50UXhsV7y1QcWaBCl/OrjznV7D01Wwz/x3Fntj48PmTGzGNQZFNcTJKV7zWgViTA+auWp9QU0ilTa6azimIBKJYYiJZHL/jXCEMXCEcXP2ACwriij+72fk4PrB87Spdw4ZdoOFam1XUFJJsa7Rw9Y4jGFz5cwgpaHBBQWQQHK4hEFhNq1RVSF5bIwgk/+kUzbNHkEXTDBBUlAmrZ18/dbMHPg4S85/fPvL1yx9cqPR3VYW07R8/H4v0dQ+SyG+EiSZ/eVk8EFGnwy3X+hd3OKKCuFQG2+fcGDAPVvq7ikLaevZQav3+/o9IEBDO3XezWjx1gLAgJggLVxUX9tW6KWOVPnnd/v6jJIjZC1/QnTc+Jk194Nrn/jbpPACs1IYju5Vyg4v/nsbuepny19dYpFJN7ToJAFHVVy+9T5r24aJax6yVr5aqSg1uTWa7qyCuug93phEDApLptz913pj/OzpK989/Qb7AanA4uqP85TVCikRJiFuDmfbthw05WGt+8+bHjqhwlZ1Pw/kv5a+tKpHArbEXhGxBk//sFt2/oIXkJXizLjJLde+9K47Fim1dJ8XtoWySJ8Ncujx1l7+2yiIZ12ek7fClEQsW6HB5sFIyPMHmoW+vGvdeJaT4rt7DJIgOrUn5Dtwcd3teCiq6beMB98crUZvIaI1zY98fyJaYrTZYHibqKrDygiunmrjdRd7y5zZ73mzhVyUQ7W098wNP3tgz89THo7eHeaRruRQ9LXbW8ZHXBinHIg1RoDKPTDB+KSg1RF1FUq8tIC8e806DJdeDr1VUBGsnWCekDh55dVDo7wlHvjIVmXi+IqSupxMHSDC9r+xxfsHNmlhYFryT4qXCJxePn0XPSOl7qgVuGu9UWHmuiMBwDxDtwTqJSm6Wzg02nef8RS8r/XfPZGvmlCAcXsjsCWAxsxawVgslYfEite1jcRpviP7zPxFlmVY6AhwhebE+KgfvTidMZb9UuAasYyAaZGp7FC9WisZpk2G/B0RafggLb9jHzh0iEUS7o8nrT/1uwnFtXTYNen0GAN4BfW/sI83yAhiPjWzdAiAmLioZrhCWEZZSxFJh6UEB3QCmIyQ99OgvPSWXDmC5IShYby9FNffhpLMAbxc7Qk6r0bKQDHrOJo0KwHLDUuHBlwMPmLUqCC6DiGoihHZwdRKSrHYitIFNIwa+HHjyw5fpUbamwXpSFKIiYKOknVhyLJ0o6jNClIe7P1gpRMHt1jGF5ZOYdnpe3bvTwKlFzoEzmkABQSE3hMbBZt0ekrmwcqKIFGhvhJmmJGkCBywKKgcI45GxbgbR0XOBaDAWZCG5hyOXXAOSvDbm7tOp9K7lg48cnj3ndTr+Md7BqhahuaAQgdVzefg5trz1gvC8HTQUowAIiZcacHWPLolu6MrX+Xte43PPq6kiMnwPW95+wRGVO/ELkIBEmQmRoCdlpgjtNHaOpz+yFcoj8ZIChMPHllSfd3MPROLd3lUSWsdg00UlhMQzu7weFQYgJKd2+Hy/sqNFwjAoa/i1SQTP3gbB4oiAdzFsHNqt/CBkC1gx8gF0AmBh2Enw/QwQssMVrntphzMIKTLJ6CewSFKrI3rWbTVcVEG3VNKFdOu1v69MkmpWg3UULNSmV/YEbk0lXUiy+7iDCgSFDtOgWCmpayS4NS2ixuB7ADgJx1cHhbR8eImwEyQbQY8oNY+s8aJ2ke7aMMQnMleEyRKeXUZZg0+XNLPnI8+Qr4wflcotq6ZGFBlJUtVCSc8joUnrNltwN4t7FIlvSlU+t+Y1Kk2JKCYoy5eEZL2pEgDhICzmolHVLZZPieAqupuxFl7Mq7UAE9LV9BjZ8jsk8QuHoPgUBZ9lc3IqXhUXJeHHlAiKtc22k4gCWwIa26+kzxsG6c0jPARiwkJ5/vKUp9YKfUbIQckGQooZzNOQxlPcUyJeigoW3g8hGU6tzSbL65k2zUPcokLgAVGJyvTzSFP6eqlIEzGbCUnryB9QtMWDN/SLsFIFH4QEDcWKRNmWTkjWCIN3N4JZZqEQ0bYqKHfrsCzsKFmR+2eyDZ0QqJEDIlZMeGx+6wUnudoMvA1YNrPzlHW8GksBTJOebVOSZiwUtqxZL7u/yaDc5LNmn1NrM2zS+xgrCixUIyNHCP3X+9AkZ5e0Eyl98BlplIWPHD3BXN6GodUlke7n+539jvwI+wHXjtNGYheZjwvgitt9bttKkbXsIEDADwOsBY90yg/54w8VzmLji/K+N/c5P5PsWmMljNJxEo6QolHKFElN3Af/uQulomfaGv3/Kp3FJrv5jA9xqkDUWHZtUrb+axT3GW5eCcYr+MEz/GSjDmFl67+HHZI2XfJj6hbiwVgSMrxBEU0l8qVhTvwsAGLiDf0hbujL8CcrQmLrpIwh6BySRoFwvj46GmgBVSPvOtwQlmpTqf86TKJauJa7xJ+vuDZnn6QemiaJoH00jCKqBbdUqvdgNwIL+XdZA6aF56vKbDLHt1GovNVCp2RY4CPdCjSltUT5saSrmv8Xb85eIkmg8auT4Rtl+XVUVrssTcxcdH+8KnsU3RC3uvf3v04SQJ5H5qAkWndX9j6q8HAmIBYK5Af8qCwMGGA9FelVvzu0K9H9q9y7D+u0azpIZLk3RGtfvvh+W22oEAeShzyng4fh2iCrlYTdymZdriQnRL9Q2pNJRrO/In3YVal02vaaAUmW8r7I5JUij8ENRn3ozpv1D04unyDx8mwSbqFq3cT5UpM/T5KKFpfT7PbhJG06use3Puw6nCt/YY1FcqK3dXRdVjcAugRxViuvbrvPJcHNxHPVBwFgqZw9ntjNF91Cq+Icmzta41Rsjnz8wuHzXc/0SR0I4IvNMORZ+PY1IjdaR3/SRjXEZLJs9nD5ixWFtG08nWKq01smCwCiunfuStuWClZ526e/IL9Z+GTq4NTwaKb89art2qrtLRkG2m2jRRuJnxa7MJ3Pfvn9P+6t9HdVN5GY+/z2adIIhbfR4jgI9BEFjUhfd1VN1BwgUaEjIMxggY7pkfzl+ptqKODaVir9lai5rQ1zbSOk8QxEpI+9d8jpta7X6O931FZPC3VH2rRVkke1NRTaa/m4kk/UtEagboNtbHfibnx3Qu8NIAEcBo3GOFgnO19wLBaStr1H/enH5jBrdHzm3WzNAZGGhmx1BNfR1LVGoKGt/wp6rdSxzI1aRxr5vIaEdHPAzDD7do40nYZ563imoZnHhjcjjeTpdUxVkqZTsCJNeKKGhWTtNXNU1C6uU0C4X16YrUXTO9rohXf4qdRvVI+m99lmyhvWLi7UWFHc4yZpWkgwd4vWjHZxIaVZl8Zpaef//x76yyn2FXVRN2QU2T1lLs2kFmj5CAkWxZ1kF4s0YcGKLd/TlmhZSIji2D8+qNdLwac4s+DcSycyb5G2DrWBL2XmsKHMp0ZdjE3x4VbWRW7aPh2plPU+TpqgMnJjj3mB2kTIMVuTe8xTpOtxQWSEFWRPkgCEbrG9/UraNAy5O5poWoOF+edYhJYmQQjfq12LSX1Eiwh4sum/FpO6eCEi4NnpEVpM6uGViICnx5BoMamDlyICnh6OzMLKNOloTgVGvBQR8NQicXaMp0+yywnSyIfl+ErpGU+RIiTA3NyQfW/hbKQ3rs88kQErXaHq4CSMpXw5iSTH08ni8uYUSdJ4ieXUztosezSDp2ukcvCDReZpr25B8Q60guB3LFNEQKpFcrN9PJ02ltdNSdK0D3NlaDh0esV8+fI+AlfHwtKzuge8PdBjjfZY2VbIja9C4mjr1CLoBSuywquEqKz+t6IIzkLcppOkE5iNYrK10PF2mtFEooyQON96JzW47lDyPGnrVBG4MTToywrrG0U5IXG0u1uDdX/UGvnmeMYkBVFWSBwtKLLs5RKHSQqjvJA4EJQ9nT8W6etWcgdz0cCF5T+/ffrrlz9ouw1WBoEREqf/7KFU/Hv96VAuypELujqdiT7Td1q1NVA9AickDqK8Ass/sdT80aDnoWB9DJsuRvJkqhKFNUtgheQGospPzAzFd/YeDoqoIJ7CzdlLD/78hZn7bdaigBMKIbmBqOav5VLx3YkU++kOkDqLdIuWQ/dL0Xm6EFTLU43QCakcxwXaNMh+0JRh0HO2QYOeH9jD1jq2TVnmrj5jXy/LyhcZP8sXMgi9kCqBE6CWehxxJY0is1gR2mmULJf90IIlq/xzy/mTicVAaG47ZYoJO0JWtEDZ3JlsLgyuqln+D6nLwqjDGiPRAAAAAElFTkSuQmCC;" vertex="1" parent="I4CWTcNjfNTuaHDMyD6--31">
          <mxGeometry x="60.5" y="21.5" width="49" height="49" as="geometry"/>
        </mxCell>
        <mxCell id="7V-rtGUQzFitJp9lsn75-2" value="" style="group" vertex="1" connectable="0" parent="I4CWTcNjfNTuaHDMyD6--31">
          <mxGeometry x="-2.5" y="31.5" width="12.5" height="15" as="geometry"/>
        </mxCell>
        <mxCell id="I4CWTcNjfNTuaHDMyD6--34" value="" style="ellipse;whiteSpace=wrap;html=1;fontFamily=Helvetica;fontSize=12;align=center;strokeColor=#1DB954;fillColor=#1ED769;points=[];aspect=fixed;resizable=0;" vertex="1" parent="7V-rtGUQzFitJp9lsn75-2">
          <mxGeometry x="2.5" y="2.5" width="10" height="10" as="geometry"/>
        </mxCell>
        <mxCell id="7V-rtGUQzFitJp9lsn75-0" value="" style="shape=requiredInterface;html=1;verticalLabelPosition=bottom;strokeColor=#191414;fillColor=#1ED769;rotation=180;aspect=fixed;" vertex="1" parent="7V-rtGUQzFitJp9lsn75-2">
          <mxGeometry width="7.5" height="15" as="geometry"/>
        </mxCell>
        <mxCell id="7V-rtGUQzFitJp9lsn75-3" value="" style="group" vertex="1" connectable="0" parent="I4CWTcNjfNTuaHDMyD6--31">
          <mxGeometry x="-2.5" y="61" width="12.5" height="15" as="geometry"/>
        </mxCell>
        <mxCell id="I4CWTcNjfNTuaHDMyD6--35" value="" style="ellipse;whiteSpace=wrap;html=1;fontFamily=Helvetica;fontSize=12;align=center;strokeColor=#1DB954;fillColor=#1ED769;points=[];aspect=fixed;resizable=0;" vertex="1" parent="7V-rtGUQzFitJp9lsn75-3">
          <mxGeometry x="2.5" y="2.5" width="10" height="10" as="geometry"/>
        </mxCell>
        <mxCell id="7V-rtGUQzFitJp9lsn75-1" value="" style="shape=requiredInterface;html=1;verticalLabelPosition=bottom;strokeColor=#191414;fillColor=#1ED769;rotation=180;aspect=fixed;" vertex="1" parent="7V-rtGUQzFitJp9lsn75-3">
          <mxGeometry width="7.5" height="15" as="geometry"/>
        </mxCell>
        <mxCell id="7V-rtGUQzFitJp9lsn75-4" style="rounded=0;orthogonalLoop=1;jettySize=auto;html=1;exitX=1;exitY=0.5;exitDx=0;exitDy=0;exitPerimeter=0;entryX=0;entryY=0;entryDx=100;entryDy=25.5;entryPerimeter=0;strokeColor=#191414;endArrow=none;endFill=0;" edge="1" parent="I4CWTcNjfNTuaHDMyD6--1" source="7V-rtGUQzFitJp9lsn75-0" target="I4CWTcNjfNTuaHDMyD6--6">
          <mxGeometry relative="1" as="geometry"/>
        </mxCell>
        <mxCell id="7V-rtGUQzFitJp9lsn75-5" style="edgeStyle=orthogonalEdgeStyle;rounded=0;orthogonalLoop=1;jettySize=auto;html=1;exitX=1;exitY=0.5;exitDx=0;exitDy=0;exitPerimeter=0;entryX=0;entryY=0;entryDx=100;entryDy=48.5;entryPerimeter=0;endArrow=none;endFill=0;strokeColor=#191414;" edge="1" parent="I4CWTcNjfNTuaHDMyD6--1" source="7V-rtGUQzFitJp9lsn75-1" target="I4CWTcNjfNTuaHDMyD6--6">
          <mxGeometry relative="1" as="geometry"/>
        </mxCell>
      </root>
    </mxGraphModel>
  </diagram>
  <diagram id="ffqtSwrlaCBEUd1fJBUc" name="Page-5">
    <mxGraphModel dx="1695" dy="450" grid="1" gridSize="10" guides="1" tooltips="1" connect="1" arrows="1" fold="1" page="1" pageScale="1" pageWidth="827" pageHeight="1169" math="0" shadow="0">
      <root>
        <mxCell id="Hup0DXJm6p7rrMc2wiFl-0"/>
        <mxCell id="Hup0DXJm6p7rrMc2wiFl-1" parent="Hup0DXJm6p7rrMc2wiFl-0"/>
        <mxCell id="Hup0DXJm6p7rrMc2wiFl-2" value="&lt;p style=&quot;margin:0px;margin-top:4px;text-align:center;&quot;&gt;&lt;i&gt;&amp;lt;&amp;lt;Interface&amp;gt;&amp;gt;&lt;/i&gt;&lt;br/&gt;&lt;b&gt;Interface&lt;/b&gt;&lt;/p&gt;&lt;hr size=&quot;1&quot;/&gt;&lt;p style=&quot;margin:0px;margin-left:4px;&quot;&gt;+ field1: Type&lt;br/&gt;+ field2: Type&lt;/p&gt;&lt;hr size=&quot;1&quot;/&gt;&lt;p style=&quot;margin:0px;margin-left:4px;&quot;&gt;+ method1(Type): Type&lt;br/&gt;+ method2(Type, Type): Type&lt;/p&gt;" style="verticalAlign=top;align=left;overflow=fill;fontSize=12;fontFamily=Helvetica;html=1;rounded=0;" vertex="1" parent="Hup0DXJm6p7rrMc2wiFl-1">
          <mxGeometry x="-20" y="60" width="190" height="140" as="geometry"/>
        </mxCell>
      </root>
    </mxGraphModel>
  </diagram>
</mxfile>
